<?xml version="1.0" encoding="utf-8"?>
<!-- Generator: Adobe Illustrator 19.1.0, SVG Export Plug-In . SVG Version: 6.00 Build 0)  -->
<svg version="1.1" id="Layer_1" xmlns:svg="http://www.w3.org/2000/svg"
	 xmlns="http://www.w3.org/2000/svg" xmlns:xlink="http://www.w3.org/1999/xlink" x="0px" y="0px" viewBox="-985 -2.7 518 518.1"
	 style="enable-background:new -985 -2.7 518 518.1;" xml:space="preserve">
<style type="text/css">
	.st0{fill:#FFFFFF;}
	.st1{fill:#007EC6;}
	.st2{fill:#263F78;}
</style>
<circle class="st0" cx="-722.5" cy="254" r="251"/>
<g>
	<path id="path3758" class="st1" d="M-543.4,165.4c0.1,0,24.6,48.5,20.3,100.1l0,0c-2.4,86.7-79,185.1-193.2,188.3l-15.9-0.3
		c-117.7-5.8-190-105.7-189.7-195.9l0,0c0.3-16.8,0.2-35.5,7.3-58.7l7.2,2.2c30.2,11.4,62.7,99.5,168.5,104.5
		c4.6,0.2,13.4,0.4,13.4,0.5c-6.8,6.8-45.8,22.9-63.4,27.1c4.6-1.1-0.4-0.1,0,0l0,0c42.5,26.4,85.1-24.4,140.3-31.8l16.9-1
		c-3.2-10.2-17.8-9.3-19.2-9.2c-38.2,3.8-28.7-0.6-29.9-0.2c58.7-18.4,92.6-65.4,134.8-122.6L-543.4,165.4z"/>
	<path id="text4662" class="st2" d="M-921.6,324.8l-20.1,6.3l-0.9-3l11.7-13.9c0.3-0.3,0.5-0.6,0.7-0.8s0.5-0.4,0.7-0.6l-16.3,5.1
		l-0.8-2.6l20.1-6.3l0.9,3l-11.8,14.2c-0.2,0.2-0.4,0.4-0.6,0.6c-0.2,0.2-0.4,0.4-0.7,0.6l16.3-5.1L-921.6,324.8z M-937,302.8
		l-1.4-6.4l-8.4,5.1L-937,302.8z M-927.2,306.9l-22.2-3.3l-0.7-3.1l19-12l0.6,3l-5.7,3.5l1.7,8.1l6.6,0.9L-927.2,306.9z
		 M-931.8,281.7l-18.3,2.3l0.8,6.6l-2.5,0.3l-2-16l2.5-0.3l0.8,6.6l18.3-2.3L-931.8,281.7z M-933.1,269.7l-21,1.4l-0.2-2.9l21-1.4
		L-933.1,269.7z M-944.2,260.1c2.7,0,4.8-0.6,6.3-1.8c1.5-1.2,2.3-3,2.3-5.2c0-2.2-0.7-3.9-2.3-5.1c-1.5-1.2-3.6-1.9-6.3-1.9
		c-2.7,0-4.8,0.6-6.3,1.8c-1.5,1.2-2.3,2.9-2.3,5.1c0,2.2,0.7,3.9,2.3,5.2C-949,259.5-946.9,260.1-944.2,260.1L-944.2,260.1z
		 M-944.2,263.1c-3.5,0-6.2-0.9-8.1-2.7c-2-1.8-2.9-4.2-2.9-7.3c0-3.1,1-5.5,3-7.3c2-1.8,4.7-2.6,8.2-2.6c3.5,0,6.2,0.9,8.1,2.7
		c2,1.8,2.9,4.2,2.9,7.3c0,3.1-1,5.6-3,7.3C-938,262.2-940.7,263.1-944.2,263.1L-944.2,263.1z M-933.4,239.6l-20.9-2.2l0.3-3.1
		l16.2-8.2c0.4-0.2,0.7-0.3,1-0.5c0.3-0.1,0.6-0.2,0.9-0.3l-17-1.8l0.3-2.7l20.9,2.2l-0.3,3.1l-16.5,8.4c-0.3,0.1-0.5,0.2-0.8,0.3
		c-0.3,0.1-0.6,0.2-0.8,0.3l17,1.8L-933.4,239.6z M-938.7,213.2l1.3-6.4l-9.7,1.3L-938.7,213.2z M-931.3,220.9l-19.1-11.8l0.6-3.1
		l22.2-3.5l-0.6,3l-6.6,0.9l-1.6,8.1l5.7,3.4L-931.3,220.9z M-926.9,200.4l-20.2-5.8l0.8-2.8l17.7,5.1l2.9-10.1l2.6,0.7
		L-926.9,200.4z M-928.6,171.8c2.5,1.1,4.7,1.3,6.5,0.8c1.9-0.5,3.3-1.8,4.2-3.8c0.9-2,0.9-3.9,0-5.6c-0.9-1.7-2.6-3.1-5.1-4.2
		c-2.5-1.1-4.7-1.4-6.5-0.8c-1.9,0.5-3.3,1.8-4.1,3.8c-0.9,2-0.9,3.9,0,5.6C-932.8,169.3-931.1,170.7-928.6,171.8L-928.6,171.8z
		 M-929.8,174.5c-3.2-1.4-5.3-3.3-6.4-5.7c-1.1-2.4-1-5,0.2-7.9c1.2-2.9,3.1-4.7,5.6-5.5c2.5-0.8,5.3-0.6,8.5,0.8
		c3.2,1.4,5.3,3.3,6.4,5.7c1.1,2.4,1,5-0.2,7.9c-1.2,2.9-3.1,4.7-5.6,5.6C-923.8,176.2-926.6,175.9-929.8,174.5L-929.8,174.5z
		 M-910.1,140.6l1.4-2.4c2.2,1.4,3.5,3.1,4,5.3c0.5,2.2,0.2,4.4-1.1,6.6c-1.5,2.6-3.5,4.1-6.1,4.6c-2.6,0.5-5.4-0.2-8.5-1.9
		c-2.9-1.6-4.7-3.7-5.5-6.2c-0.8-2.5-0.5-5,1-7.6c1.2-2.1,2.7-3.5,4.5-4.2c1.8-0.7,3.7-0.7,5.7,0.2l-1.4,2.4
		c-1.3-0.5-2.6-0.4-3.7,0.1c-1.1,0.5-2.1,1.5-2.9,2.8c-1,1.9-1.2,3.7-0.5,5.4c0.7,1.8,2.3,3.3,4.6,4.6c2.2,1.3,4.3,1.7,6.3,1.4
		c2-0.3,3.4-1.3,4.4-3.1c0.8-1.5,1.1-3,0.7-4.5C-907.6,142.7-908.6,141.5-910.1,140.6L-910.1,140.6z M-900,139.2l-17.3-12l8.6-12.3
		l2.1,1.5l-6.9,10l5.2,3.6l6.4-9.2l2,1.4l-6.4,9.2l5.8,4l7.1-10.2l2.2,1.5L-900,139.2z M-893.5,115.5l4.2-5l-9.2-3.4L-893.5,115.5z
		 M-890.7,125.8l-11.2-19.5l2-2.4l21.2,7.5l-2,2.4l-6.3-2.3l-5.3,6.4l3.4,5.7L-890.7,125.8z M-877.1,109.8L-892,94.8l2.2-2.2
		l17.7,3.9c0.4,0.1,0.7,0.2,1.1,0.3c0.3,0.1,0.6,0.2,0.9,0.3l-12-12.1l1.9-1.9l14.8,14.9l-2.2,2.2l-18.1-3.9
		c-0.3-0.1-0.6-0.1-0.8-0.2c-0.3-0.1-0.5-0.2-0.8-0.3l12,12.1L-877.1,109.8z M-861.9,95.1l-13.8-15.9l2.2-1.9l13.8,15.9L-861.9,95.1
		z M-849.2,75l2.2-1.7c1.4,2.1,2,4.3,1.6,6.5c-0.4,2.2-1.6,4.1-3.6,5.6c-2.4,1.8-4.8,2.4-7.4,1.8c-2.6-0.6-4.9-2.3-7.1-5.2
		c-2-2.6-2.9-5.2-2.6-7.9c0.2-2.6,1.5-4.8,3.9-6.6c1.9-1.4,3.8-2.1,5.8-2.1c2,0.1,3.7,0.9,5.1,2.4l-2.2,1.7
		c-1.1-0.9-2.2-1.4-3.5-1.4c-1.2,0-2.5,0.5-3.8,1.5c-1.7,1.3-2.6,2.9-2.6,4.8c0,1.9,0.8,3.9,2.4,6.1c1.6,2.1,3.3,3.3,5.2,3.8
		c1.9,0.5,3.7,0.1,5.3-1.1c1.4-1,2.2-2.3,2.4-3.8C-847.8,78-848.2,76.5-849.2,75L-849.2,75z M-833.8,64l5.7-3.2l-7.4-6.5L-833.8,64z
		 M-834.7,74.6l-3.6-22.2l2.7-1.6l17.2,14.4l-2.7,1.5l-5-4.4l-7.2,4.1l1.2,6.6L-834.7,74.6z M-816.5,64.4l-8.6-19.2l2.9-1.3
		l15.2,9.9c0.3,0.2,0.6,0.4,0.9,0.6c0.3,0.2,0.5,0.4,0.7,0.6l-7-15.6l2.5-1.1l8.6,19.2l-2.8,1.3l-15.5-10c-0.2-0.2-0.5-0.3-0.7-0.5
		c-0.2-0.2-0.4-0.4-0.7-0.6l7,15.6L-816.5,64.4z M-795.6,35.8l-4.7,1.6l5.1,15.2l4.7-1.6c2-0.7,3.3-1.8,3.9-3.5
		c0.6-1.6,0.5-3.7-0.4-6.3c-0.8-2.4-2-4.1-3.4-5.1C-792,35.3-793.7,35.1-795.6,35.8L-795.6,35.8z M-797.1,55.9l-6.7-20l7.6-2.5
		c2.8-0.9,5.2-0.8,7.2,0.4c2,1.2,3.6,3.3,4.6,6.5c1.1,3.2,1.2,6,0.2,8.3c-0.9,2.3-2.8,3.9-5.5,4.9L-797.1,55.9z M-767.6,38.4
		l6.4-1.2l-5-8.5L-767.6,38.4z M-771.9,48.1l3.7-22.1l3.1-0.6l11.7,19.2l-3,0.6l-3.4-5.7l-8.1,1.6l-1,6.6L-771.9,48.1z M-746.7,43.8
		l-2-18.4l-6.6,0.7l-0.3-2.5l16.1-1.7l0.3,2.5l-6.6,0.7l2,18.4L-746.7,43.8z M-732.3,24.6l0.2,17.9l-2.6,0l-0.2-21l4.1,0l5.4,16
		c0.2,0.5,0.3,0.8,0.3,1.1c0.1,0.3,0.1,0.5,0.2,0.7c0.1-0.4,0.1-0.7,0.2-0.9c0.1-0.3,0.2-0.5,0.2-0.8l5.2-16.2l4.1,0l0.2,21l-2.8,0
		l-0.2-17.9c-0.1,0.3-0.1,0.6-0.2,0.9c-0.1,0.3-0.2,0.6-0.3,0.9l-5.2,16.2l-2.7,0l-5.5-16c-0.1-0.3-0.2-0.6-0.3-0.9
		C-732.1,25.3-732.2,25-732.3,24.6L-732.3,24.6z M-707.3,32.3c-0.3,2.7,0.1,4.8,1.2,6.5c1.1,1.6,2.7,2.6,4.9,2.8
		c2.2,0.2,4-0.4,5.3-1.8c1.4-1.4,2.2-3.4,2.5-6.1c0.3-2.7-0.1-4.9-1.2-6.5c-1.1-1.6-2.7-2.5-4.9-2.8c-2.2-0.2-4,0.4-5.4,1.8
		C-706.2,27.6-707.1,29.6-707.3,32.3L-707.3,32.3z M-710.3,32c0.3-3.5,1.5-6.1,3.4-7.9c1.9-1.8,4.5-2.5,7.6-2.2
		c3.1,0.3,5.4,1.5,7,3.6c1.6,2.1,2.2,4.9,1.8,8.4c-0.3,3.5-1.5,6.1-3.4,7.9c-1.9,1.8-4.5,2.5-7.6,2.2c-3.1-0.3-5.4-1.5-7-3.6
		C-710,38.3-710.6,35.5-710.3,32L-710.3,32z M-687.5,38.1l2.7,0.5c-0.3,1.5,0,2.8,0.8,3.9c0.8,1.1,2,1.8,3.6,2.1
		c1.6,0.3,2.9,0.2,4-0.3c1.1-0.5,1.7-1.3,1.9-2.5c0.3-1.6-1.2-3.1-4.5-4.6c-0.2-0.1-0.3-0.2-0.5-0.2c-2.7-1.2-4.4-2.3-5.1-3.3
		c-0.7-1-1-2.2-0.7-3.8c0.4-1.8,1.3-3.2,2.9-4c1.6-0.8,3.5-1.1,5.7-0.6c2.3,0.5,4,1.4,5,2.8c1.1,1.4,1.4,3.2,1,5.2l-2.7-0.5
		c0.2-1.4-0.1-2.6-0.8-3.5c-0.7-0.9-1.8-1.5-3.2-1.8c-1.4-0.3-2.5-0.2-3.5,0.2c-0.9,0.4-1.5,1.2-1.7,2.2c-0.3,1.6,1.1,3.1,4.4,4.6
		c0.5,0.2,0.8,0.4,1.1,0.5c0.1,0,0.1,0.1,0.3,0.1c2.1,1,3.5,1.8,4.1,2.6c0.5,0.6,0.8,1.2,0.9,2c0.2,0.7,0.2,1.5,0,2.3
		c-0.4,2-1.4,3.4-3.1,4.3s-3.7,1.1-6.1,0.6c-2.5-0.5-4.3-1.5-5.5-3.1C-687.5,42.5-687.9,40.5-687.5,38.1L-687.5,38.1z M-663.4,38.9
		l4.6,1.4c1.6,0.5,2.8,0.5,3.6,0.2c0.8-0.3,1.4-1.1,1.7-2.4c0.4-1.2,0.3-2.1-0.2-2.9c-0.5-0.7-1.5-1.3-2.9-1.7l-4.8-1.4L-663.4,38.9
		z M-669.4,49l5.9-20.2l7.4,2.2c1.2,0.4,2.1,0.7,2.7,1c0.6,0.3,1.1,0.7,1.5,1.1c0.7,0.7,1.1,1.5,1.3,2.5c0.2,1,0.1,2.1-0.2,3.3
		c-0.3,1.1-0.8,2.1-1.5,2.8c-0.7,0.7-1.5,1.2-2.5,1.5c-0.6,0.2-1.2,0.2-1.9,0.1c-0.7-0.1-1.8-0.3-3.3-0.8l-4.2-1.2l-2.5,8.5
		L-669.4,49z M-651.7,54.3l7.8-19.5l2.7,1.1l-3.2,8l10.1,4l3.2-8l2.7,1.1l-7.8,19.5l-2.7-1.1l3.7-9.2l-10.1-4l-3.7,9.2L-651.7,54.3z
		 M-632.2,62.4l9.6-18.7l13.3,6.9l-1.2,2.3l-10.8-5.6l-2.9,5.6l10,5.1l-1.1,2.2l-10-5.1l-3.2,6.3l11,5.7l-1.2,2.3L-632.2,62.4z
		 M-603.3,57l-3.8,6l4.1,2.6c1.5,0.9,2.7,1.4,3.6,1.3c0.9-0.1,1.7-0.7,2.5-1.8c0.7-1.1,0.8-2,0.5-2.8c-0.3-0.8-1.2-1.7-2.8-2.7
		L-603.3,57z M-604.4,53.4l6.9,4.4c1.1,0.7,1.9,1.3,2.4,1.7c0.5,0.4,0.8,0.9,1.1,1.4c0.5,0.9,0.7,1.8,0.6,2.8c-0.1,1-0.4,2-1.1,3
		c-0.6,1-1.3,1.6-2.2,2.1c-0.8,0.4-1.8,0.6-2.8,0.4c0.6,0.6,0.9,1.3,0.9,1.9c0,0.6-0.3,1.5-0.9,2.7l-1.7,3.1
		c-0.4,0.7-0.6,1.2-0.6,1.6c-0.1,0.4,0,0.7,0.1,1l-0.3,0.5l-2.8-1.8c0-0.5,0.4-1.4,1-2.7c0,0,0-0.1,0-0.1l1.3-2.4
		c0.7-1.2,0.9-2.2,0.7-2.8c-0.2-0.6-1.2-1.5-2.9-2.6l-3.9-2.5l-4.8,7.6l-2.4-1.5L-604.4,53.4z M-599.4,81.9l12.4-17l2.3,1.7
		l-12.4,17L-599.4,81.9z M-576.9,89.6l2.1,1.8c-1.7,1.9-3.7,2.9-5.9,3c-2.2,0.1-4.3-0.6-6.3-2.3c-2.3-1.9-3.4-4.2-3.4-6.8
		c0-2.6,1.1-5.3,3.4-8.1c2.1-2.5,4.5-4,7.1-4.3c2.6-0.4,5,0.4,7.3,2.3c1.8,1.5,2.9,3.2,3.3,5.2c0.4,1.9,0,3.8-1.2,5.6l-2.2-1.8
		c0.7-1.2,0.9-2.5,0.6-3.7c-0.3-1.2-1-2.3-2.3-3.4c-1.6-1.4-3.4-1.9-5.2-1.5c-1.9,0.4-3.7,1.6-5.4,3.7c-1.6,2-2.5,4-2.6,5.9
		c-0.1,2,0.7,3.6,2.2,4.9c1.3,1.1,2.8,1.6,4.3,1.5C-579.5,91.6-578.1,90.9-576.9,89.6L-576.9,89.6z M-562.7,102.2l4.4,4.8l4.6-8.7
		L-562.7,102.2z M-573.3,103.6l20.8-8.5l2.1,2.3l-10.1,20l-2.1-2.3l3.1-5.9l-5.6-6.1l-6.1,2.6L-573.3,103.6z M-539.6,114l-3-3.9
		l-12.7,9.7l3,3.9c1.3,1.7,2.8,2.5,4.5,2.5c1.7,0,3.7-0.8,5.8-2.4c2-1.6,3.3-3.2,3.7-4.9C-538,117.3-538.4,115.7-539.6,114
		L-539.6,114z M-559.1,119.2l16.7-12.8l4.9,6.4c1.8,2.3,2.4,4.6,2,6.9c-0.4,2.3-2,4.5-4.6,6.5c-2.7,2.1-5.3,3.1-7.8,2.9
		c-2.5-0.1-4.6-1.3-6.4-3.6L-559.1,119.2z M-530,128.6l-15.3,9.3l-1.4-2.2l18-10.9l2.1,3.5l-11,12.8c-0.3,0.4-0.6,0.6-0.7,0.8
		c-0.2,0.2-0.3,0.4-0.5,0.5c0.3-0.1,0.6-0.2,0.9-0.3c0.3-0.1,0.5-0.1,0.8-0.2l16.6-3.8l2.1,3.5l-18,10.9l-1.4-2.4l15.3-9.3
		c-0.3,0.1-0.6,0.2-0.9,0.3c-0.3,0.1-0.6,0.2-0.9,0.2l-16.6,3.7l-1.4-2.3l11-12.9c0.2-0.2,0.4-0.4,0.6-0.7
		C-530.5,129.1-530.3,128.9-530,128.6L-530,128.6z M-534.5,156.7l18.7-9.6l1.3,2.5l-18.7,9.6L-534.5,156.7z M-531,163.4l19.4-8.3
		l1.2,2.9l-10.2,15c-0.2,0.3-0.4,0.6-0.6,0.9c-0.2,0.3-0.4,0.5-0.6,0.7l15.7-6.7l1.1,2.5l-19.4,8.3l-1.2-2.9l10.3-15.3
		c0.2-0.2,0.3-0.5,0.5-0.7c0.2-0.2,0.4-0.4,0.6-0.7l-15.7,6.7L-531,163.4z M-523,183l19.9-6.9l0.9,2.7l-19.9,6.9L-523,183z
		 M-514.1,187.2l0.7,2.7c-1.5,0.4-2.5,1.3-3.1,2.4s-0.7,2.6-0.2,4.2c0.4,1.6,1.1,2.7,2,3.4c0.9,0.7,1.9,0.9,3.1,0.6
		c1.6-0.4,2.3-2.5,2.1-6.1c0-0.2,0-0.4,0-0.5c-0.1-2.9,0.1-5,0.7-6.1c0.6-1.1,1.6-1.9,3-2.3c1.8-0.5,3.4-0.2,4.9,0.8
		c1.5,1,2.5,2.6,3.1,4.8c0.6,2.2,0.5,4.2-0.3,5.8c-0.8,1.6-2.2,2.7-4.2,3.3l-0.7-2.6c1.3-0.5,2.2-1.2,2.7-2.3c0.5-1,0.5-2.3,0.1-3.7
		c-0.4-1.3-1-2.3-1.8-3c-0.8-0.6-1.7-0.8-2.7-0.6c-1.6,0.4-2.3,2.4-2.1,6c0,0.5,0,0.9,0,1.2c0,0.1,0,0.2,0,0.3
		c0.1,2.3-0.1,3.9-0.5,4.8c-0.3,0.7-0.7,1.2-1.3,1.7c-0.6,0.5-1.3,0.8-2.1,1c-2,0.5-3.7,0.3-5.3-0.8c-1.5-1.1-2.7-2.8-3.3-5.2
		c-0.7-2.5-0.6-4.5,0.3-6.3C-518,189.2-516.4,188-514.1,187.2L-514.1,187.2z M-514.8,212.9l18.2-3.4l-1.2-6.5l2.5-0.5l3,15.9
		l-2.5,0.5l-1.2-6.5l-18.2,3.4L-514.8,212.9z M-494,225.6l-7.1,0.7l0.5,4.9c0.2,1.8,0.6,3,1.2,3.6c0.6,0.7,1.6,0.9,3,0.8
		c1.2-0.1,2.1-0.6,2.5-1.3c0.4-0.7,0.6-2,0.4-3.9L-494,225.6z M-491.8,222.6l0.8,8.1c0.1,1.3,0.2,2.3,0.1,2.9
		c-0.1,0.6-0.2,1.2-0.4,1.7c-0.4,0.9-1,1.7-1.8,2.2c-0.8,0.5-1.8,0.9-3,1c-1.1,0.1-2.1,0-3-0.4c-0.9-0.4-1.6-1.1-2.1-2
		c-0.1,0.8-0.5,1.5-1,1.9c-0.5,0.4-1.4,0.7-2.7,0.9l-3.4,0.6c-0.7,0.1-1.3,0.3-1.6,0.5c-0.3,0.2-0.6,0.4-0.7,0.7l-0.6,0.1l-0.3-3.3
		c0.4-0.3,1.3-0.6,2.7-0.8c0,0,0.1,0,0.1,0l2.7-0.4c1.4-0.2,2.3-0.6,2.6-1.2c0.4-0.5,0.4-1.8,0.2-3.8l-0.5-4.6l-9,0.9l-0.3-2.8
		L-491.8,222.6z M-502.2,247.7l0.1,6.6l9.2-3.4L-502.2,247.7z M-511,241.8l21.1,7.6l0,3.2l-20.9,8.1l0-3.1l6.3-2.3l-0.1-8.3
		l-6.3-2.2L-511,241.8z M-511.3,267.4l18.4,1.3l0.5-6.6l2.6,0.2l-1.1,16.1l-2.6-0.2l0.5-6.6l-18.4-1.3L-511.3,267.4z M-512.4,279.4
		l20.9,2.7l-0.4,2.8l-20.9-2.7L-512.4,279.4z M-503.3,290.9c-2.6-0.5-4.8-0.3-6.6,0.6c-1.7,0.9-2.8,2.5-3.3,4.6
		c-0.4,2.1,0,4,1.2,5.5c1.2,1.5,3.2,2.5,5.8,3.1c2.7,0.5,4.8,0.3,6.6-0.6c1.7-0.9,2.8-2.4,3.2-4.6c0.4-2.2,0-4-1.2-5.5
		C-498.7,292.5-500.7,291.5-503.3,290.9L-503.3,290.9z M-502.8,288c3.4,0.7,5.9,2.1,7.5,4.2c1.6,2.1,2,4.7,1.4,7.8
		c-0.6,3.1-2.1,5.2-4.3,6.6c-2.3,1.3-5.1,1.7-8.5,1c-3.4-0.7-5.9-2.1-7.5-4.2c-1.6-2.1-2.1-4.7-1.4-7.7c0.6-3.1,2.1-5.3,4.3-6.6
		C-509,287.7-506.2,287.4-502.8,288L-502.8,288z M-518,309l20.1,6.3l-0.9,3l-17.5,4.8c-0.4,0.1-0.7,0.2-1.1,0.3
		c-0.3,0.1-0.6,0.1-0.9,0.1l16.3,5.1l-0.8,2.6l-20.1-6.3l0.9-3l17.8-5c0.3-0.1,0.6-0.1,0.8-0.2c0.3,0,0.6-0.1,0.9-0.1l-16.3-5.1
		L-518,309z"/>
	<path id="text4682" class="st2" d="M-919.9,361.4l11.2-6.7l1.5,2.5l-11.3,6.7c-1.7,1-2.7,2.1-3.1,3.4c-0.4,1.2-0.1,2.6,0.9,4.2
		c0.9,1.6,2,2.5,3.3,2.7c1.3,0.3,2.8-0.1,4.4-1.1l11.3-6.7l1.5,2.5l-11.2,6.7c-2.4,1.4-4.6,1.9-6.6,1.4c-2-0.5-3.7-2-5.1-4.4
		c-1.3-2.3-1.7-4.3-1.2-6.2C-923.9,364.5-922.4,362.9-919.9,361.4L-919.9,361.4z M-915.2,384.1l2.6-1.8l1.7,2.4l-2.6,1.8
		L-915.2,384.1z M-905.6,386.1l1.7,2.2c-1.2,1-1.8,2.1-1.9,3.4c-0.1,1.3,0.3,2.7,1.4,4c1,1.3,2.1,2.1,3.2,2.4
		c1.1,0.3,2.1,0.1,3.1-0.6c1.3-1,1.2-3.1-0.4-6.4c-0.1-0.2-0.2-0.3-0.2-0.5c-1.2-2.7-1.8-4.6-1.7-5.9c0.1-1.2,0.7-2.3,2-3.3
		c1.5-1.2,3.1-1.5,4.8-1.2c1.7,0.4,3.3,1.5,4.7,3.3c1.4,1.8,2.1,3.6,2,5.4c-0.1,1.8-1,3.3-2.6,4.6l-1.7-2.1c1.1-0.9,1.6-2,1.7-3.1
		c0.1-1.1-0.4-2.3-1.3-3.5c-0.9-1.1-1.8-1.8-2.8-2.1c-1-0.3-1.9-0.1-2.7,0.5c-1.3,1-1.2,3.1,0.3,6.3c0.2,0.5,0.4,0.9,0.5,1.1
		c0,0.1,0.1,0.1,0.1,0.3c1,2.1,1.4,3.7,1.4,4.6c0,0.7-0.2,1.4-0.6,2.1c-0.4,0.7-0.9,1.2-1.5,1.7c-1.6,1.2-3.3,1.7-5.2,1.3
		c-1.8-0.4-3.5-1.6-5-3.5c-1.6-2-2.3-4-2.1-5.9C-908.4,389.4-907.4,387.6-905.6,386.1L-905.6,386.1z M-897.9,406.6l2.4-2.1l1.9,2.2
		l-2.4,2.1L-897.9,406.6z M-867.9,410.9l-3.6-3.3l-10.9,11.8l3.6,3.3c1.5,1.4,3.2,2,4.9,1.7s3.5-1.4,5.3-3.4
		c1.7-1.9,2.7-3.7,2.8-5.4C-865.6,413.9-866.3,412.3-867.9,410.9L-867.9,410.9z M-886.2,419.3l14.3-15.5l5.9,5.4
		c2.2,2,3.2,4.2,3.2,6.5c0,2.3-1.2,4.7-3.4,7.2c-2.3,2.5-4.7,3.9-7.2,4.2c-2.5,0.3-4.8-0.5-6.9-2.5L-886.2,419.3z M-870.3,433.7
		l12.9-16.6l11.9,9.2l-1.6,2.1l-9.6-7.5l-3.8,5l8.9,6.9l-1.5,1.9l-8.9-6.9l-4.3,5.6l9.8,7.6l-1.6,2.1L-870.3,433.7z M-846.1,437.4
		l4,2.6c1.4,0.9,2.5,1.3,3.4,1.2c0.8-0.1,1.6-0.7,2.3-1.8c0.7-1,0.9-2,0.6-2.8c-0.3-0.8-1-1.6-2.3-2.5l-4.2-2.7L-846.1,437.4z
		 M-854.7,445.4l11.5-17.6l6.5,4.2c1.1,0.7,1.8,1.3,2.3,1.7c0.5,0.5,0.9,1,1.1,1.5c0.5,0.9,0.6,1.8,0.5,2.8c-0.1,1-0.5,2-1.2,3.1
		c-0.6,1-1.4,1.7-2.3,2.2c-0.9,0.5-1.8,0.7-2.8,0.7c-0.6,0-1.2-0.2-1.8-0.4s-1.6-0.8-2.9-1.7l-3.6-2.4l-4.8,7.4L-854.7,445.4z
		 M-831.1,449.8l5.8,3.1l1.5-9.7L-831.1,449.8z M-840.6,454.6l16.8-14.8l2.8,1.5l-3.1,22.2l-2.7-1.5l1-6.6l-7.3-3.9l-5,4.5
		L-840.6,454.6z M-811.4,448.8l-2.8,6.5l4.5,1.9c1.6,0.7,2.9,0.9,3.8,0.7c0.9-0.2,1.6-1,2.1-2.2c0.5-1.1,0.5-2.1,0.1-2.8
		c-0.4-0.7-1.5-1.5-3.2-2.2L-811.4,448.8z M-813,445.4l7.5,3.2c1.2,0.5,2.1,1,2.6,1.3c0.5,0.4,1,0.7,1.3,1.2c0.6,0.8,1,1.7,1.1,2.7
		s-0.1,2-0.6,3.1c-0.4,1-1.1,1.8-1.8,2.4c-0.8,0.5-1.7,0.8-2.7,0.9c0.7,0.5,1,1.1,1.1,1.8c0.1,0.6-0.1,1.6-0.5,2.8l-1.2,3.3
		c-0.3,0.7-0.4,1.2-0.4,1.6c0,0.4,0.1,0.7,0.3,1l-0.2,0.5l-3-1.3c-0.1-0.5,0.1-1.4,0.6-2.8c0,0,0-0.1,0-0.1l0.9-2.6
		c0.5-1.3,0.6-2.3,0.3-2.9c-0.3-0.6-1.4-1.3-3.2-2.1l-4.2-1.8l-3.6,8.3l-2.6-1.1L-813,445.4z M-798.3,474l5.9-17.5l-6.3-2.1l0.8-2.4
		l15.3,5.2l-0.8,2.4l-6.3-2.1l-5.9,17.5L-798.3,474z M-779.4,461.2l-4.2,17.4l-2.6-0.6l4.9-20.5l4,0.9l1.3,16.9
		c0,0.5,0.1,0.9,0.1,1.1s0,0.5,0,0.7c0.2-0.3,0.3-0.6,0.4-0.9c0.1-0.3,0.3-0.5,0.4-0.7l9-14.4l4,1l-4.9,20.5l-2.7-0.6l4.2-17.4
		c-0.1,0.3-0.3,0.6-0.4,0.8c-0.2,0.3-0.3,0.6-0.5,0.8l-9,14.4l-2.6-0.6l-1.4-16.9c0-0.3,0-0.6-0.1-0.9
		C-779.4,461.9-779.4,461.5-779.4,461.2L-779.4,461.2z M-761.7,483.5l2.9-20.8l14.9,2.1l-0.4,2.6l-12.1-1.7l-0.9,6.2l11.1,1.6
		l-0.3,2.4l-11.1-1.6l-1,7l12.3,1.7l-0.4,2.6L-761.7,483.5z M-742.4,486l1.1-21l3.1,0.2l9.1,15.8c0.2,0.3,0.4,0.7,0.5,1
		s0.3,0.6,0.3,0.8l0.9-17l2.7,0.1l-1.1,21l-3.1-0.2l-9.3-16c-0.1-0.2-0.3-0.5-0.4-0.8c-0.1-0.3-0.2-0.5-0.3-0.8l-0.9,17L-742.4,486z
		 M-715.9,486.6l-0.6-18.5l-6.6,0.2l-0.1-2.6l16.1-0.5l0.1,2.6l-6.6,0.2l0.6,18.5L-715.9,486.6z M-694,474.5c0.4,2.7,1.4,4.6,2.8,6
		c1.5,1.3,3.3,1.8,5.5,1.4c2.2-0.3,3.7-1.4,4.7-3.1c1-1.7,1.3-3.9,0.8-6.5c-0.4-2.7-1.4-4.7-2.8-6c-1.5-1.3-3.3-1.8-5.4-1.4
		c-2.2,0.3-3.8,1.4-4.7,3.1S-694.4,471.8-694,474.5L-694,474.5z M-696.9,475c-0.5-3.4-0.1-6.3,1.3-8.5s3.7-3.6,6.8-4.1
		c3.1-0.5,5.6,0.1,7.7,1.7s3.3,4.2,3.9,7.6c0.5,3.4,0.1,6.3-1.3,8.5c-1.4,2.2-3.7,3.6-6.8,4c-3.1,0.5-5.7-0.1-7.7-1.7
		C-695.1,480.9-696.4,478.4-696.9,475L-696.9,475z M-671.3,481.2l-5.1-20.4l13.7-3.5l0.6,2.6l-10.9,2.8l1.5,6.1l9.5-2.4l0.6,2.5
		l-9.5,2.4l2.3,9.2L-671.3,481.2z M-634.8,461.3l2.6-1c0.8,2.4,0.7,4.7-0.2,6.7c-1,2-2.6,3.5-5,4.4c-2.8,1.1-5.3,1-7.6-0.3
		s-4.1-3.6-5.4-6.9c-1.2-3.1-1.3-5.8-0.4-8.3c0.9-2.4,2.8-4.2,5.6-5.3c2.2-0.9,4.3-1,6.1-0.4c1.9,0.6,3.3,1.8,4.3,3.7l-2.6,1
		c-0.8-1.2-1.7-2-2.9-2.3c-1.2-0.3-2.6-0.2-4,0.4c-2,0.8-3.3,2.1-3.8,3.9s-0.3,4,0.6,6.5c0.9,2.4,2.2,4.1,4,5.1s3.5,1.1,5.4,0.4
		c1.6-0.6,2.7-1.6,3.4-3C-634.3,464.5-634.2,463-634.8,461.3L-634.8,461.3z M-628.5,455.6c1.2,2.4,2.7,4,4.5,4.8
		c1.8,0.8,3.7,0.7,5.6-0.3c2-1,3.1-2.4,3.6-4.3c0.4-1.9,0-4.1-1.2-6.5c-1.2-2.4-2.7-4-4.5-4.8c-1.8-0.8-3.7-0.7-5.6,0.3
		c-2,1-3.2,2.4-3.6,4.4C-630.1,451-629.7,453.2-628.5,455.6L-628.5,455.6z M-631.2,456.9c-1.6-3.1-2-5.9-1.3-8.5
		c0.7-2.5,2.4-4.5,5.2-5.9c2.8-1.4,5.4-1.6,7.8-0.7c2.4,1,4.5,3,6,6.1c1.6,3.1,2,5.9,1.3,8.5c-0.7,2.5-2.4,4.5-5.2,5.9
		c-2.8,1.4-5.4,1.6-7.9,0.7C-627.6,462.1-629.6,460-631.2,456.9L-631.2,456.9z M-612.3,438.6l9.7,15.1l-2.2,1.4l-11.4-17.7l3.4-2.2
		l13.1,10.7c0.4,0.3,0.7,0.5,0.9,0.7c0.2,0.2,0.4,0.3,0.5,0.5c-0.1-0.3-0.2-0.6-0.3-0.9c-0.1-0.3-0.2-0.5-0.2-0.8L-603,429l3.4-2.2
		l11.4,17.7l-2.3,1.5l-9.7-15.1c0.1,0.3,0.2,0.6,0.3,0.9c0.1,0.3,0.2,0.6,0.3,0.9l4.2,16.5l-2.3,1.5l-13.1-10.7
		c-0.2-0.2-0.5-0.4-0.7-0.6C-611.8,439.1-612.1,438.9-612.3,438.6L-612.3,438.6z M-593.1,425.7l11.3,14l-2,1.7l-13.2-16.4l3.2-2.6
		l14.2,9.3c0.4,0.3,0.7,0.5,0.9,0.6c0.2,0.2,0.4,0.3,0.5,0.4c-0.2-0.3-0.3-0.6-0.4-0.9c-0.1-0.3-0.2-0.5-0.3-0.8l-5.9-15.9l3.2-2.6
		l13.2,16.4l-2.2,1.7l-11.3-14c0.1,0.3,0.3,0.6,0.4,0.9c0.1,0.3,0.3,0.6,0.4,0.9l5.9,15.9l-2.1,1.7l-14.2-9.2
		c-0.2-0.1-0.5-0.3-0.7-0.5C-592.6,426.2-592.8,426-593.1,425.7L-593.1,425.7z M-564.7,425.3l-14.7-15.1l10.7-10.5l1.8,1.9l-8.7,8.5
		l4.4,4.5l8-7.9l1.7,1.8l-8,7.9l4.9,5l8.9-8.7l1.8,1.9L-564.7,425.3z M-563.1,397.3l5.4,4.7l3.2-3.7c1.2-1.3,1.7-2.5,1.8-3.4
		c0-0.9-0.4-1.8-1.4-2.7c-0.9-0.8-1.8-1.1-2.7-0.9c-0.8,0.2-1.9,1-3.1,2.4L-563.1,397.3z M-566.8,397.8l5.3-6.2c0.9-1,1.5-1.7,2-2.1
		c0.5-0.4,1-0.7,1.5-0.9c0.9-0.4,1.9-0.4,2.9-0.2c1,0.2,1.9,0.7,2.8,1.5c0.9,0.7,1.4,1.6,1.7,2.5c0.3,0.9,0.3,1.9,0,2.9
		c0.7-0.5,1.4-0.7,2-0.6c0.6,0.1,1.5,0.5,2.5,1.3l2.8,2.1c0.6,0.4,1.1,0.7,1.5,0.9s0.7,0.1,1,0l0.4,0.4l-2.2,2.5
		c-0.5-0.1-1.3-0.6-2.5-1.4c0,0-0.1,0-0.1-0.1l-2.2-1.7c-1.1-0.8-2-1.2-2.7-1.1c-0.6,0.1-1.6,0.9-3,2.5l-3,3.5l6.8,5.9l-1.8,2.1
		L-566.8,397.8z M-535.6,379.6l1.6-2.3c2,1.6,3.2,3.5,3.4,5.7c0.3,2.2-0.3,4.4-1.8,6.4c-1.7,2.4-3.9,3.7-6.5,3.9
		c-2.6,0.2-5.4-0.8-8.3-2.8c-2.7-1.9-4.3-4.2-4.8-6.7c-0.5-2.6,0.1-5.1,1.8-7.5c1.4-1.9,3-3.2,4.9-3.7c1.9-0.5,3.8-0.3,5.6,0.8
		l-1.6,2.3c-1.3-0.6-2.5-0.7-3.7-0.3c-1.2,0.4-2.3,1.2-3.2,2.5c-1.2,1.7-1.6,3.5-1.1,5.3c0.5,1.8,1.9,3.5,4.1,5.1
		c2.1,1.5,4.1,2.2,6.1,2.1s3.6-1,4.7-2.6c1-1.4,1.4-2.9,1.2-4.4C-533.4,382-534.2,380.7-535.6,379.6L-535.6,379.6z M-525.4,378.4
		l-18.1-10.7l7.6-12.9l2.2,1.3l-6.2,10.5l5.4,3.2l5.7-9.7l2.1,1.3l-5.7,9.7l6.1,3.6l6.3-10.7l2.3,1.3L-525.4,378.4z"/>
	<g>
		<path class="st2" d="M-628.7,77.6c-4.1-2.2-38.6-22.9-91.5-23.7c-114.7,0.4-165.2,84.6-165.2,84.6c25.4,12.4,51.7,49.9,52.1,50.4
			c28.4,39.8,68,101.6,119.3,102.8c16.4,0.4,27.3-9.4,39.8-21.5c45.5-44.1,51.9-125.6,110.2-137.1
			C-564.1,133.1-585.7,100.5-628.7,77.6z M-633.4,205.3H-814v-90h180.7V205.3z"/>
		<path class="st0" d="M-755.8,184.2h13.6c5.5,0,9.9-4.4,9.9-9.9v-32.8c0-5.5-4.4-9.9-9.9-9.9h-13.6c-5.5,0-9.9,4.4-9.9,9.9v32.8
			C-765.8,179.7-761.3,184.2-755.8,184.2z M-754.5,142.8c0-1.3,1-2.3,2.3-2.3h6.4c1.3,0,2.3,1,2.3,2.3v30c0,1.3-1,2.3-2.3,2.3h-6.4
			c-1.3,0-2.3-1-2.3-2.3V142.8z"/>
		<path class="st0" d="M-668.3,163h10.9v21.1h11.3v-42.7c0-5.5-4.4-9.9-9.9-9.9h-13.6c-5.5,0-9.9,4.4-9.9,9.9v42.7h11.3V163z
			 M-668.3,142.8c0-1.3,1-2.3,2.3-2.3h6.3c1.3,0,2.3,1,2.3,2.3V154h-10.9V142.8z"/>
		<path class="st2" d="M-700.4,142.8c0-1.3-1-2.3-2.3-2.3h-6.3c-1.3,0-2.3,1-2.3,2.3V154h10.9V142.8z"/>
		<path class="st2" d="M-657.3,142.8c0-1.3-1-2.3-2.3-2.3h-6.3c-1.3,0-2.3,1-2.3,2.3V154h10.9V142.8z"/>
		<path class="st0" d="M-797.6,142.8c0-1.3,1-2.3,2.3-2.3h6.4c1.3,0,2.3,1,2.3,2.3v41.3h11.3v-42.7c0-5.5-4.4-9.9-9.9-9.9h-23.6
			v52.7h11.3V142.8z"/>
		<path class="st0" d="M-711.4,163h10.9v21.1h11.3v-42.7c0-5.5-4.4-9.9-9.9-9.9h-13.6c-5.5,0-9.9,4.4-9.9,9.9v42.7h11.3V163z
			 M-711.4,142.8c0-1.3,1-2.3,2.3-2.3h6.3c1.3,0,2.3,1,2.3,2.3V154h-10.9V142.8z"/>
		<path class="st2" d="M-814,205.3h180.7v-90H-814V205.3z M-679.5,141.4c0-5.5,4.4-9.9,9.9-9.9h13.6c5.5,0,9.9,4.4,9.9,9.9v42.7
			h-11.3V163h-10.9v21.1h-11.3V141.4z M-722.6,141.4c0-5.5,4.4-9.9,9.9-9.9h13.6c5.5,0,9.9,4.4,9.9,9.9v42.7h-11.3V163h-10.9v21.1
			h-11.3V141.4z M-765.8,141.4c0-5.5,4.4-9.9,9.9-9.9h13.6c5.5,0,9.9,4.4,9.9,9.9v32.8c0,5.5-4.4,9.9-9.9,9.9h-13.6
			c-5.5,0-9.9-4.4-9.9-9.9V141.4z M-808.9,131.5h23.6c5.5,0,9.9,4.4,9.9,9.9v42.7h-11.3v-41.3c0-1.3-1-2.3-2.3-2.3h-6.4
			c-1.3,0-2.3,1-2.3,2.3v41.3h-11.3V131.5z"/>
		<path class="st2" d="M-752.2,175.1h6.4c1.3,0,2.3-1,2.3-2.3v-30c0-1.3-1-2.3-2.3-2.3h-6.4c-1.3,0-2.3,1-2.3,2.3v30
			C-754.5,174.1-753.5,175.1-752.2,175.1z"/>
	</g>
</g>
</svg>
