<?xml version="1.0" encoding="utf-8"?>
<!-- Generator: Adobe Illustrator 17.1.0, SVG Export Plug-In . SVG Version: 6.00 Build 0)  -->
<!DOCTYPE svg PUBLIC "-//W3C//DTD SVG 1.1//EN" "http://www.w3.org/Graphics/SVG/1.1/DTD/svg11.dtd">
<svg version="1.1" id="Map" xmlns="http://www.w3.org/2000/svg" xmlns:xlink="http://www.w3.org/1999/xlink" x="0px" y="0px"
	 width="660px" height="420px" viewBox="-181.1 299.5 660 420" enable-background="new -181.1 299.5 660 420" xml:space="preserve">
<g id="Asia" xmlns:inkscape="http://www.inkscape.org/namespaces/inkscape">
	<rect x="-181.1" y="299.5" fill="#181917" width="660" height="420"/>
	<path vector-effect="none" fill="none" stroke="#464745" stroke-width="0.4" stroke-linecap="square" stroke-linejoin="bevel" d="
		M218.1,292.6l-0.6,0l-0.7-0.4l-0.2-0.5l-0.1-0.1l-0.7,0.2l-1.2,0.2l-2.1,0.8l0,0.3l1.1,1.2l0.3,0.4l0.1,0.1l-1.2,0.4l-2.7,0.8
		l-1.8,0.7l-0.4,0l-0.9-0.5l-1.4-0.7l-0.4,0l-3.4-0.4l-3.2-0.3l-1.4,0l-2.5-0.2l-1.6-0.2l-1,0.2L191,295l-1.2,0.1l-0.8,0l-1.1,0.3
		l-0.8,0.8l-2.1,1l-1.2,0.5l-0.7,0.6l-0.6,0l-1-0.3l-0.9,0.7l-1.1,1l-1.9,1.4l-1,0.5l-0.7,1l0.3,0.6l1.2,1.1l0.5,0.9l0.2,0.7
		l0.4,1.7l0.1,1.6l0.5,0.8l0,1.2l0,0.7l-0.4,0.5l-0.4,0.5l-0.1,0.5l0.3,0.6l0.2,0.5l0.1,0.4l-0.3,0.4l-0.7,0.6l-0.4,0.6l-0.9,1
		l-1.2,0.6l-0.8,0.5l-1,1.1l-1.5,1.1l-0.7,1l-0.7,0.5l-0.6,0.2l0.1,0.6l0.4,0.8l0.7,1l-0.2,1.3l-0.2,0.9l-0.2,1.1l-0.6,0.9l-2.4,0.6
		l-2.3,0.1l-2.7-0.4l-1-0.3l-0.8-0.3l-2.8-1.5l-1.3,0.4l-0.5,1.5l1.8,2.8l0.7,1.5l0.6,2.4l0.6,1.3l-0.4,1.1l-2.2,0.9L155,340
		l-2.5-0.2l-1.6,0.2l-0.9,0.5l-1,2.5l-0.7,0.9l-0.2,1.1l-0.7,1.2l-1,0.7l-0.8,1.2l-0.2,2.6l-0.4,4.4l-1.3,1.2l-1.5,1.2l-1.5,0.8
		l-1.3,0.3l-1-0.3l-0.7-1l-0.4-0.8l-0.8-0.8l-0.9,0l-1,0.4l-1.4-0.4l-1.2-0.8l-0.6,0l-0.5,0.5l-1.6,1l-3.6,1.2l-1.4-0.1l-0.7,0.4
		l0.1,0.8l0.5,0.7l1,0.6l0,0.5l-1,0.3l-0.9,0.4l-1.8,0.3l-2-0.1l-2-0.7l-0.9-1l-1.2-0.3l-1.3,0.4l-1.4,0.8l-1.7,1.9l-0.4,0.3
		l-0.4,0.3l-0.9,0.3l-1.4,0.5l-0.9,1.4l-1.2,2.6l-0.1,1.5l-0.4,2.6l-0.6,1.8l-0.8,1.1l-0.1,1l0.6,1.2l-0.5,0.6L103,378l-0.8,0.3
		l-2.8,0.3l-3.9,0.4l-2.6,0.3l-3.9,0.4l-1.1,0.1l-2.3-0.3l-1.1-0.4l-1.6-0.3l-2.3-0.4l-1.7,0l-1.7,0.2l-1.3,0.4l-0.8,0.5l-0.3,0.3
		l-1.5-0.9l-5-2l-14.3-1.7l-1.3-0.5l-4.5-2.6l-5.8-3.4l-3.6-2.2l-4.6-2.8l4.4-3.2l3.8-2.8l3.8-2.7l3.7-2.7l0.6-1.1l0.6-2.3l0-3.3
		l-0.8-1.7l-3.8-1.6l-2.9-1.2l-3.1-1.3l-0.4-0.3l0.3-2.5l0.5-1l0.4-2.1l0.5-1.6l1.2-2.5l0.4-1.2l0-5.5l0-3.1l0-3.1l0.1-1l0.3-1.1
		l2.7-2.1l0.8-0.4l1.5-1l0.9-0.5l0-0.5l-1.1-0.6l-1.8-0.6l-0.9-0.7l-0.5-1l0-1.1l1.1-1.7l0.6-3.8l1.6-1.5l1.2-1l3,0.7l-0.6-1.7
		l-0.2-1l-0.2-0.3l0-0.4l0.3-0.3l0.8,0.1l0.7-0.3l1-0.4l0.5-0.2l0.3-0.8l0.6-0.4l0.8-0.5l0.7-0.7l0.2-1l0.8-1l0.4-0.6l0.5-0.5l0-1
		l0-0.8l0.2-0.9l0.5-0.1l0.7-0.1L61,285l0.6-0.8l0.4-0.6l0.6-0.4l0.2-0.5l0.1-1l1,0.2l0.2,0.6l0.3,0.8l1,1.7l0.8,0.6l1.1,0.5
		l1.5,0.3l1.2,0.1l0.5,0.2l1,1.3l1.1,1.7l0.3,0.7l0,0.9l0.3,0.4l1.2-0.6l1,0l0.8,0.4l0.9,0.4l1-0.1l0.5-0.1l1.9-0.7l1.6-0.4l1-0.3
		l0.8-1.6l0.7-0.9l0.7-0.4l0-0.8l-0.1-0.6l0-0.8l0.4-0.3l0.6,0l1.4,0.4l2.7-0.1l2.3-0.2l2.1-0.1l0.9,0.1l0.8,0.3l0.4-0.1l0.3-0.6
		l0.6-0.5l1.2-0.2l2.2-0.5l2.1-1.1l0.9-1l0.9-1.6l1.5-2.5l1.7-2.7l0.7-1.2l0.6-0.9l1.7-0.4l1.7-0.2l2.4,0.5l2.8,0.7l1-1.5l0.7-1.3
		l0.6-0.6l0.8-0.4l0.3-0.1l1.3,1.2l1.9,1.9l2.5,1.3l1.2,0.7l0.6,0.1l3.4,0.5l2.5,1.1l1.1,1.7l1.3,0.7l1.5-0.3l0.8,0.1l0.2,0.5
		l0.6,0.3l1,0.2l0.5,0.5l0,0.4l0,0.5l0.5,1.2l1.1,1.6l1.1,0.6l1.8-0.6l0.5,0.2l0.3-0.3l0.3-0.7l1.1-0.5l1.9-0.2l1.1-0.3l0.4-0.4
		l0.6,0l0.6,0.3l0.5-0.1l0.3-0.4l0.2-0.2l0.4-0.1l0.3,0l0.5,0.2l0.8,1l1.1,1.8l0.8,0.9l0.4,0l0.6-0.3l0.8-0.6l0.4-1.1l0-1.5l0.5-1.1
		l1-0.7l1.5-0.3l2.1,0.2l1.3,0.4l0.4,0.6l0.6,0.4l0.8,0.2l0.8-0.4l0.9-1l0.3-1.4l-0.3-1.7l0.3-0.5l0.3-0.2l0.9-0.4l1.3-1l1.4-1.4
		l1.4-1.7l1.5-0.9l1.6-0.2l1.7,0.9l1.9,1.9l0.5,2l-0.9,2.1l-0.3,1.2l0.4,0.3l0.7,0.1l1.1-0.2l0.7,0.1l0.3,0.4l-0.1,0.6l-0.5,0.9
		l-0.9,2.5l-0.7,2.2l-0.7,2.2l-0.6,1.9l0.2,1.6l0.2,2.4l0.5,1.6l0.7,0.6l0.7,0.3l0.8,0l1.7-0.7l2.6-1.4l2.4-0.7l3.3-0.1l1.4-1.7
		l1.7-1l3.6-1.4l1.9-0.4l1.1,0l1.3,0.5l0.3,0.2l0.2,0.1l0.6,0.3l0.1,0.6l-0.3,0.6l-0.8,0.4l-0.3,0.4l0.2,0.3l1,0.3l2.2-0.4l1.4-0.2
		l1,0l0.5-0.5l0.7-0.5l0.9,0.1l1,0.4l0.8,0.3l1.4,0l0.7,0.6l0.9,1.1l0.4,0.6L218.1,292.6"/>
	<path vector-effect="none" fill="none" stroke="#464745" stroke-width="0.4" stroke-linecap="square" stroke-linejoin="bevel" d="
		M410.8,492.6l-0.7,0.1l-0.4-0.3l0.1-0.5l-0.4-1.6l0.6-0.2l0.3,0l0.2,0.5l0.3,0.9L410.8,492.6"/>
	<path vector-effect="none" fill="none" stroke="#464745" stroke-width="0.4" stroke-linecap="square" stroke-linejoin="bevel" d="
		M409.5,488.7l-0.3,1.1l-0.3-0.7l0.1-1l0.1-0.5l0.1,0l0.3,0.5L409.5,488.7"/>
	<path vector-effect="none" fill="none" stroke="#464745" stroke-width="0.4" stroke-linecap="square" stroke-linejoin="bevel" d="
		M400.6,485.4l-1.1,1l-0.2-5.2l1.1,1.8l0.3,1L400.6,485.4"/>
	<path vector-effect="none" fill="none" stroke="#464745" stroke-width="0.4" stroke-linecap="square" stroke-linejoin="bevel" d="
		M405,482.3l-0.5,0.4l-0.5-0.3l-0.8-1.1l0.1-1.6l0.2-0.2l0.4,0.5l0.6,1l0.4,0.8L405,482.3"/>
	<path vector-effect="none" fill="none" stroke="#464745" stroke-width="0.4" stroke-linecap="square" stroke-linejoin="bevel" d="
		M396.4,487l-2,0.7l-1,0l1.6-3.5l-0.2-1.5l-0.4-1.2l-1.1-0.8l-0.1-0.7l-0.5-0.9l-0.3-1.1l1-0.5l0.9,0.5l0.2,0.3l0.3,0.9l0.5,0.9
		l1.7,1.7l0.1,1.2l-0.1,2.9L396.4,487"/>
	<path vector-effect="none" fill="none" stroke="#464745" stroke-width="0.4" stroke-linecap="square" stroke-linejoin="bevel" d="
		M393.6,476.3l0.3,0.5l-0.7-0.2l-0.5-0.3l-0.4-0.5l0.5-0.3L393.6,476.3"/>
	<path vector-effect="none" fill="none" stroke="#464745" stroke-width="0.4" stroke-linecap="square" stroke-linejoin="bevel" d="
		M368.3,436.9l0.8,0.3l0.8-0.2l0.5,0.1l0.3-0.1l0.1-0.5l-0.4-0.6l-0.3-0.4l0.3-0.5l0.3-0.1l0.4,0.1l0.6,0.4l0.5,0.8l0.2,1.3l1,1.1
		l1.2,0.8l0.9,0.3l1.1,0.2l0.9-0.4l0.4-0.9l-0.3-0.7l0.1-0.7l0.3-0.4l0.6,0l0.5,0.5l1.5,2.8l-0.1,1.3l0.6,3.5l-0.1,2.3l0.1,0.5
		l0.2,0.4l0.2,0.1l0.4,0l1.6,0.3l1.4,0.4l1.5,0.3l2.2,0.1l1.3-0.2l0.7-0.1l1.3,0l3.5-0.5l2.9-0.3l1.2,0.2l1,0l3.2-0.6l3.2-0.5
		l1.8,0.5l2,1l1.2,0.8l0.2,0.5l-0.1,0.4l-0.3,0.3l-0.7,0.1l-1.6-0.4l-0.2,0.2l0.2,1.2l0,0.2l-0.2,1.1l-0.6,2.5l-0.1,1.1l-0.2,0.3
		L408,457l-0.7,0.1l-0.5,0.2l-0.2,0.4l-0.3,0.8l-0.2,0.8l-0.3,0.3l-0.9-0.3l-0.5,0.1l-0.6,0.3l-0.6,0.5l-0.4,0.6l-0.5,0.3l-1.5,0.1
		l-0.3,0.1l-0.1,0.4l-0.1,0.5l-1.1,1.3l-0.2,2l-0.2,1.3l0.2,1l1.3,2.5l1.1,3.3l0.3,0.3l0.2,0.1l0.1-0.1l-0.1-0.7l0-0.8l0.3-0.2
		l0.4,0.1l0.5,0.7l0.6,1.3l0.5,0.5l0.8,0.1l0.8-0.4l0.6-0.7l0.2-0.7l-0.3-1.3l-0.2-1l0.3-1l1.3-1.5l0.2-0.4l-0.2-1.1l-0.1-1.1
		l0.5-0.1l0.8,0.1l0.9-0.6l0.3,0l0.5,0.5l0.7-0.2l0.8,2.3l0.8,2l0.1,1l0.3,2.1l0.4,1.7l0.4,0.4l0.5,0.9l0.5,1l0.4,0.6l0.5,1.9
		l0.4,1.4l0.9,4.4l0.3,0.8l0.1,0.5l0.5,4.1l0.3,1.7l0.6,1.4l0.1,0.5l-0.3,0.5l-0.4,0.1l-0.4-0.7l-0.8-0.4l-1.2-0.4l-0.5-0.3
		l-0.6,0.2l-0.7,1l-0.2,0.8l0.3,1.1l0.4,1.1l0.7,0.6l0.1,0.7l0.3,0.9l0.4,0.8l0.3,0.9l-0.2,0l-0.8-1.1l-0.8-1.2l-1.9-2.2l-1-4.2
		l-0.3-2.1l-1.4-2.3l-1.1-3.3l-0.4-0.8l0.2-1.1l0-0.4l-0.2,0.1l-0.5,0.6l-0.9-1.3l-0.6-1.2l-2.2-2.3l-0.7-1l-0.1-1.1l-0.7,1.2
		l-1,0.9l-1,1.3L400,480l-2.4,0.5l-1.5-1.4l-2.4-3.6l-0.4-0.8l0-2.3l-0.7-2.1l-0.1-1.1l-0.2-0.7l-0.3,0.2l-0.1,0.5l0.2,0.8l-0.1,0.7
		l-1.7,0.1l-1.6-0.1l1.5,1l1.5,0.1l0.9,0.9l0.2,0.8l0,0.9l-0.7,0.7l-0.7,0.5l0.2,0.8l1,0.9l-1,0.4l-0.2,0.7l0.1,1l0.6,0.8l0.3,0.6
		l-0.1,0.6l0.6,0.6l0.9,1.2l0.3,0.9l-0.2,1.3l-0.4,0.5l-0.6,0.6l-1.4,1.8L391,490l-0.6,0.9l-0.8,0.3l-0.4-0.3l-0.7-0.4l-0.1-0.9
		l0.1-0.7l1.2-1.9l-0.7,0.3l-0.8,0.6l-1.2,1.1l-0.5-1.1l-0.4-1l-0.1-1.3l0.9-2.1l-1.1,1.1l-0.2,1.3l0.3,1.4l0,1l-0.3,1.4l-0.6,0.9
		l-1,0.6l-0.4,0.8l-0.6,0.7l-0.1-1.2l-0.4-1.5l-1.1-3.6l-0.1,0.8l0.6,2.2l0.1,1.5l-0.4,1.2l-1,1.4l-0.9,0.3l-0.5-0.1l-0.9-0.7l-1-1
		l-0.3-1.8l-0.5-0.9l-0.1-1.2l-0.2-1.1l-1.2-2.9l-0.7-1.5l0-0.5l-0.1-0.2l-0.5-1.9l-0.5-1.2l-0.3-1.3l0.7-1.9l-0.4-0.3l-1.1-0.1
		l-1-0.2l-0.3-0.5l0.3-1.8l-0.6-0.7l-0.8-0.6l-0.2-0.3l-0.3-0.3l-0.4-0.9l0.5-2l0.7-2.3l0.1-0.9l0-1.5l0-0.6l-0.2-0.5l-1-0.6
		l-1.7-0.1l-1.2-0.4l-0.8-0.8l-0.6-0.3l-0.7,0.3l-0.9-0.2l-0.8-0.7l-0.7-0.9l0-0.5l0.1-0.6l1-2.6l0.4-0.1l1.1,0.4l0.4,0l0.6-1.1
		l0.7-2.9l1.3-0.1l1.2,0l0.8,0.1l0.8-0.2l0.8-0.3l0.4-0.4l0.2-0.5l-0.1-0.4l-1.1-0.5l-0.4-0.4l-0.4-1.1l-0.3-0.4l-2,0.1l-1.1-0.4
		l-0.6-0.4l-1.1-1.5l-1.3-1.1l-1.2-0.2l-0.5-0.3l-0.3-0.6l0.1-0.9l0.3-0.8l0.2-0.9l0.9-1.2l1-1.1l0.4-0.7l0.7-0.8l0.1-0.4l-0.2-0.4
		l-0.6-0.4l-0.4-0.1l-0.1-0.3l0.2-0.8l0.5-0.1l1.2,0.6l1.2,1l0.8,0.9l0.1,0.8l0.5,0.1L368.3,436.9"/>
	<path vector-effect="none" fill="none" stroke="#464745" stroke-width="0.4" stroke-linecap="square" stroke-linejoin="bevel" d="
		M398.7,415.6l0,0.3l-0.2,0.8l-0.1,0.8l0.2,0.6l0.8,0.7l1,0.5l1.2-0.1l1.1-0.4l0.4,0.1l0.7,1l0.5,0.9l-0.5,1l-0.2,0.9l-0.1,0.6
		l0.1,0.2l0.4,0.4l0.5,0.8l0.1,0.7l-0.2,0.5l-0.5,0.3l-0.6,0l-0.5,0.1l-0.6,0.2l-1,0.4l-0.9,0.4l-1.7,0.1l-0.8-0.7l-0.3,0l-1.5,1.1
		l-1.7,0l-3.1,0.6l-1.3,0.2l-1.3,0l-0.7-0.1l-1.3-0.6l-1.2-0.4l-1.1,0.6l-0.4,0.1l-0.8,1.2l-2,0.6l-2,0.5l-0.6-0.1l-1.1,0l-0.1-0.3
		l0-0.3l-0.3-0.2l-0.5-0.2l-0.8,0l-1-0.2l-0.6-0.2l-2,0.6l-1.3-0.5l-1.4-0.7l-0.7-0.3l-0.4-1.3l-0.3-0.4l-0.6-0.4l-0.3-0.5l0.2-0.6
		l1.3-1.1l0.1-0.2l0.5-1.9l0.8-0.7l0.8-1l0.5-1.5l1.1-1.6l1.3-1.7l0.8-1.3l0.6-0.6l1.2-0.7l1-0.5l0.7-0.9l0.9-0.5l0.9-0.3l1.4,0
		l1.3,0.2l1.4,0.3l0.2,0.3l-0.1,0.6l-0.2,0.6l0,0.3l0.2,0.2l1.4,0l1.7-0.2l1,0l2.2,0.4l0.7,0.3l0.7,0.2l0.6-0.1l0.7-0.7l0.8-0.6
		l0.5-0.1l0.4,0.1l0.7,0.5l1.4,0.4l1.3,0.3l0.4,0.3l0,1.5L398.7,415.6"/>
	<path vector-effect="none" fill="none" stroke="#464745" stroke-width="0.4" stroke-linecap="square" stroke-linejoin="bevel" d="
		M606,40.4l0.3-0.1l0.2-0.1l0.2-0.4l1.1-0.1l2.3,0.3l1.3,0l0.4-0.4l0.6,0.1l0.9,0.5l0.9,0.1l1.3-0.4l1.6,0.2l0.5-0.2l-0.1-0.6
		l0.3-0.5l0.7-0.4l1.2-0.1l1.8,0.2l1,0l0.3-0.3l0.4,0l0.5,0.3l0.3,0.5l0.1,0.3l0.6,0.3l0.4-0.2l0.7-0.1l0.9,0.5l0.6,0.1l0.5,0.2
		l0.2,0.2l0.2,0.2l0,0.3l0,0.4l0.1,0.4l0.4,0.3l0.9-0.1l0.4,0.2l0.3,0.4l0.5,0.3l0.8,0.2l0.4,0.3l0.1,0.4l0.3,0.2l0.4,0.1l0.5,0.8
		l0.3,0.4l0.7,0.3l0.7,1l0.9,1l1.9,1l0.8,0.7l0.5,1.1l0.4,0.4l0.6,0l0.5,0.3l0.3,0.6l0.4,0.3l0.4,0.3l0.3,0.7l0.5,0.5l0.4,0.2
		l0.5,0.5l0.5,0.7l1.4,0.9l2.2,1l1.5,0.9l0.8,0.8l0.4,0.8L650,60l0.2,0.5l0.4,0.1l0.3,0.3l0.2,0.5l0.7,0.3l1.9,0.2l0.3,1.8l0.5,1.1
		l0.7,1.1l0.8,0.6l0.9,0.1l0.7,0.3l0.4,0.4l1,0.1l1.7-0.2l1.8-0.9l1.8-1.6l1.2-0.8l0.6,0l0.4,0.3l0.2,0.6l0.5,0.1l0.9-0.3l0.8,0
		l0.6,0.3L670,65l0.3-0.5l0.5-0.2l0.6,0l0.2-0.3l0.1-0.4l0.4-0.2l0.4-0.2l0.7,0.6l0.7,0.2l0.6-0.3l1.4,0.3l3.2,1.4l1.7,0.2l1.3-0.4
		l1.5-0.8l1.1,0.7l0.3,1.2l0.4,0.9l0.5,0.1l1.1,0.7l1,0.2l0.4,0.4l0.6,0.3l0.5,1l0.3,1.7l0.9,1.1l1.5,0.5l1.1,0.6l0.7,0.8l0.6,0.4
		l0.4,0l0.8-0.6l1.2-1.2l1.1-0.6l1,0l1.7-1l2.4-2.1l1.6-1.2l0.8-0.3l0.2-1l-0.3-1.7l0.1-0.9l0.5-0.2l0.5-0.9l0.4-1.6l0.6-1l1.2-0.7
		l1.2-0.8l0.5-0.9l0.2-1.3l0.7-1.5l2-2.7l0.5-0.6l0.3-0.2l1-0.5l1-0.2l1.2,0.2l0.4,0.4l0.3,0.7L718,53l0,0.6l0.2,0.8l0.5,0.4
		l1.2,0.8l0.9,0.5l1,0.6l0.1,0.5l0.2,0.8l0,1.6l-0.1,0.7l-0.1,0.7l-0.7,0.6l-0.2,0.3l-0.2,0.4l0,0.5l-0.1,0.4l-0.1,0.8l0.3,0.5
		l0.7,0.6l0.6,0.6l0,1l0.3,1.2l0.1,0.4l0.3,0.9l0.1,0.3l0.9,1.6l0.2,1.4l0.2,1.7l0.6,0.6l0.6,0.6l0.1,0.4l0.2,0.3l0.3,0.7l0,0.4
		l-0.3,0.8l0,0.7l0.6,0.7l0.2,0.8l0.1,0.8l-0.1,0.6l-0.3,0.5l-0.2,0.4l0.3,0.9l0.3,0.6l0.2,0.7l0.5,0.5l0.1,0.7l-0.4,0.8l-0.2,0.4
		l-0.3,0.3l-0.3,0.9l0.7,2.2l0.6,1.2l0.8,0.9l-0.4,1.1l-0.3,0.9l-0.5,0.1l-0.5,0.1l-0.3,0.1l-0.6-0.9l-1.2-0.5l-1.6,0l-1.6,0.5
		l-1.3,0.8l-0.9,1.2l0,0.8l-0.4,0.1l-0.7,0l-0.8-0.3l-0.3,0.5l0,0.9l-0.4,0.8l0.2,0.9l0.1,0.8l-0.2,1.2l-0.1,0.5l-1.1,1.4l-0.2,0.4
		l-1.1,0.8l-0.2,0.5l-0.1,0.7l0.2,0.6l0.6,0.3l1.1,0.8l0.6,0.6l1.1,1.2l3.7,3.8l0.1,1l1.6,3.5l0.4,0.6l0.5,0.9l0.4,0.7l0.3,0
		l0.4,0.1l0.4,0.3l0.3,0.6l0.1,0.5l0.3,1l0.5,1.5l0,0.7l0,0.5l0,0.4l0.5,0.9l0.2,0.7l-0.4,0.5l-0.3,0.6l-0.7,0.2l-0.5,0.4l-0.5,0.6
		l-1,1l-0.5,0.8l-0.2,0.5l0,0.4l0.1,0.3l0.3,0.1l0.7-0.3l0.8,0.3l0.4,0.6l-0.3,0.6l-0.5-0.3l-0.5,0.1l-1.1-0.1l-0.9-0.3l-0.8-0.4
		l-0.8-1.4l-0.2-0.2l-0.9,0.1l-0.5-0.3l-0.5,0l-0.4,0.4l-0.4,0.1l-0.4-0.1l-0.4,0.2l-0.1,0.5l0.3,0.9l0.2,1.6l0.4,0.8l0.4,1.3
		l0.6,1.6l0,0.4l-0.6,0.4l-0.1,0.2l0,0.7l-0.3,0.3l-0.5-0.1l-0.7,0l-0.5,0.2l-0.3,0.5l-0.2,0.9l0,0.7l0.2,0.5l0.2,0.6l-0.2,0.8
		l-0.3,0.6l-0.5,1.4l-0.1,0.5l-0.7,0.4l-0.8,0.4l-0.9,0.8l-1.6,1l-1.1,0.4l-1.2,0.8l-0.8,0.8l0.1,0.5l0.4,0.6l0.4,0.3l0.4,0.1
		l0.8,0.6l0.8,0.6l0.9,0.2l0.6,0.4l0.3,0.5l0,0.8l0,1.1l-0.2,0.7l-0.3,0.2l-0.7,0l-0.5-0.2l-0.9,0.3l-1.8,1.3l-1.1,0.3l-0.6-0.1
		l-0.8,0.4l-1.5,0.2l-0.8,0.3l-0.5-0.1l-0.4-0.6l-0.6-0.2l-0.5-0.4l-0.8-0.4l-0.6-0.1L699,159l-0.3,0.6l-0.3,0.6l-0.4,0.1l-0.1,0.2
		l-0.1,0.4l-0.5,1l0.1,0.6l0.2,1.3l0.3,1.3l0,0.5l-0.3,0.2l-0.2,0.5l-0.2,1.4l-0.2,1.3l-0.6,1.1l-0.1,0.8l0,0.7l-0.3,1.1l-0.9,0.6
		l-0.7,0.6l-0.5,0.3l-0.2,0.5l0,0.6l0,0.3l-0.4,0.2l-0.2,0.6l-0.6,1.5l-0.8,0.6l-0.8,1.2l-0.8,0.9l-0.3,0.5l0,0.4l0,0.4l-0.4,0.3
		l-0.5,0.2l-0.6,1.4l-0.2,1l-1.3,2.5l-0.4,1.3l0.3,1.2l-0.1,0l-0.3,1.3l-1,1.6l-3,1.6l-1.3-0.2l-0.1,0.6l0,0.8l-0.7,0.6l-1.2,0.6
		l-0.5,0.7l-0.2,0.6l-1.7,0.9l-0.4,0.9l-1,0.7l-3.4,4.7l-0.5,1.6l-0.4,1.7l-0.4,0.9l-0.4,0.7l-0.5,0.4l-0.3,0.7l-0.5,0.3l-0.6,0
		l-0.6,0.3l-0.2,0.7l0.6,0.6l-0.1,0.4l-1,0.9l-1.7,1l-0.6,0.8l-0.2,0.4l-0.3,0.3l-0.8-0.8L663,215l0.6-0.6l0.6-0.4l3.1-3.3l-1-1.1
		l0.1-0.7l0.5-1.3l0.4-0.7l-0.4,0l-2.3,1.3l-1.4,0.6l-0.8,0.2l-0.1-0.9l-0.4-0.7l-0.3-0.2l0.9-1.4l0.5-0.5l0.4-0.2l-0.3-0.5
		l-0.7-0.7l0-1.2l2-2.3l0.1-1.4l0.6-1.5l0.7-3.4l-0.1-0.5l0-1.4l-0.1-0.5l-1.1-0.3l-0.8-0.8l-3.2-0.7l-0.9-1.4l-0.2,0.2l0.1,1.2
		l-0.2,0.5l-1.1,0.5l-0.7-0.2l-3.3,1.1l-0.5,1l-0.3,1.4l-0.4,1.1l-0.6,0.7l-0.3,0.9l-0.9,5.2l-0.8,0.7l-3.6,4.3l-1.9,1.9l-1.1,2.4
		l-0.2,1.3l-0.1,1.4l0.4,1.9l-0.8,2.8l-0.4,0.7l-0.5,0.4l-0.8,0.2l-0.6,0.4l-1.2,0.2l-1.1,1.2l-1.4,1.2l-1.9-1l-1.1,0l-1.4,1
		l-0.5,0.9l-0.3,3.8l0.1,2.1l0.3,0.8l1.7,2l1.5,0.9l2.8,0.7l5.2-0.8l1-0.8l1.2-0.5l1.7,0.5l1.4,1.3l0.5,1.1l0.2,0.4l0.4,0.2l0.4,0.5
		l-0.3,0.7l-0.3,0.4l0.3,1.8l0.7,1.9l0.7,0.5l1.4,0.5l1.9,0.1l1.6-0.4l2.8-1.5l0.7-1.6l-0.3-0.5l-0.2-0.7l1.9-2.7l0.9-2l-0.4-0.3
		l-0.4-0.2l0.2-0.3l0.7-0.4l2.9-2.9l3.3,0.2l2.2,0.8l1.7-0.4l1.4,0.3l1.5,0.1l1.6-0.6l1.4-0.4l0.2-0.8l0.3-0.6l0.5-0.1l0.9,0.5
		l1.8-0.1l1.4-0.6l0.9-0.6l0.7,0l-0.5,1.4l0.8,1.5l-0.5,0.8l-0.3,1.1l0.6,0.4l0.4,0.1l0.2,0.7l-0.4,0.6l-0.7,1.4l-0.6,0.2l-0.4-0.1
		l-0.4-0.3l-0.4-0.5l-0.5-0.2l-1.1,0.3l-1,0.6l-1.9,2.4l-1.9,2.1l-2.2,1.9l-0.6,0.9l-0.5,0.4l-1.2,0l-0.6,0.3l0,0.4l1.1,0.5l0.5,0.5
		l0.1,0.5l-0.4,0.4l-0.8-0.1l-0.4,0.7l0.1,1l0.8,2l-0.2,0.6l-1,0.7l-1,1.1l-0.5-0.1l-0.3-0.3l-0.2-1l-0.3-0.4l-0.5,0.2l-0.7,0.6
		l-0.4,0.8l-0.1,0.4l1.3,0.9l0.8-0.2l0.3,0.2l-0.4,0.8l-1.2,1.5l0,0.8l-0.2,0.9l-0.4,0.8l-0.2,0.7l-0.4,0.5l-0.7,0.7l-0.5,1.8
		l-0.3,1.6l-0.7,1l0.1,2.5l-0.9,1.7l0.2,2.1l0.8,1l1.5-0.5l0.9,0.1l2.1,1l2.2,0.3l2.1-0.1l2.8,0.6l0.9,0.4l1,1l2.3,3.2l1.4,1.5
		l0.4,0.9l1.7,1.3l2.3,2.5l2.3,2.1l1,1.9l-0.1,1.1l0.5,1.2l1.8,0.6l3.5,0.1l0.6,0.2l0.8,0.4l0.8,1.9l0.7,0.4l0.5,0.2l2.2,0.1l1,0.4
		l1.2,0.8l0.6,0.9l0.6,1.3l-1,0.4l-0.9,0.2l-4-0.5l-0.9,0.3l-1.1,0.7l-1.8,0.3l-2.5-1.2l-1.5-0.1l-1.5,0.2l-2.8,2.9l-0.9,0.2
		l-0.2,0.3l-0.3,0.4l1.7-0.2l1.4-1.1l1.2-1.3l2.3-0.4l0.6,0.6l0.8,1.1l1.8,0.3l1.3-0.1l1.9,0.5l2.1,1.1l3.9,0.8l2,1.4l0.9,1l1.1,1.5
		l-0.9,1l-0.9,0.4l-1.4,0.8l-0.9,1l-0.7,1.5l-2.6,2.8l-0.2,1.3l-0.1,1.1l-0.6,0.7l-2.1,0.3l-1.8,0.7l-1.6,2l-0.3,0.7l0.3-0.2
		l0.3-0.3l1-0.2l1.2-1.2l2.1,1.5l2.7-1.3l2-2.6l1-0.4l0.9-0.1l1.2,0.3l3.6,2l1.5-0.2l1.6,0.2l0.8-0.2l0.8,0l-1.4,1.8l-1.5,3.2
		l-0.8,0.9l-0.5,0.9l1.8-1l0.9-1.6l0.6-0.5l0.6,0.1l0.8,1.3l1,4.4l-0.6,0.3l-1.1-0.9l-0.9-0.1l-0.6,0.5l-1.3,0.5l-0.3,0.7l-0.1,0.9
		l0.8-0.1l2,0.7l0.4,0.6l-0.2,0.6l-1.1,0.2l1.6,0.5l0,1.1l-0.3,0.5l-0.7,0.5l-0.1,1l1.2,1.2l1.3,1.6l0.4,0.9l-1.2,0l-1.2,1.7
		l-0.8,0.4l-1.1-1.3l-0.7,0.5l-0.3,0.6l-0.1,1.8l-0.3,1.7l-0.6,0.6l-0.9,0.2l-0.7,0.3l0.3,0.3l0.9,0.2l0.2,0.5l-0.9,2.3l0,0.8
		l0.2,0.6l-0.6,1l0.8,1l0.1,0.9l-0.3,1.4l-0.5,1l-0.5,1.5l-0.9,1.1l-0.6,3l0,1.4l0.3,1.3l-0.3,0.6l-0.6,0.8l-1,0l-0.3-0.9l-0.4,0.1
		l-0.4-0.5l-0.3-0.7l-0.1-0.6l-0.3,0.3l0,0.8l-0.4,0.7l-0.7,0l-0.8-0.2l0.2,0.6l0.6,0.5l0.4,0.6l1-0.2l0.9,0.5l0.9,1l0.2,0.4
		l0.6,0.4l0.2,0.4l-0.8,0.7l-0.9,1.1l-0.9,1.7l-0.8,1.2l-1,0.3l-0.6,0.1l-1-0.2l-1.1,0.1l1.9,1.3l0.8,0.1l0.9-0.4l0.7-0.9l1.3-0.4
		l0.7,0.9l0,1.2l-0.2,1.7l0.3,1.3l1.5,1.5l0.2,0.5l-0.2,0.4l-1.2-0.1l-1-0.3l-0.8,0.4l-1,0l-0.8,0.5l-0.2,0.5l0.5,0.6l1,0.3l0.7,0.7
		l-0.4,0.5l-2.3,0.5l-0.5,0.3L700,385l0.9,1.3l-0.2,1.1l-0.9,0.5l-1,1.1l-0.7,0.4l0.1,0.3l0.7,0.1l0.4,0.3l-0.2,1.7l-0.9,0.8
		l-1.7,0.3l-1.2,0.7l-1.3-0.3l-1.2,0.4l-0.5,1l0.2,1l-0.7,0.3l-0.4,0.1l-0.6,0.2l0.2,0.5l0.5,0.3l1.6-0.3l0.5,0.5l0.4,0.9l-1.1,2.2
		l-0.4,1.3l-1.1,0.3l-0.5,1.1l-0.1,1.4l-0.6-0.1l-1.2,0.6l-0.2,0.7l0.4,0.2l0.2,0.4l-0.1,1.5l-0.4,0.5l-0.4-0.5l-0.4-0.8l-0.5,0.1
		l-0.5,1l-0.7,0.8l-0.6,0.5l-0.7-0.4l-1.4,0.1l0.1,2.5l-0.9,1.2l-0.4,0.4l-0.9,0.4l0.7,0.1l0.4,0.5l-0.2,0.7l-0.9,0.4l-0.4,0.6
		l0.4,2.1l-0.3,0.9l-1.4,0.5l-1.2-0.2l-0.2,0.5l-0.1,0.4l-0.4,0.5l-1,0.4l-2.1,1.6l-1.1,0l-1.4,0l-0.8,0.6l-0.1,0.8l-0.2,0.7
		l-1.3,0.4l-1.2-0.4l-1.2-0.2l-1,0.7l-0.6,1.1l-1,0.6l0,0.6l-0.4,0.4l-1.2,0.2l-0.8-1.2l-0.7,0l-0.5,0.9l-0.1,0.6l-0.2,0.5l0.4,1.1
		l-0.6,0.2l-1-0.4L659,430l-0.7,0.8l-0.5,0l-0.5,0l-0.7,0.2l-0.2,0.2l-0.5,0.2l-0.3,0.4l0,0l-1,0l-1.4-0.6l-1.2-1.3l-1.2-0.5
		l-0.6-0.6l-0.5-1.2l-0.4-0.6l-0.1-0.7l0.1-0.7l-1,0.6l-0.7,0.8l0.4,0.7l0,0.7l-1.1,0.7l0.1,0.3l0.2,0.3l1.2,0.6l0.4,0.7l0.5,0.3
		l1.1,1l0.6,2.3l0.6,0.5l0,0.7l-0.1,0.9l0,0l-0.3-0.2l-0.3,0.2l-0.1,0.3l0,0.3l-0.1,0l-0.6,0.4l-0.5,0.3l-0.4,0.3l-0.5,0.9l-1.3,0.5
		l-1.1-1.4l-0.6,1.3l0.3,2.2l-0.2,0.5l-0.5,0.5l-1.3-0.5l-0.8,0.7l-0.6,0.7l-0.2,0.5l-0.4,0.7l-1.1-0.2l-1-0.5l0.1-0.6l-0.2-0.3
		l-0.4-0.2l-0.4,0.1l0.4,0.7l0.5,1.3l-0.3,0.5l-0.5,0.5l-1.3,0.1l-1-0.3l-1.1-0.2l-0.9,0.2l0,0.9l-0.4,0.9l-0.5,0.2l-0.6,0l-0.5,0.9
		l-0.2,0.6l-0.7,0.8l-2.3,0.9L629,452l-1.1,0.2l-0.8,0.4l-0.5,0.1l-0.5-0.2l-0.5,0.1l0,1l-1.2,0.7l-1.2,0.4l-1,1.6l-0.8,1l-0.7,0.3
		l-0.6-0.1l-0.5-1.1l-0.3-0.1l0.1,1.1l0,1l-0.4,0.6l-1.3,1.5l-0.2,1.2l0.5,1l2.1-0.3l0.4,0.5l-0.1,0.5l-0.4,0.5l0,0.6l2.7,1.3
		l0.2,0.7l-0.2,0.5l-0.2,1l-1,1l-2.4,1l-2.2,0.1l-0.8-0.7l-0.1-0.6l0.6,0l0.6-0.2l-0.3-0.5l-0.3-0.3l-1.1-0.2l-1.1-1.1l-0.1-1.1
		l-0.6-0.7l-0.6-0.6l-0.6-0.3l-0.4-0.5l0.1-1.7l-0.5-0.9l0.6-1.4l-0.1-1.3l1.5-0.8l-0.2-1.3l-1.1,0.2l-1-0.7l-0.1,0.4l-0.6,0.2
		l-1.5-1.5l-0.4-0.1l-0.5,0.1l0.7,1.8l-1,1l-0.9,0.5l-1.4,0.5l-0.7,0.4l-0.8,0l0.1-0.6l0.2-0.8l-0.5-0.5l-0.9-0.2l-1.2,0.3l-0.9,0.1
		l-0.8,0.2L600,457l-1-0.7l-0.8-0.4l-0.4-0.5l0.1-0.7l-0.3-0.3l-1.3,0.3l0.2,0.9l0.4,1l0.6,0.7l-0.2,0.5l-0.6,0.5l-0.9-0.7l-0.4-0.1
		l-0.3,0.1l-0.1,0.9l-0.4,0.9l-1.1,0.2l-0.8,0.7l-1,0.5l-0.9-0.5l-1.4-0.7l-0.5,0l-1.2,0.8l-1.8,0.6l-0.5-0.4l-0.8,0.6l-1.2-1
		l-1.1,0.2l-1.5-0.6l-0.6-0.4l-0.3-0.7l-0.5-0.3l-0.5,0.2l-0.6-0.2l-1-0.2l-0.8-0.1l-0.3,0.2l-0.4,0.2l-0.2-0.5l-0.3-1.4l-0.3-1.2
		l-0.3-0.5l-0.6-0.3l-0.5-0.1l-0.3-0.6l-0.1-1.3l0.2-0.9l0.5-0.3l0.6-0.8l0.2-1l0.3-0.9l-2-0.8l-1-0.2l-1,0.4l-1.2,0.6l-0.6,0.2
		l-0.4-0.1l-0.9-0.9l-0.4-0.1l-0.9,0.1l-0.7,0.2l-0.3,0.5l-0.6,0.3l-0.7,0.2l-0.8-0.4l-1.2-0.5l-1.7-0.2l-0.3-0.5l-0.6-0.6l-0.7-0.5
		l-1.2-0.7l-0.9-0.3l-0.3,0.4l-0.4,0.6l-1.9,1.5l-0.9,0.6l-0.4,0.4l-0.3,0.5l0.1,1.1l0,1.2l-0.5,0.7l-0.5,0.6l-0.6,0.2l-0.6,0.1
		l-0.5,0.3l-1.5,1.5l-0.8,0.1l-0.8-0.5l-0.4-0.4l-0.7,0.3l-0.9,0.8l-0.2,1.1l0,1l-0.1,0.5l-0.3,0.2l-0.3,0.1l-3.6-2.1l-0.2-0.1
		l-0.4,0.7l-0.2,1.6l-0.3,0.4l-0.3-0.1l-1.6-1.6l-0.4-0.1l-0.3,0.1l-0.3,0.7l-0.6,1.1l-0.5,0.7l0.1,0.6l-0.6,0.7l-0.7,0.7l-0.2,0.1
		l-0.6-0.1l-0.8-0.6l-0.6-0.6l-1.4-0.5l-1.5-0.4l-1-0.3l-0.5,0l-0.4,0.3l-0.2,0.3l-0.2,0.8l-0.6,1.4l-0.5,1.1l-0.6,0.7l-0.5,0.5
		l-0.5-0.3l-0.8-0.2l-0.9,0.2l-1,0.8l-1.1-1l-0.2,0l-0.3,0.2l-0.3,0.4l-0.2,0.7l-0.1,1l-0.5,0.7l-0.4,0.4l0.2,0.5l0.4,0.5l0.1,0.5
		l0.3,0.8l0.4,0.7l1.3,1.1l0.5,0.6l0.2,0.6l0.4,2.1l0.1,0.9l0.1,1.7l0.2,1l0.5,0.3l0.5,0.4l0,0.3l-0.2,0.1l-0.5,0.7l-0.2,0.1
		l-0.5-0.2l-0.6-0.1l-0.5-0.1l-0.5-0.3l-1.1,0.3l-1.7,0.9l-0.4-0.1l-0.3-0.3l-0.3-0.6l-0.1-0.8l-0.3-0.5l-0.4-0.2l0-1.4l-0.7-0.4
		l0.1-0.2l-0.5-1.4l0-0.4l-0.1-0.1l-0.5,0l-0.6,0.4l-1.9,1.4l-1.4,2.1l-0.7,0.5l-0.8,0.3l-1-0.1l-1.1,0l-1.4,0.7l-0.8-0.1l-0.4-0.3
		l-0.4-0.5l0.1-0.7l-0.2-0.5l-0.7-0.2l-0.7-0.1l-0.5-0.6l-0.3-0.7l0-1l-0.1-1.1l-0.4-0.4l-1.1-0.1l-2.7,0l-2.3,0.1l-0.9,0.3l-0.8,0
		l-0.5-0.1l-0.3-0.3l-0.1-0.5l0.2-1.2l0.2-1.1l0.8-1.7l-0.1-1.1l-0.3-1.2l0.2-1.7l0.7-1.4l0.4-0.5l-0.2-0.5l-0.5-0.4l-0.6-0.2
		l-0.9-0.2l-1.4,0.1l-1.9,0l-2.3-0.4l0-1.4l-0.2-0.9l-0.4-0.7l-0.5-0.4l-0.3-0.4l0.2-1.3l-0.7-1.3l-0.7-0.5l-0.7-0.6l-0.2-0.8
		l0.2-0.8l1.2-1.8l0-0.4l-0.4,0.1l-0.4,0.1l-1.9,0.9l-0.3-0.3l-0.8-0.1l-1.5,0.2l-1.7,0.4l-2.1,0.9l-1.8,1.3l-0.8,0.8l-0.7,0.5
		l-0.6,0.2l-0.8-0.2l-0.1-0.9l1.1-1.9l0-1.2l-0.6-1l-0.2-0.8l-0.6-0.4l-0.7-0.1l-0.4-0.5l-0.3-1.7l0.3-1.8l0.9-0.7l0.5-0.4l0.1-0.4
		l-0.5-1.2l-0.1-0.8l0.3-1.6l0.4-1.2l1.1,0l0.4-0.4l0.5-0.5l0.5-0.8l0.3-0.9l0.2-2l0.3-0.3l1.4,0.1l0.4-0.3l0.6-1.2l0.5-1.5l1-0.6
		l0.7-0.2l0.3-0.5l-0.1-0.7l-0.9-0.9l-0.4-0.8l0-0.5l0.9-0.5l0.1-0.6l-0.4-1.3l0.2-1.7l-0.1-1.9l-0.1-1.4l-0.2-1.1l-0.3-1.1l-0.5-2
		l-0.7-1.7l0-0.7l-0.4-2.1l-0.6-1.8l-0.6-0.2l-1.1-0.4l-0.6,0l-0.4,0.3l-0.1,0.7l-0.4,0.7l-0.6-0.1l-0.4-0.6l-0.5-0.7l-1.8-3.5
		l-0.3-1l-0.4-1l-0.5-0.5l-0.5-0.2l-1.1-1.1l-0.6-0.4l-0.3,0l-0.5,0.2l-0.5,0.1l-0.5-0.6l-0.5-0.7l-0.4-0.3l-0.7-0.1l-0.6,0.2
		l-0.3,0.7l-0.2,0.4l-0.4,0.9l-0.6,1.3l-0.3,0.5l-0.4-0.2l-1.7-1l-0.8-0.2l-1,0.5l-1.6-0.1l-0.6,0l-1.5-0.8l-0.6,0l-1.8,0.9
		l-0.4,0.5l-0.2,0l-0.5-0.2l-0.5-0.3l-0.1-0.2l0.4-0.6l0-0.3l-0.1-0.3l0.6-1.1l1.7-2.2l-0.4-0.8l-1-1.5l-0.2-0.8l-0.4-0.3l-0.9,0.4
		l-1.8,1.7l-0.3-0.1l0-0.5l-0.4-1.4l0.6-0.5l0.9-0.7l0.7-0.7l0.1-0.5l-0.2-0.1l-1.1,0.3l-0.5-0.3l-0.9-1.2l-0.6-0.5l-0.5-0.2
		l-1.5,0.9l-1.8,1.2l-1.9,1.6l0.1,0.7l-0.2,0.2l-0.3,0.5l-0.3,0.6l-0.3,0.2l-0.4,0.1l-0.8-0.1l-1.5-0.5l-1.6-0.4l-0.3,0.1l-2.2-0.1
		l-0.1-0.3l-0.4-0.6l-0.7-0.5l-0.6-0.1l-1.5,1.4l-1.8,1.1l-1,1.2l-0.8,1.1l-1,0.3l0,0.6l-0.4,0.6l-0.7,0.8l-1.4,1.1l-1,0.6l-3.3,0.8
		l-1.1,0.4l-0.4,0.5l-0.4,1.3l-0.3,1.2l-0.8,1l-1.5,1.4l-1.9,1.2l-0.5,0.7l-0.1,0.4l0.3,0.1l0.3,0.3l0.1,0.5l-0.2,0.5l-1.2,1
		l-0.7,0.5l-0.7,0.3l-0.8,0.1l-0.8,0l-0.2-0.1l-0.3,0.2l-0.7,0.3l-0.6,0.1l-1.3,1.1l-0.8,0.1l-1-0.1l-1.3,0l-0.9,0.1l-0.1-0.5l0-1.5
		l-0.4-0.3l-1.3-0.3l-1.4-0.4l-0.7-0.5l-0.4-0.1l-0.5,0.1l-0.8,0.6l-0.7,0.7l-0.6,0.1l-0.7-0.2l-0.7-0.3l-2.2-0.4l-1,0l-1.7,0.2
		l-1.4,0l-0.2-0.2l0-0.3l0.2-0.6l0.1-0.6l-0.2-0.3l-1.4-0.3l-1.3-0.2l-1.4,0l-0.9,0.3l-0.9,0.5l-0.7,0.9l-1,0.5l-1.2,0.7l-0.6,0.6
		l-0.8,1.3l-1.3,1.7l-1.1,1.6l-0.5,1.5l-0.8,1l-0.8,0.7l-0.5,1.9l-0.7-0.5l-0.8-0.8l-0.3-1.1l0.7-3.1l0.1-1.3l-0.3-0.5l-0.4-1.2
		l-0.6-0.4l-1.5-0.5l-0.5,0l-0.5,0.5l-0.5,0.3l-0.7,0.3l-1.6,0.7l-1.5,0.4l-0.3,0.2l-0.1,0.4l0.1,0.4l-1-0.1l-1,0l-0.8,0.1l-1.9,0.9
		l-0.7,0.1l-0.8,0l-1,0l-1.9,0.1l-1.7-0.1l-1.4-1.1l-1-0.4l-1-0.3l-1-0.2l-0.4-0.6l-0.3-0.3l-0.9-0.1l-0.7,0.3l-0.3,1.6l-0.3,0.3
		l-0.9,0.2l-0.9-0.3l-1.3-0.7l-0.5-0.9l-0.4-0.3l-0.6,0.4l0,1.1l-0.1,0.8l-0.8,0.3l-0.5-0.2l-0.4-0.8l-1-1.8l-1-1l-0.9-0.7l-3,0.1
		l-2.3-0.1l-1-0.3l-0.4-0.7l0.3-1.4l0.4-1.1l0-0.3l-0.4-0.1l-0.6-0.1l-2.4,0.8l-0.7-0.1l-0.4-0.2l-0.5-0.2l-0.4-0.3l-0.3-0.5
		l-2.1-1.1l-0.6-0.6l-1.1-0.8l-1-0.5l-0.6-1.6l-0.6-1.5l-0.3-0.8l-0.9-0.4l-1-0.3l-1.6,0.7l-1.3,0.5l-1,0.1l-1.5-1.6l-1.2-1.7
		l-1.4-1.5l-0.9-0.7l-1.6-0.1l-1.8-0.8l-2.4-1.9l-1.7-1.4l-3-1.6l-0.7-0.7l-0.3-0.6l-0.4-1.1l-0.6-1.1l-2.1-0.5l-2.4-0.3l-2.5,0.6
		l-1.9,3.2l-0.9,0.7l-0.8,0l-0.6-0.8l-0.5-0.9l-0.3-0.9l-1.3-0.7l-1.4-0.9l-0.7-0.7l-0.8-0.5l-0.8-0.2l-1.5-0.6l-1.7-0.7l-0.8-0.1
		l0-0.5l0.3-1l-0.1-1l-0.5-0.4l-0.8,0.1l-1.7-1.4l-0.1-0.1l-0.5-0.4l-0.9-0.6l-1.5,0l-1.1,0.2l-0.8-0.6l-1.2-1l-0.2-0.2l-0.3-0.4
		l-1.1-1.8l-1.3-2.2l-0.7-0.3l-0.4,0.1l-0.5,1.1l-0.3-0.1l-0.5,0.1l-0.6,0.4l-0.6,0.1l-0.4-0.1l-0.2-0.3l0.2-1.5l-0.3-0.5l0.4-1
		l0.6-0.9l-0.5-0.7l-0.6-1l0-0.9l0.4-1.1l0.2-0.9l-0.1-0.3l-0.5-0.5l-1.9-2.6l-0.1-0.3l-0.3-0.9l-0.1-1.3l-0.2-0.9l-0.3-0.7l0-0.3
		l0.2-0.2l1.3-0.1l1.2,0l0.8-0.2l0.4,0.5l0.1,0.8l0.2,0.4l0.7,0.8l0.9,0.8l0.9,0l0.8-0.3l0.7-1.1l0.5-0.3l0.6,0l0-0.1l0-0.7l0.3-1.8
		l0-0.7l-0.2-0.7l0.1-0.7l0-1.1l-0.6-0.8l-0.4-0.3l0-0.4l0.2-0.7l0.2-0.8l-0.2-0.6l0-0.1l-0.5-0.3l-0.6-0.6l-0.7-0.8l-0.3-0.5
		l-0.5-0.6l-0.6-0.9l0-2l0.1-2.1l-0.2-1l-0.3-1.7l0.1-0.5l0.3-0.4l2-1.2l0.5-0.5l0.1-0.4l0-0.6l-0.3-0.7l-0.7-0.6l-1-0.9l-0.9-0.9
		l-1.6-0.6l-2-0.8l-0.4-0.7l-0.4-1.6l-0.7-2.4l-0.7-2.5l-0.6-1.6l0-0.7l0.6-1.8l0-0.4l-0.3-0.2l-0.7,0.2l-0.6,0.2l-0.5-0.2l-0.4-0.3
		l-0.1-0.1l0,0l-0.8,0.1l-1.6,0l-0.6-0.1l-0.8-0.1l-1.6-0.6l-2.1-0.8l-2.2-1l-1.1-0.8l-0.4-0.3l-1-0.8l-0.7-0.6l0-1.5l-0.5,0.1
		l-1.3,0.4l-1.5,0.2l-0.8-0.1l-0.3-0.3l-0.3-1.6l-0.3-0.5l-0.6-0.2l-0.7-0.4l-0.3-0.5l0-0.5l0.4-0.6l0.4-0.4l0.4-2.8l-0.1-1
		l-0.1-0.9l-0.4-1.1l-0.4-0.7l-0.7-0.7l-1-0.8l-1-0.3l-1.3,0.3l-0.4-0.2l-0.3-2l-0.3-0.4l-2-1.1l-0.9-0.3l-1.1,0.1l-0.7,0.1
		l-0.5-0.4l-0.7-0.6l-0.7-0.4l-1-0.1l-0.7,0.1l-0.1-0.1l-0.3-0.4l-1.1-1.2l0-0.3l2.1-0.8l1.2-0.2l0.7-0.2l0.1,0.1l0.2,0.5l0.7,0.4
		l0.6,0l0.3-0.2l1-0.5l0.8-0.6l0.5-0.5l-0.1-0.9l-1-1.2l-0.7-0.7l-0.2-0.4l0.3-1.1l0.4-1.1l-0.1-0.5l-0.2-0.4l0.1-1.2l-0.3-1.6
		l-0.4-0.9l0-1.2l0.1-1.1l0.9-1.6l-0.1-0.8l-0.6-0.8l-2.2-1.5l-2.3-1.2l-0.9-0.1l-0.6-0.1l-0.8,0.6l-0.6,0.8l-0.6,0l-1-0.5l-0.6-0.7
		l-0.3-1.3l-0.1-1.6l-0.1-0.5l0.2-0.4l0.3-0.3l0.7-0.2l0.2-0.3l0-0.5l-0.4-0.6l-0.4-0.9l-0.6-1.8l0.3-0.9l0.3-1.3l0.1-0.7l0.9,0
		l1.2-0.2l0.6-0.5l0.4-0.5l0.1-0.4l-0.1-1.5l-0.3-0.7l0-0.5l0.3-0.3l0.4-0.6l0.8-1.2l0.7-0.8l0.3-0.2l0.7-0.1l1.6,0l1.8-0.3l2.3-1.4
		l0.7-0.4l0.9-0.1l0.6,0.1l0.1-0.2l-0.2-1.2l0.2-0.4l0.3-0.3l0.3-0.1l1.3,0.8l1.1,0.1l1.3-0.1l3.1-1.5l0.3,0.1l0.2,0.3l0.2,1.2
		l0,2.5l0.2,0.3l1.9,0.3l1.4-0.7l0.6-0.1l0.9,0.3l0.5-0.3l0.6-0.2l0.5,1.1l0.8-0.4l0.9-0.7l0.5-0.7l0.7-0.8l0.6-1l0.3-1l0.3-0.5
		l0.5-0.4l1.4-2l0.9-0.4l0.8-0.1l1.9,0.6l1,0.1l2.9,0.6l1.4-0.2l1-0.3l1.4,0.2l1.7-0.1l2.5-2.4l0.1-0.6l0.2-0.6l0.8-0.5l1-0.4
		l2.1-1.1l4.1-1.6l1.5-0.7l0.6,0.1l1.5-0.4l2.6-0.7l0.8-1.2l0.7-0.2l3,0.1l0.2-0.1l0.1-0.2l-0.1-0.9l-0.1-0.8l0.2-0.2l0.3-0.3l0-0.5
		l-0.3-1.6l-0.1-1.5l0-1.4l0.1-0.5l0.4-0.8l0.5-0.8l1.7-0.6l1.1-0.1l0.1-0.5L282,225l-0.6-0.5l-0.1-0.3l0.1-0.3l0.2-0.3l1.1-0.4
		l1.1-0.4l1.2,0.4l0.3-0.2l0.1-0.5l-0.2-0.6l-0.2-0.9l-0.5-0.5l0-0.6l0.4-0.9l-0.3-1.8l-0.4-1.6l-0.6-2.7l-0.5-0.8l-0.2-1.3
		l-0.3-0.7l0.1-0.9l0.1-0.7l0-1.3l0-1.4l0.3-1.4l0.4-0.9l0-0.4l0.2-0.3l0.5,0l0.3-0.4l-0.2-0.4l-0.8-0.4l-0.9-0.6l-1.2-0.1l-1.2,0
		l-0.6-0.4l-0.5-0.5l0-0.3l0.8-0.7l1.1-0.7l1.6-0.2l1.7-0.3l0.9-0.3l1.2-0.2l1.3,0l0.7,0.1l1.7-0.3l2.7-0.7l2.5-0.6l0.8-0.4l0.6,0.5
		l0.2,1.1l0.6,0.6l0.7,0.3l0.4,0l1.2-0.3l1.3-0.2l0.5,0.2l0.6,0.6l0.7,0.5l0.4,0l0.4-0.4l0.4-0.7l0.3-1l0.1-1l-0.1-0.6l-0.2-0.3
		l-1.1-0.5l-1.1-0.7l-0.1-0.6l0.1-0.4l0.4-0.9l0.9-1.7l0.9-2.4l0.5-1.9l1.4-2.8l1.2-2.9l1.9-4.2l0.3-0.8l0.2-1.3l0.1-0.6l0.5-0.3
		l0.9,0.4l2.1,1.1l1.6,0.9l0.7,0.3l1,0.4l1.6,0.5l0.9,0l0.8-0.2l1.1,0l1.6,0.4l0.5,0l0.6,0.1l0.4,0.4l0.2,1l0.3,0.4l0.6-0.1l1.4-0.8
		l0.9-0.6l1.1-0.9l1.1-0.1l1.1-0.2l0.4-0.4l0.5-1.1l0.7-0.8l0.2-1l-0.2-0.8l-0.4-1.2l0.1-0.8l-0.1-2.4l-0.2-2.1l0.4-1.7l0.6-1.9
		l0.2-0.6l0.4-0.8l0.5-0.9l0.7-0.3l1.9-0.1l1.8-0.3l0.9-0.4l0.9-0.2l0.6-0.3l1-1.3l0.5-0.8l0.4-2l-0.2-1l0.2-0.9l0.5-0.5l0.7-0.5
		l0.4-0.1l0.9-0.1l1.5,0.1l0.8,0.3l0.8,0.1l0.5-0.2l0.3-0.4l0.5-0.1l0.8-0.2l0.8-0.2l0.4,0.1l0.1,0.6l-0.1,0.4l0.1,0.6l0.3,0.4
		l-0.1,0.4l-0.4,0.2l-0.4,0.3l-0.1,0.5l0.5,0.6l0.2,0.6l0.9,0.3l0.7,0.4l0.3,0.4l-0.1,0.4l-0.3,0.4l-0.3,0.5l0,0.3l0.1,0.3l0.7,0.2
		l0.8,0.4l1.3,0.5l0.9,0.9l0.9,0.2l0.4,0.8l0.1,1.2l0.9,0.6l1.3,0.9l0.7,0.2l0.4,0.5l0.6,0.6l0.6,0.2l0.7,0.1l1.1-0.5l1.2-0.1
		l0.7,0.3l0.7,1.2l0.5,0.4l0.3,0.3l0.4,0.3l0.4,0l0.7-0.3l0.4-0.5l0.6,0.1l0.2,0.3l0.1,0.6l0.3,0.7l0.7,0.5l1,0.3l0.1,0.3l0.2,0.7
		l0.3,0.5l0.4,0.6l0.4,1.2l0.1,1l0.2,0.5l0.5,0.9l0.8,1.4l0.6,1.2l0.7,0.2l0.6,0.4l0.4,0.9l0.7,1.6l0.1,1.1l0.1,0.8l0.2,0.4l0.1,0.5
		l-0.5,1.8l-0.4,0.8l0,0.7l0.3,1.1l0.4,0.9l0.1,0.9l-0.3,0.6l-0.6,0.8l-0.3,0.5l-0.5,0.4l-0.7,1.5l-0.3,1.7l-0.1,0.9l0.3,0.6
		l0.5,0.7l0.1,0.6l0.8,1.3l0.2,0.8l0.3,0l0.3-0.3l0.8,0l0.8,0.3l0.8,0.6l0.8,0.3l1.1-0.1l0.6,0.3l0.7,0.2l1.4,0l1,0l1.6-0.1l1.3,0.4
		l2.2,0.2l1.4-0.1l1.8-0.4l1.1,0.1l3.3,0.3l2,0.4l1.3,0.5l0.9,0.8l1.1,1.3l0.8,0.6l2.1,0.2l1.6,1.4l1.2,0.5l2,1.3l1.4,0.5l1.7,0.4
		l2.6-0.5l0.2,0.2l-0.1,0.8l-0.1,1.1l0.1,0.8l0.3,0.4l1,0.2l0.5,0.4l0.4,0.7l0.3,0.5l1.1,2.2l1.7,3.3l0.3,1.3l0.6,0.8l1.6,1.2
		l0.9,0.9l1.3,0.9l0.5,0.9l0.2,1.2l0.3,0.3l2.1-0.5l1.8-0.4l3.3-0.7l4.7,0.1l4.8,0l4.3,0l2.1,0l4.8-0.1l2.5-1.1l1.9-0.9l0.9-0.1
		l4,0.1l2.3,0l2.9,0l2-0.2l1.6-0.3l0.8,0.1l0.8,0.2l0.5,0.3l1.8,1.8l1,0.8l1.8,0.4l3.9,0.1l2.2,0.1l2.5,0.1l1.7,0.5l2,0.6l2.6,0.8
		l2.5-1.1l2.6-1.1l1.7-0.7l0.5,2.6l2.5-0.3l0.8-0.2l1.2,0.3l0.6-0.4l0.5-0.7l0.5-1l1-0.6l1.6-1.4l0.4-0.3l2.4-2l3.6-2.6l1.6-1.3
		l0.5-0.3l0.9-0.7l0.6-0.5l1.1-0.5l1.6-0.5l1.7-0.8l3.9-1.6l0.5-0.2l2.2-0.8l0.9-0.5l1.5-0.2l1.9-0.4l1.3-0.2l1.6-0.5l2.2-0.8
		l1.8-0.5l0.9-0.4l1.2-1l0.8-0.8l1.2-1l1.6-1.1l1.1-0.9l0.7-0.6l0.9-0.6l0.1-0.5l0.2-0.4l0.3-0.7l0.6-1.4l0.4-1.2l0.2-0.5l0.5-1.2
		l0.4-0.9l0.5-1.2l0.6-0.5l0.8-0.5l2-1.6l0.4-0.3l0.4-0.1l0.6-1l0.5-0.9l0.3-0.6l0.9-0.5l0.4-0.5l-0.1-0.5l-0.3-0.7l-0.7-0.6
		l-0.6-0.5l-1.7-0.9l-0.9-0.6l-1-0.8l-0.6-0.9l-0.7-0.5l-0.4-0.5l-0.1-0.6l0.3-1.3l0-0.7l-0.1-1.3l0.1-2l0.3-1l0.3-1l0.9-1.5
		l1.1-0.5l0.7,0l1.5-0.5l1-0.2l0.9,0.3l1.2,0.8l1,0.1l3.1,0l1.3-0.2l0.9-0.2l1.4-0.1l0.5-0.1l0.7,0l0.5-0.4l0.6-1l0.8-1.2l0.4-0.3
		l0.7-0.6l0.3-0.5l0.4-1.2l0.7-1l0.8-1.5l0.3-1l-0.1-0.6l-0.1-0.6l0.3-0.4l0.6-0.5l0.8-0.3l1.6,0l1.9-0.8l0.4-0.2l1.7-0.9l0.7-0.5
		l1.1-0.6l0.6-1.2l0.8-1.5l0.6-0.9l0.5-0.3l0.5-0.9l0.1-0.8l-0.3-0.5l-0.3-0.4l0.1-1l0.2-1.8l0.4-1l0.4-0.8l0-1.1l0.4-0.4l0.5-0.3
		l0.6-0.9l0.5-0.3l1.1-0.1l1.4-0.5l0.9-0.3l0.5-0.3l0.1-0.4l-0.2-0.5l-0.2-1.3l0-0.4l0.2-0.3l0.9-0.4l0.7,0.2l0.5,0.2l0.6-0.2
		l0.5-0.5l0.4-1.2l1.1-1l0.6-0.4l1-0.9l0.8-0.1l1.4-0.4l0.5-0.3l0.6-0.1l0.3-0.8l0.4-0.3l1-0.1l0.8,0.3l1.3,0.2l1.5-0.3l1.1-0.6
		l1.3-0.2l0.7-0.3l0.2-0.4l0.7-0.9l-0.1-0.8l-0.4-0.6l-0.2-0.8l-0.5-0.4l-0.9-0.6l-0.5-0.5l-0.3-0.7l-0.6-0.5l-1.2-0.5l-0.7-0.1
		l-1.8-0.9l-0.5-0.2l-0.2-0.2l-0.3-0.4l-0.5,0l-0.7-0.1l-0.5-0.3l-0.5-0.6l-0.3-0.4l-0.6-0.2l-0.6,0l-0.7,0l-1.1,0l-0.8-0.5l-1.5-1
		l-0.7-0.3l-2.1,0.6l-0.8-0.1l-0.8,0.4l-0.4,0.4l-1.1,0.4l-0.5,0.4l-0.4,1.2l-0.5,1.6l-0.5,1l-0.3,1l-0.2,0.4l-0.6,0l-1-0.6
		l-1.3-0.4l-1,0l-0.5,0l-1.2,0.2l-0.8,0.4l-1,0.7l-1.1,0.3l-0.5,0l-0.7,0.3l-0.9,1.2l-0.3,1.1l-0.6,0.6l-0.9-0.3l-1-0.4l-1.1-0.6
		l-0.8-0.6l-1-2.1l0.7-1l0.9-1.1l-0.3-1.2l-0.5-1.3l-0.3-1.5l0.5-1.7l0.2-1.3l-0.2-0.7l0.1-1.3l0-1.3l0.1-1.8l0.2-3.2l0.2-3.7
		l0.1-1.9l1.9,0.4l1.2,0.1l2,0.1l1.8-0.5l2,0.2l1-0.1l0.5-0.2l1.5-3l1.3-2.5l1.7-2.3l1.6-0.9l1.1-0.9l0.6-1l0.1-1.2l-0.5-1.5
		l-0.7-0.7l-0.9,0l-0.3-0.2l0.3-0.5l0-0.7l-0.2-1l0.1-1l0.4-1.1l0-1l-0.3-1l0-1.1l0.4-1.3l0.1-1.1l-0.3-0.8l0-1.2l0.3-2.2l-0.2-2.3
		l0.6-1.9l1.3-2.3l0.6-1.9l-0.2-1.6l-0.6-1.2l-1-0.8l-0.6-1l-0.2-1.3l-0.7-0.7l-1.2-0.1l-1.2,0.4l-1.2,0.9l-0.9,0l-0.6-0.9l0-0.9
		l0.6-1l0.7-2.1l0.9-3.2l1.3-2.1l2.7-1.7l1.9-1.8l1.9-1.9l1.5-1.2l0.4,0.1l0.9-0.4l1.5-0.9l1.3-1l1-1.2l1-0.6l0.9-0.1L606,40.4"/>
	<path vector-effect="none" fill="none" stroke="#464745" stroke-width="0.4" stroke-linecap="square" stroke-linejoin="bevel" d="
		M-41.1,392.1l-1.9,1.5l-2.5,1l-0.7-0.7l-0.7-0.2l-1.6,0.2l-1.1-0.2l-2.2,0.6l-1.9,0.1l-1.2-0.4l-0.4-0.2l0-0.8l0.1-0.3l0.7,0.4
		l3-0.2l3.8-0.7l0.5-0.6l-0.2-1.3l0.2-0.2l2,1.2l2.7-0.5l2.1,0.2l0.7,1.1L-41.1,392.1"/>
	<path vector-effect="none" fill="none" stroke="#464745" stroke-width="0.4" stroke-linecap="square" stroke-linejoin="bevel" d="
		M-90.7,148.6l0.1,0.2l3.1,3.5l1.8,1.8l0.5,0.5l2,0.5l1.8,1.3l0.7,0.5l4.1-0.8l1.3-0.3l1.7,0.5l1.5-0.4l2.1-0.3l2.3-0.1l2.1,0
		l1.5,0.1l2.9-0.1l1.6,0.3l1.1,0.7l0.5,2.7l0.4,2.4l0,0.9l-1.1,0.2l-1.7-0.2l-0.5,0.3l-0.4,0.5l-0.3,0.6l-0.1,0.5l1,2l-0.2,0.7
		l-0.3,0.6l-0.4,0.2l-0.5,0l-1.3-0.4l-1.2-0.3l-0.5,0.1l-0.5,0.2l-0.2,0.4l0,0.7l1.1,2.5l-0.1,0.6l0,0.9l0.2,0.7l0.8,0.6l0.2,0.5
		l0.4,3.6l0.4,0.5l2.6,0.8l0.3,0.2l-0.3,0.6l-1.8,3.6l-0.8,1.9l-0.7,2l-0.3,2l-0.2,1.9l0.5,1.5l1.6,2.4l0.9,1l2.8,1.9l2.6,2.1
		l1.4,1.5l0.3,0.7l0.1,0.8l-0.1,3.5l1.2,3.1l3,5.3l1.7,2.1l6.5,5.6l5,2.4l15.4,3.1l4.9,1.2l1.7,0.8l-1.3,0.2l-1.9-0.4l0.8,1l1.5,0.8
		l0.8,0.3l0.7-0.2l0.4-0.7l0.3-0.8l0.8-3.6l0.6-2.5l3.1,1.6l1.4,0.3l2.1,0.1l1.6,0.2l0.7,0.2l0.8-0.1l0.7-0.2l2.6-2.6l0.9-0.5
		l2.8-0.9l2.2-0.4l2.2-0.2l2.5,0.3l2.9,1.4l2.2,1.2l1.3,0.6l0.6,0.3l0.5,0.1l0.4-0.1l0.9-1.2l0.7-0.2l1,0l1.1,0.5l1.4,0.5l1.1,0.6
		l1.2,1.1l1.9,0.8l1.3,0.4l0.5,0.8l0.2,0.9l0,0.7l-0.3,0.8l-0.3,0.6l0.1,0.3l0.6,0.7l1,0.7l2,1.2l1.7,1.4l0.9,0.8l1.2,1.2L39,241
		l0.5,0.5l0.7,0.5l0.6,0.2l1.5-0.2l0.9,0.9l0.6,0.1l1.4,0.1l1.2,1l2.7,3.1l0.4,0.1l0.2,0.3l0.1,0.5l0,0.6l-0.3,1.6l0.6,1.5l0.8,1.5
		l1.2,1.1l2.5,2.4l0.9,1.5l0.7,2.3l0.8,3l0.2,0.3l4.2,1.3l4.6,1.5l0.2,1.2l-0.7,1.9l-0.5,2.1l0,1.5l-0.4,1.3l-0.5,0.5l-0.5,0.7
		l-0.2,0.3l0.5,0.7l0.2,1.2l-0.4,1.5l-0.5,0.7l-0.2,0.7l0.1,0.6l-0.1,1l-0.2,0.5l-0.6,0.4l-0.4,0.6L61,285l-0.3,0.7l-0.7,0.1
		l-0.5,0.1l-0.2,0.9l0,0.8l0,1l-0.5,0.5l-0.4,0.6l-0.8,1l-0.2,1l-0.7,0.7l-0.8,0.5l-0.6,0.4l-0.3,0.8l-0.5,0.2l-1,0.4l-0.7,0.3
		l-0.8-0.1l-0.3,0.3l0,0.4L52,296l0.2,1l0.6,1.7l-3-0.7l-1.2,1l-1.6,1.5l-0.6,3.8l-1.1,1.7l0,1.1l0.5,1l0.9,0.7l1.8,0.6l1.1,0.6
		l0,0.5l-0.9,0.5l-1.5,1l-0.8,0.4l-2.7,2.1l-0.3,1.1l-0.1,1l0,3.1l0,3.1l0,5.5l-0.4,1.2l-1.2,2.5l-0.5,1.6l-0.4,2.1l-0.5,1l-0.3,2.5
		l0.4,0.3l3.1,1.3l2.9,1.2l3.8,1.6l0.8,1.7l0,3.3l-0.6,2.3l-0.6,1.1l-3.7,2.7l-3.8,2.7l-3.8,2.8l-4,2.9l-0.4,0.3l1.8,3.5l1.1,2.2
		l1.6,3l0.1,0.7l-0.3,1l1.3,4.4l0.3,2.2l0.4,1.3l1.4,2.2l1.3,2.2l1.7,1.2l1.2,0.5l2.7,1.6l0.9,1l1.3,2.3l2.1,0.1l0.4,0.1l0.1,0.2
		l-0.1,0.6l-0.9,2.9l0,3.1l-0.5,4.6l-0.3,0.8l-0.7,1.2l-0.2,0.8l-0.2,0.5l0.1,0.3l0.6,0.4L53,409l3.5,0.1l0.4,0.2l0.7,0.7l0.5,1
		l0,0.4l-1,0.5l-0.4,1.2l-0.1,1.8l-0.2,0.2l-0.8,0.3l-0.7,2.5l-0.2,0.2l-0.9,0.1l-4.1-0.9l-0.5,0l-1.7,0.4l-2.8,0l-0.8,0.1l-1.1,0.6
		l-0.9,0.8l-0.3,0.9l-0.2,0.2l-1.5-0.5l-0.6,0.7l-3.2,0.6l-0.4,0.2L35,422l-0.9,2.5l-0.8,2.3l-0.3,0.3l-1.1,0.6l-0.1,0.3l0,0.9
		l-0.7,1.6l-1.2,4.5l-0.6,1.2l-0.8,0l-0.7,0.5l-1.2,0.6l-2.3-1l-1.8-1l-6-2.7l-0.5-0.9l-0.1-1.4l-1-0.6l-1.9,1.6l-5.1-2.2l-1.9,0
		l-1-0.8L2,427.7L0,426l-3.4,0.2l-2.6-0.4l-3.1-2.9l-3.7-1.4l-3.2-0.5l-1.6-0.5L-20,419l-1-1.1l-2.2,0.1l-0.6-1.4l-5.5-2.4l-0.6-2.3
		l-0.3-2.1l0.4-1.9l-0.5-3.7l0.8-5l0-2l-0.3-1.9l-0.6-1.7l-1-1.9l-1-0.9l-5-2.6l-1.1-0.1l-2.6,0.1l-3,1l-4.4-0.2l-1.1,0.5l-1.5,1.3
		l-1.6,0.6l-1.8-0.8l-2.3,0.4l-4.6,1.6l-2.2,0.3l-1.7-0.6l-1.4-1.8l-3.5-2.9l-2.4-1.4l-3.8-0.7l-1.6-0.8l-2.3-3l-0.3-1.7l-1.3-1.5
		l-4.5-4l-3.3-4.4l-0.4-1.4l0.1-1.8l-1.2-2.6l-3.6-3.1l-1.7-2.6l-2.6-1.4l-2.6-0.9l-1-0.7l-0.8-1.1l-2.1-4.9l0.5-1.4l-0.8-4.3l0-1.4
		l0.9-3.6l-0.2-1.1l-1.6-2.3l0-1.1l1-1l0.4-0.9l-0.8-1.3l-1.5-1.2l0-1.2l1.2-1.9l0.3-1.4l-0.6-2.7l-1.3-3l-0.9-4l-0.5-1.1l0.3-2.3
		l0.3-2.7l-1.2-0.7l-7.3,0.2l-1-2.4l-4-5.2l-0.2-0.6l-0.1-0.8l0.8-0.1l0.7,0.2l1.1,1.1l1.1-0.2l0.1-1.1l-1-1.2l-1.8-0.8l0.1,1.1
		l-2.1,0.1l-0.9,0.9l-0.4,1.5l-0.8,2l-1.1,0.6l-0.7,0.2l-2.3-0.9l-1.5,0.4l-0.8-0.1l-0.6-1.1l-0.4-0.8l0-1.4l0.2-0.9l0.4-0.4
		l0.1-0.8l-0.3-1.2l-0.5-0.8l-0.7-0.4l-0.4-0.8l0-1.2l-0.8-1.2l-0.7-0.5l1.5-3l1.3-2.7l1.3-2.6l-2.4-1.3l-2.1-1.2l1.1-2.2l2.1-4.1
		l2.7-2.6l2.6-2.5l-0.4-3l-0.4-3.2l-0.5-1.5l0.3-3.6l0.1-1.6l-0.3-0.8l-0.4-0.6l-2.2-1.1l-1.2-2.7l-1.3-3.1l-1.6-3.9l-1.7-2.9
		l-0.8-0.9l-2.4-1.5l-0.1-0.4l0.3-0.9l0.5-0.9l1.6-0.9l0.6-0.8l0.1-3.8l0-1.1l-1.2-1.2l0.8-0.6l0.3-0.5l0.1-0.5l-0.2-0.4l-0.4-0.3
		l-1.3-0.3l0-1.8l-0.2-3l7.1-11.1l0,0l0.9,0.6l0.7-0.4l1.3-2l0.7-0.6l5.1-1.5l2,0.2l1.6,0l0.9-0.8l0.1-0.7l0.3-0.9l0.3-0.6l-0.3-2.3
		l0.1-1l0.4-0.7l1.1-1l1.1-0.6l2.1,0.5l1.3,0.1l0.4-0.3l-0.8-1.5l-2.6-1.9l-2.1-1.1l-0.5-0.6l-0.1-1.9l-0.5-1.3l0,0L-90.7,148.6"/>
	<path vector-effect="none" fill="none" stroke="#464745" stroke-width="0.4" stroke-linecap="square" stroke-linejoin="bevel" d="
		M246.7,318.8l-1.2,0.6l-1.4,0.7l-1.7,0.9l-1.5,0.8l-1.4,0.7l-1.4,0.7l-0.4-1.2l-0.2-0.7l-0.4-1.4l-0.4-1.2l-0.6-1.9l-0.4-1.2
		l1.1,0.8l2.2,1l2.1,0.8l1.6,0.6l0.8,0.1l0.6,0.1l1.6,0L246.7,318.8"/>
	<path vector-effect="none" fill="none" stroke="#464745" stroke-width="0.4" stroke-linecap="square" stroke-linejoin="bevel" d="
		M280.5,669.8l0.5,1l-1.2-0.5l-0.8-0.5l-0.3-0.4l1.6,0.3L280.5,669.8"/>
	<path vector-effect="none" fill="none" stroke="#464745" stroke-width="0.4" stroke-linecap="square" stroke-linejoin="bevel" d="
		M280.8,661.9l-0.8,0.3l-0.8-0.8L279,661l0.1-0.3l0.2-0.2l0.2,0l0.4,0.8L280.8,661.9"/>
	<path vector-effect="none" fill="none" stroke="#464745" stroke-width="0.4" stroke-linecap="square" stroke-linejoin="bevel" d="
		M280.6,659.5l1.3-0.1l1.3-0.2l1,0.1l1.9,1.8l4.9,3.1l2.9,3.4l0.3,0.8l0.4,0.7l0.6,0.1l0.5,0.3l2.9,3.2l0.4,0.7l0.1,0.8l0.2,0.6
		l0.7,0.2l0.8,0l0.6,0.5l1.1,2.7l0.1,0.9l0.2,0.4l3.7,4l0.3,0.5l0,0.4l0.1,0.3l0.7,0.7l1.2,2l0.5,0.4l0.8,1.7l0.6,3.5l0,1.6l-0.3,2
		l-0.4,2l-0.5,1.5l-0.8,1.3l-3,3l-0.9,0.6l-4.2,2.2l-3,2l-2.9,0.9l-3.1-0.3l-2.6-1.5l-1.6-2.6l-1.3-2.8l-1.7-3.1l-2.4-9.9l-0.8-2.7
		l-1.2-3.5l-0.2-1.6l0.3-1.6l0.5,3.3l0.5,0.3l0.3-0.5l-0.2-3.4l0.1-1.5l0.7-3.9l-0.1-0.7l-0.4-1.4l-0.1-0.7l1.4-2.9l0.3-1.6l0-1.6
		l-0.3-1.7l-0.5-1.6l1.5,0.3l0.9,0.5l0.9,0.3l0.6-0.3l0.8-0.1l-0.7-0.8l-1.8-0.6l-2.9-0.2l-1-0.5l-0.4-0.5l0.1-0.7L280.6,659.5"/>
	<path vector-effect="none" fill="none" stroke="#464745" stroke-width="0.4" stroke-linecap="square" stroke-linejoin="bevel" d="
		M454.2,557.8l-0.2,0.3l-0.5-0.1l-0.1-0.1l0.9-1.5l0.2,0.5L454.2,557.8"/>
	<path vector-effect="none" fill="none" stroke="#464745" stroke-width="0.4" stroke-linecap="square" stroke-linejoin="bevel" d="
		M450,556.8l-0.6,1.3l-0.6-1.7l1.1-1.2l0.5-1l0.6-0.7l0.3,0.8l-0.4,1.6L450,556.8"/>
	<path vector-effect="none" fill="none" stroke="#464745" stroke-width="0.4" stroke-linecap="square" stroke-linejoin="bevel" d="
		M435.7,524.7l-0.2,0.1l-1.4-0.9l-1.2-1.2l1.5-0.5l1.5,0.1l0.1,0.7l-0.2,1.2L435.7,524.7"/>
	<path vector-effect="none" fill="none" stroke="#464745" stroke-width="0.4" stroke-linecap="square" stroke-linejoin="bevel" d="
		M434.5,513.9l1.5,0.8l0.5-0.1l0.9,0.5l0.1,0.2l-0.1,0.5l-0.3,0.5l-1,0.6l-0.7-0.2l-0.4-1.1l-0.9-0.4l-0.3-0.4l0.4-0.7L434.5,513.9"
		/>
	<path vector-effect="none" fill="none" stroke="#464745" stroke-width="0.4" stroke-linecap="square" stroke-linejoin="bevel" d="
		M431.3,510.2l0.5,1.7l-0.9-0.5l-0.4-0.8l-0.2-0.9L431.3,510.2"/>
	<path vector-effect="none" fill="none" stroke="#464745" stroke-width="0.4" stroke-linecap="square" stroke-linejoin="bevel" d="
		M425.7,510.6l0.3,1.2l-0.6-0.4l-0.9-1.5l-0.1-1.1l0.6,0.4L425.7,510.6"/>
	<path vector-effect="none" fill="none" stroke="#464745" stroke-width="0.4" stroke-linecap="square" stroke-linejoin="bevel" d="
		M464.1,399.5l0.5,0.6l0.5-0.1l0.5-0.2l0.3,0l0.6,0.4l1.1,1.1l0.5,0.2l0.5,0.5l0.4,1l0.3,1l1.8,3.5l0.5,0.7l0.4,0.6l0.6,0.1l0.4-0.7
		l0.1-0.7l0.4-0.3l0.6,0l1.1,0.4l0.6,0.2l0.6,1.8l0.4,2.1l0,0.7l0.7,1.7l0.5,2l0.3,1.1l0.2,1.1l0.1,1.4l0.1,1.9l-0.2,1.7l0.4,1.3
		l-0.1,0.6l-0.9,0.5l0,0.5l0.4,0.8l0.9,0.9l0.1,0.7l-0.3,0.5l-0.7,0.2l-1,0.6l-0.5,1.5l-0.6,1.2l-0.4,0.3l-1.4-0.1l-0.3,0.3l-0.2,2
		l-0.3,0.9l-0.5,0.8l-0.5,0.5l-0.4,0.4l-1.1,0l-0.4,1.2l-0.3,1.6l0.1,0.8l0.5,1.2l-0.1,0.4l-0.5,0.4l-0.9,0.7l-0.3,1.8l0.3,1.7
		l0.4,0.5l0.7,0.1l0.6,0.4l0.2,0.8l0.6,1l0,1.2l-1.1,1.9l0.1,0.9l0.8,0.2l0.6-0.2l0.7-0.5l0.8-0.8l1.8-1.3l2.1-0.9l1.7-0.4l1.5-0.2
		l0.8,0.1l0.3,0.3l1.9-0.9l0.4-0.1l0.4-0.1l0,0.4l-1.2,1.8l-0.2,0.8l0.2,0.8l0.7,0.6l0.7,0.5l0.7,1.3l-0.2,1.3l0.3,0.4l0.5,0.4
		l0.4,0.7l0.2,0.9l0,1.4l2.3,0.4l1.9,0l1.4-0.1l0.9,0.2l0.6,0.2l0.5,0.4l0.2,0.5l-0.4,0.5l-0.7,1.4l-0.2,1.7l0.3,1.2l0.1,1.1
		l-0.8,1.7l-0.2,1.1l-0.2,1.2l0.1,0.5l0.3,0.3l0.5,0.1l0.8,0l0.9-0.3l2.3-0.1l2.7,0l1.1,0.1l0.4,0.4l0.1,1.1l0,1l0.3,0.7l0.5,0.6
		l0.7,0.1l0.7,0.2l0.2,0.5l-0.1,0.7l0.4,0.5l0.4,0.3l0.8,0.1l1.4-0.7l1.1,0l1,0.1l0.8-0.3l0.7-0.5l1.4-2.1l1.9-1.4l0.6-0.4l0.5,0
		l0.1,0.1l0,0.4l0.5,1.4l-0.1,0.2l-0.4,1.3l-1.5,1.5l-1.1,0.8l-0.7,0.1l-0.5,0.8l-0.2,1.5l-0.4,0.9l-0.5,0.3l-0.2,0.6l0,0.9l0.4,0.4
		l0.8-0.1l0.1,0.2l-0.6,0.5l-0.8,0.3l-1,0.1l-0.9,0.5l-0.7,0.9l-0.4,1.8l-0.1,2.7l0,0.7l-1.5-0.5l-0.6-0.3l-0.7,0l-0.7,0.6l-0.5,0.6
		l-0.6,0.3l-0.9,0.2l-1.3-0.1l-0.9-0.1l-0.1,0.2l0.6,1l0.3,0.9l-0.1,0.5l-0.3,0.4l-0.5,0.4l-0.7,0.3l-0.6,0.1l-1.1-0.2l-0.8,0.1
		l-0.6,0.3l-0.3,0.4l-0.1,0.4l0,2.2l-0.2,0.7l-0.4,0.5l-0.5,0.1l-0.7,0l-0.7,0.2l-2.9,1.4l-0.4,0.2L488,504l-0.9,0.2l-0.6,0.1
		l-1.6-0.6l-0.7,0l-0.3,0.3l-0.1,1.2l-0.7,0.9l-0.9,1.8l0.1,2.4l0.4,1.6l-0.8,1.8l0,0.8l1.2,3.7l0,0.4l-0.2,0.2l-0.6,0.2l-1,0.6
		l-0.7,0.5l-0.3,0.1l-1.1-0.1l-0.3,0l0.1,0.3l1.1,1.5l1,0.6l0.9-0.2l0.4,0.1l0,0.4l0.5,1l1.1,1.5l0.4,1.2l-0.3,1.3l0.2,0.4l0.3,0.2
		l0.9,1l1.9,1.5l1.9,1.7l1.6,1.4l1.1,0.9l2.5,1.7l0.5,0.9l0.4,1.9l0.7,1l0.6,0.7l0.5,0.6l1.2,2.1l0.4,0.2l1.5-1.7l0.4,0.2l0.3,0.5
		l0.1,0.6l-0.1,0.8l-0.4,0.8l-2.3,2l0,1.4l0.2,2.1l0.4,2.5l0.5,1.9l0,0.5L499,556l-1,0.1l-1.3,1.2l-0.5,0.2l-0.6,0.5l-0.4,0.5l0,0.7
		l0.7,2l0.9,1.9l1.3,1.2l1,1l1.4,1.4l1.1,1.2l2,1.2l2.9,1.8l1.2,1.1l1.1,1.3l0.8,1.2l0.5,1.7l0.4,0.9l0.6,3.2l-0.3,0.8l-0.2,0.9
		l0.4,0.8l0.7,0.7l0.2,1l0.9,1.6l1.1,0.9l1,0.5l0.5,0.5l0,0.9l0.4,0.9l0.4,1l0.6,1.4l0.9,1.1l1.8,3.5l0,0.4l-0.3,0.8l-0.6,0.8
		l-0.4,0.3l-0.3,0.8l-0.6,2.2l-1.4,3.8l-1.5,2.6l-1.3,1.9l-1,1.2L512,612l0.1,0.5l0.4,0.8l0.2,1.5l-0.1,1l-0.1,1.1l0,0.9l-0.5,0.2
		l-0.8,1.9l-0.7-0.8l-0.5-0.8l-0.1-2.1l-1.4-3.8l0.3-0.6l0.4-0.3l0.5-1.6l0.6-1.6l-0.2-1.8l0.5-1.4l-0.4-1l-0.2-1.3l0-1.1l-0.2-0.8
		l0.4-1l0.9-0.8l-0.5-0.2l-0.5-0.4l-1.2,1l-0.7-0.1l-0.3-0.7l0-0.8l0-0.5l0.4-0.7l-0.2-1.1l-0.4-0.9l0.2-1.3l-0.8,0.1l-0.4-0.2
		l0.1-0.7l0.6-0.7l-0.8-1l0.3-1.3l-0.3-1.5l-0.6-1.2l-0.2-0.9l-0.8-1.6l-0.6-2.1l-1.3-1.4l-1.2-2.2l-2.6-2.6l-0.2-1.3l-0.3-1.1
		l-0.6-0.5l0.1,4.1l-0.6-0.7l-0.5-2.2l-0.5-1l-0.1-2.2l-1.6-1.9l-0.5-1.5l-1.2-2.2l0.1-0.6l1.1,0.3l-1.2-1.2l-0.7,0.4l-0.9-1.3
		l-0.8-3.9l-0.9-1.4l0.1-1.6l-1.7-5.2l-1.8-1.5l0-1.6l0.1-1.4l-0.5-2.4l0.2-0.8l0.6-0.7l-0.6,0.3l-0.5,0.3l-1.3,0.4l-1.5,0.3
		l-0.8-1.7l-0.9-0.7l-1-1.7l-0.7-2l0.2-0.4l-1.3-0.6l-0.4-0.5l-1.4-1.1l-1.6-0.8l0.4,0.7l0.4,0.4l-0.5,1.3l1,2l-0.4,1.4l-0.3,1.8
		l-0.4,0.9l-1.4,2.1l-1.3,0.8l-0.9,0.3l-0.8-0.1l-1.1-0.8l-0.4-0.7l-0.4-1.3l-0.4-0.1l-0.3,0.2l0.8,1.6l0.1,0.8l1.3,1.3l-0.3,0.5
		l-1.7,1.1l-0.7,0l-0.4,0.2l0,0.7l-0.2,0.4l-2.8,1.5l-0.4,1.3l-0.2,1.2l-1.2,1.9l-1.7,1.7l-0.5,0l-0.6-0.2l-0.2-1.5l0.5-1.4
		l-0.4-1.3l0,0.8l-1,2.1l-0.5,0.7l-1.2,0l-1.6,0.5l-0.9-1.9l-0.1-0.7l-0.2-0.6l0.1-0.7l-0.1-0.5l-0.2,1l0,0.9l-0.5,0.8l-1.5,1.1
		l-0.2-1l-0.2-0.9l0.2-0.9l-0.3-1.3l0.2-2l-0.1-0.7l-0.3-0.7l-0.1,1.1l0,1.1l-0.3,0.4l-0.6,0.3l-0.9,1.4l-0.5,1.2l-1.5,1.3l-0.9,0
		l-0.3-1.3l-0.1-4.9l0.6-0.8l0.2-0.9l0.1-2.9l0.5-1.1l-0.1-2.3l0.2-0.4l0.6-1.9l-0.2-3.2l-0.6-1.5l-1-1.4l-1.4-4.5l-2.5-3.5
		l-0.3-1.2l-1.2-1.4l0.9-0.2l-2-1.1l-0.3-0.5l-0.8-3l-0.2-1.7l-0.2,0.3l-0.1,1.1l-0.6,0.5l0.6,1.8l0,0.5l-0.3,0.8l-1.6-0.5l-1.2-0.7
		l-1.5-1.8l-1.5-2l0.4-0.4l0.6-0.1l2,1.4l1.2,0.2l0.7-0.5l0.8-0.8l0.2-1.4l-0.5-0.4l-0.9-0.2L436,514l-0.9-0.8l-0.2-0.5l-0.3-0.6
		l-0.9-0.3l-0.7-0.4l0.4-1l0.4-0.8l-1.5,0.2l-1.8-1l-0.4-0.3l-0.6-0.2l-1.3,0l-1,0.5l0.7,1.7l0,0.6l-0.7,0l-1.8-2.5l0.4-0.7l0.6-0.7
		l-0.3,0l-0.6,0.1l0.3-2.4l-0.4-0.3l-0.1,0.8l-0.2,0.8l-1,1.8l-0.7-0.2l-0.5-0.4l0.5-1l0.3-0.3l0.2-0.5l-0.6-0.9l-0.8-0.6l-0.7-1.1
		l-0.3,0l0.5,1.3l0.1,2l-1.6-2l-3.1-2.7l-0.7-0.8L416,500l-0.4-0.8l-0.3-0.9l-0.1-0.7l-0.7-0.6l-0.4-1.1l-0.3-1.1l0.2-0.8l0.7-1
		l0.6-0.2l0.5,0.3l1.2,0.4l0.8,0.4l0.4,0.7l0.4-0.1l0.3-0.5l-0.1-0.5l-0.6-1.4l-0.3-1.7l-0.5-4.1l-0.1-0.5l0.6-0.5l0.2-0.5l0.2-0.7
		l0.1-0.3l0.4-0.1l0.6,0.3l1.1,1l0.7,0.2l0.6-0.3l0.4-1.8l0.2-0.5l0.3-0.4l0.6,0l0.3-0.4l0-0.8l-0.1-0.8l-0.9-2.2l-0.3-1l-0.2-1
		l0.3-1.1l0.4-1.3l-0.3-1.1l0.1-0.4l0.4-0.1l0.6,0.2l0.6-0.3l0.4-0.7l0.1-0.6l0-2.6l-0.1-2.3l-0.2-1.9l-0.6-1.1l-1.1-3l0.1-0.5
		l0.3-0.2l1.2,0.9l0.5,0.1l0.8-0.3l0.8-0.3l0.6-0.1l0.9,0.3l1.2,0.3l1.8,0.3l0.8,0.3l0.6-0.1l0.3-1.2l0.3-1.8l0.5-2.7l0.7-2l0.2-0.5
		l0.9-1.7l0.8-1.7l0.6-2.1l0.3-1.5l-0.1-0.6l-0.4-0.5l-0.7-0.2l-0.6-0.3l-0.2-0.3l0-0.3l0.2-1l0.3-1.2l0.4-0.7l1.2-0.9l0.7-1.1
		l0.8-1.4l0.4-0.9l0-1.8l0.2-0.4l0.5-0.6l0.3-0.7l-0.1-0.4l-0.3-0.2l-0.6-1.2l-0.4-1.9l-0.1-1.6l0.2-0.7l0.3-0.9l0.7-0.6l1.1-0.5
		l1.6-1.3l2.7-2.8l1-0.9l0.7-0.5l0.6-1.1l0.8-1.2l1.3-0.7l0.9-0.3l4.2-1.3l0.7,0l0.8,0.3l1.1,1.3l0.9,0.4l1,0.2l0.7-0.3l-0.1-0.6
		l-2.7-3l-0.3-0.9l-0.2-0.9l0.1-0.7l0.6-0.8l0.8-0.9l1-1.1l0.6-0.8l0.8-0.3l0.3-0.4l0-0.6l-0.1-0.6l-0.5-0.6l0-0.9l0-0.8l0.3-0.5
		l0.6-1.3l0.4-0.9l0.2-0.4l0.3-0.7l0.6-0.2l0.7,0.1l0.4,0.3L464.1,399.5"/>
	<path vector-effect="none" fill="none" stroke="#464745" stroke-width="0.4" stroke-linecap="square" stroke-linejoin="bevel" d="
		M359.5,417.4l0.5,0.3l0.1,0.6l0,0.6l-0.4,1.4l-0.4,1l-0.4,2l-0.2,3.5l0.1,0.6l1.5,1.9l0.6,1.5l0.1,1l-0.4,1.8l-0.5,2l-0.3,0.5
		l-0.3,0.2l-1.7-0.6l-1.1,0.2l-1.3,0.5l-1.4,0l-1.1-0.1l-1.4,0.9l-1.4-0.3l-0.9-0.4l-0.7-1.3l-0.3-0.2l-2.8,1.6l-0.7,0.1l-1.8-0.7
		l-1.5-0.7l-0.6-0.2l-1.4-0.2l-1.3-0.1l-1.4-0.4l-1.7,0.7l-0.7,0l-0.7-0.4l-0.4-0.9l-0.1-0.9l-0.6-0.6l-0.9-0.1l-1.3,0.6l-1.8,0.8
		l-0.6-0.1l-0.6-0.2l-0.2-0.2l-0.3-0.8l-0.3-0.2l-0.4,0l-0.8-0.2l-1-0.6l-3-1.3l-0.4-0.6l0-1.4l-0.2-0.6l-0.4-0.6l-1.5-0.6l-2.9-0.9
		l-1.6-0.8l-0.7,0.4l-1.5,0.4l-0.8,1l-5-1.4l-0.8,2l-1.6-1.6l-4.9-0.5l-0.6-2.8l-2.9,0.6l-4.4-3.1l-2.2,0.9l-5.1-3.9l-1.5,0.3
		l-1.4-3.1l-3.3-1.1l-3.9-3l-0.8,0.2l0.1,1.6l-5.1-3.7l-0.2-0.5l0.4-1.6l0.5-1.4l0.5-0.3l0.7-0.9l0.3-1.6l0-1.4l0.7-1.9l1-2.1
		l1.7-2.2l0.7-0.7l0.8-0.5l1.6-1.6l0.3-0.3l0.7-0.4l0.7-0.1l0.5,0.2l0.5,0.9l0.6,0.8l0.8,0l0.9-0.7l1.9-3.2l2.5-0.6l2.4,0.3l2.1,0.5
		l0.6,1.1l0.4,1.1l0.3,0.6l0.7,0.7l3,1.6l1.7,1.4l2.4,1.9l1.8,0.8l1.6,0.1l0.9,0.7l1.4,1.5l1.2,1.7l1.5,1.6l1-0.1l1.3-0.5l1.6-0.7
		l1,0.3l0.9,0.4l0.3,0.8l0.6,1.5l0.6,1.6l1,0.5l1.1,0.8l0.6,0.6l2.1,1.1l0.3,0.5l0.4,0.3l0.5,0.2l0.4,0.2l0.7,0.1l2.4-0.8l0.6,0.1
		l0.4,0.1l0,0.3l-0.4,1.1l-0.3,1.4l0.4,0.7l1,0.3l2.3,0.1l3-0.1l0.9,0.7l1,1l1,1.8l0.4,0.8l0.5,0.2l0.8-0.3l0.1-0.8l0-1.1l0.6-0.4
		l0.4,0.3l0.5,0.9l1.3,0.7l0.9,0.3l0.9-0.2l0.3-0.3l0.3-1.6l0.7-0.3l0.9,0.1l0.3,0.3l0.4,0.6l1,0.2l1,0.3l1,0.4l1.4,1.1l1.7,0.1
		l1.9-0.1l1,0l0.8,0l0.7-0.1l1.9-0.9l0.8-0.1l1,0L359.5,417.4"/>
	<path vector-effect="none" fill="none" stroke="#464745" stroke-width="0.4" stroke-linecap="square" stroke-linejoin="bevel" d="
		M-25.7,508.6l-1,0.1l-0.3-0.2l0.3-2.1l2.7-2.3l1.9-2.8l0.6,2.8l-2,1.3l-1.3,2.4L-25.7,508.6"/>
	<path vector-effect="none" fill="none" stroke="#464745" stroke-width="0.4" stroke-linecap="square" stroke-linejoin="bevel" d="
		M-46.4,424l0.5,4.6l1.3,4.5l1.5,2.7l1.4,3.5l2.5,3.4l1.2,1.3l5.4,3.2l3,1.4l4.3,1.6l2.7,2.1l1,0.3l1.7-0.1l1.1,0.3l2.5,2.6l0.5,2.1
		l1,1.2l0.8,1.8l0.4,1.8l2,3l1.2,3.2l1.4,2.4l1.4,1.6l2.3,0.9l1.8,0.9l0,1.4l-0.5,1.8l-0.6,1.3l-2.2,2.4l-0.7,1.6l-2.5,2.4l-2.9,4.2
		l-1.2,0.9l-4,1.8l-3.1,2.5l-3.9,4.5l-3.2,4.6l-1.2,1.5l-2,0l-1.3-0.3l-0.8-0.6l0.6-1.3l0.4-1.5l-1.2,0l-1.1,0.2l-3,3.4l-1.6,1.5
		l-0.6,2.1l-1.1,2.6l-1.3,2.4l-0.7,2l-0.2,1.2l0.3,3l-0.4,3l0.2,1.9l0.1,2.2l-1.3,0.5l-1,0.2l-4-0.3l-4.2,0.2L-57,528l-2.3,1
		l-3.2,2.5l-2.7,7l-3.2,2.7l-2,0.4l-4.6-0.3l-6.5,0l-2.4,0.4l-4.4,4l-0.5,1.4l0.6,1.1l0.1,1.2l-0.5,1l-2.1,2.7l-2.1,1.9l-5.2,0.7
		l-1.7-1l-1.6-0.6l-3.3-0.5l-5.4-0.2l-2.2,1.3l-3.3,0.7l-3.1,1.4l-5.6-0.1l-4,0.9l-0.7-2.6l-0.7-2.6l-0.7-2.6l-0.7-2.6l-0.5-1.8
		l-1.2-0.8l-0.5-1.9l-0.5-2l-0.5-2l-0.5-2l-0.5-2l-0.5-2l-0.5-2l-0.5-2l-0.5-2l-0.4-2l-0.4-2l-0.4-2l-0.4-2l-0.4-2l-0.4-2l-0.4-2
		l-0.4-2l2.6-0.4l3.2-0.5l3.2-0.5l3.2-0.5l3.2-0.5l3.1-0.5l3.1-0.5l3.1-0.5l3.1-0.5l3.1-0.5l3.1-0.5l3.1-0.5l3.1-0.5l3.1-0.5l3-0.5
		l3-0.5l3-0.5l1.9-0.3l1.1-2.2l1-1.8l0.9-1.8l1-1.8l1-1.8l1-1.8l1-1.8l1-1.8l1-1.8l1-1.8l1-1.8l1-1.8l1-1.8l1-1.8l1-1.8l1-1.8l1-1.8
		l0.9-1.6l-0.7-1.9l-0.9-2.5l-0.9-2.6l-0.8-2.5l-0.6-1.8l-0.7-2.2l0.7-2.4l0.2-1.2l0.5-1.8l1.7-2.3l2.1-3l1.4-2l1.3-1.7l1-1.4
		l0.7-1.5l0.1-1.1l-0.3-0.5l-0.2-0.6l1.4-0.5l2.4,0l1.2,0.4l1.8,0l1.5,0l0.2-0.5l-0.2-0.9l-0.3-1.3l-1.9-0.6l-0.5-0.5l1.1-1.6
		l0.1-0.6l-0.1-0.7l0-1.2l0.5-1.4l0.6-0.9l0.2-0.8l0.2-1.6l0.4-1.4l0.6-0.6l0.9-0.5l0.8-0.2l0.7,0.2l0.5,0.4l0.1,0.8l-0.3,0.5
		l-0.4,0l-0.2,0.2l0.3,1.1l0.6,1.2l0.7,0l0.9-0.6l0.9-0.4l1.1-0.3l0.9-0.9l0.8-0.5L-46.4,424"/>
	<path vector-effect="none" fill="none" stroke="#464745" stroke-width="0.4" stroke-linecap="square" stroke-linejoin="bevel" d="
		M-46.9,419.4l-0.7,0.3l-0.4-0.2l0.3-0.8l0.4-0.5l0.6,0.2l0.1,0.4L-46.9,419.4"/>
	<path vector-effect="none" fill="none" stroke="#464745" stroke-width="0.4" stroke-linecap="square" stroke-linejoin="bevel" d="
		M-40.2,402.5l-0.7,1.9l-0.4,1.6l-1.9,4.7l-0.9,0.7l-0.5,0.6l-0.4,0.9l-0.4,0.3l-0.4-0.1l-0.9-0.6l-0.4-0.9l0.3-0.9l0.5-1.6l0.7-1.5
		l0.4-1.7l-0.7-0.5l-0.5,0l1.8-2l0.6-0.2l0.4,0.3l1.2,0l0.9-1.1l0.6-0.6l0.5,0.2L-40.2,402.5"/>
	<path vector-effect="none" fill="none" stroke="#464745" stroke-width="0.4" stroke-linecap="square" stroke-linejoin="bevel" d="
		M235.8,315.6l0.4,1.2l0.6,1.9l0.4,1.2l0.4,1.4l0.2,0.7l0.4,1.2l-0.2,0.6l-0.4,0.9l-1.2,0.6l-1.2,0.4l-0.3,0.3l-0.1,0.4l-0.6,0.7
		l-1.2,0.6l-0.9-0.2l-0.6-0.3l-3.2,0.9l-1.4-0.2l-1.2,0.6l-0.9,0.6l-1.8,0.6l-1.1-0.1l-1.6-0.6l-2-1.1l-0.8-0.6l-0.8-0.1l-1.8-0.3
		l-1.7-0.6l-2.1-0.8l-1-0.3l-2.1-0.7l-1.5,0.4l-1.3,0.4l-1.1,0.2l-1.1,1.6l-0.4,0.5l-0.5,0.8l-0.3,0.6l0.1,0.7l1.2,0.7l0.4,0.8
		l0,0.6l-0.5,0.6l-0.4,0.4l0,0.4l0.2,0.5l0.3,0.4l1.8,0.4l1.1,0.1l0.4,0.2l0,0.6l-0.5,0.8l-1.6,0.5l-0.9,0.6l-0.4,0.9l-0.1,0.7
		l0.2,0.5l0.7,0.6l0.6,0.7l0.2,0.5l-0.2,0.7l-0.4,0.9l-0.9,1l-0.7,0.7l-0.1,0.3l0.1,0.4l0.4,0.7l0.8,1l1,0.9l0.7,0.3l0.2,0.2
		l0.1,0.9l0,0.9l-0.3,0.6l0.5,0.6l1.5,0.1l1.2,0.4l0.5-0.2l0.3,0.2l-0.4,2l0,1.2l0.3,0.4l1.1,0.6l2.3,0.2l1.3,0.7l1.4,0.8l0.7,0.8
		l0.3,0.6l-0.2,0.8l-0.9,0.9l-1.4,0.4l-0.8,0.1l-4,1.5l-1.3,0.7l-1,0.9l-0.4,0.7l-0.3,0.7l0.6,2.6l0.1,0.8l-0.9,2.7l-0.3,1l0.2,0.7
		l0.8,0.3l0.1,0.6l0,0.5l-1.5,0.9l-1.6,0.8l-0.5,0l-1.6,1.6l-2.7,3.2l-1.4,1l-0.1,0.6l-0.2,0.6l0.4,1l0,0.8l-0.6,0.8l-1,0.9
		l-1.9,0.7l-2.3,0.6l-1.1,0.4l-1,2.1l-0.9,2.2l-0.4,0.8l-1.5,2.4l-2.5,3.6l-0.6,0.8l-3.5,1.5l-3.6,1.7l-0.7,0.7l-0.9,1.7l-0.9,1.9
		l-0.7,1l-2.4,2.1l-0.9,1.7l-0.3,1.2l-2,0.5l-2.2,0.4l-3.2-0.1l-1.3,0.2l-4,1.3l-1,0l-0.7-0.3l-0.5-0.6l-0.4-1L154,413l-0.7-0.7
		l-0.9-0.7l-1.1-0.1l-1.1,0.5l-1,0.6l-0.7,0.5l-0.7,0.6l-1.4,2l-2.3,2.9l-2.4,2l-0.9,0.6l-0.6,0.5l-0.8,0.7l-0.5,0.7l-0.8,2.3
		l-0.5,2.1l0.1,0.5l0.3,0.4l1.1,0.7l1.6,1.2l2.2,0.8l1.9,0.3l0.7,0.5l0.4,0.6l0.1,0.5l-0.3,1.7l-0.4,1.9l-0.9,2l-0.1,1.2l0.2,1.2
		l1.9,3.1l0.8,0.4l1.6,0.2l0.7,0l0.8-0.2l0.6,0.2l0.4,0.4l0.1,0.6l-0.3,2.9l0.5,1.3l1.1,1.9l0.8,2.1l0.8,2.5l0.8,2l0.3,1l-0.6,0.4
		l-0.4,0.5l-0.1,0.7l0.1,0.7l-0.1,0.5l0.4,0.6l0.5,0.2l0,0.4l-0.8,0.5l-0.7-0.1l-0.6,0.2l-1.1,1.1l-0.5,0.2l-0.7,0.1l-0.7-0.2
		l-1-0.5l-0.3-0.8l0.2-0.8l-0.2-0.5l-0.8,0l-2.7,0.6l-2.6,0.8l-0.5,0.6l-0.6,0.7l-1.2,0.2l-1.7,0l-1.2-0.2l-1-0.8l-0.9-0.8l-1.5-0.2
		l-2.8-0.1l-1.5-0.1l-0.9-0.3L128,463l-1.1-0.4l-0.5,0.3l-0.5,0l-0.3-0.7l-0.2-0.1l-0.3,0.1l-0.3,0.2l-0.2,0.4l-0.4,4.3l-1.8-0.2
		l-1.3-0.1l-1.5,0.1l-1.3,0.2l-0.7,0.3l-1,0.5l-0.3,0.9l-0.5,0.6l-0.6-1l-0.4-0.5l-0.5,0.3l-0.7-0.1l-1.1-1.2l-0.6,1l-2,0.1
		l-0.2-0.8l0-0.8l-1.2,0.5l-0.7-0.9l-0.2-1.2l-0.3-0.3l-0.3-0.4l-0.8-0.5l-0.6-1.3l0.1-1.3l-0.1-1.6l-1-5.8l-0.9-0.6l-5.2-1.6
		l-0.2-1l0.7-2.6l0-1.7l-1.4-2.4l-0.3-1.6l-1.2-1.5l-1.3-0.6l-1.4,0l-0.8,0.4l-0.5,0.8l3,0.2l0.6,0.4l0.7,0.7l-0.9-0.1l-1-0.4
		l-1.3-0.1l-4.8,0.1l-2.9,0.6l-3.6-0.8l-4.8,0.3l-3.9-0.5l-1.9,1.6l-0.8-0.5l-0.6-0.5L65,440l-0.3-0.7l-0.8-0.6l-1.1,0.6l-0.7,0
		l-2.8-1.1l-2.3,0.1l-1,0.7l-0.3,1.3l-2.8-0.7l-1.5-0.7l-2.2,0.1l-4.7-1.4l-1.3-0.1l-1.9,0.6l-0.9,0.6l-1.1,0.1l-0.8-1.1l-0.6-0.5
		l-0.7,0.2l-1,0.6l-2.6-0.1l-2.3-0.5l-2.3-1.2l0.3-0.2l0.6-1.2l1.2-4.5l0.7-1.6l0-0.9l0.1-0.3l1.1-0.6l0.3-0.3l0.8-2.3L35,422
		l0.6-0.8l0.4-0.2l3.2-0.6l0.6-0.7l1.5,0.5l0.2-0.2l0.3-0.9l0.9-0.8l1.1-0.6l0.8-0.1l2.8,0l1.7-0.4l0.5,0l4.1,0.9l0.9-0.1l0.2-0.2
		l0.7-2.5l0.8-0.3l0.2-0.2l0.1-1.8l0.4-1.2l1-0.5l0-0.4l-0.5-1l-0.7-0.7l-0.4-0.2L53,409l-1.4-0.4l-0.6-0.4l-0.1-0.3l0.2-0.5
		l0.2-0.8l0.7-1.2l0.3-0.8l0.5-4.6l0-3.1l0.9-2.9l0.1-0.6l-0.1-0.2l-0.4-0.1l-2.1-0.1l-1.3-2.3l-0.9-1l-2.7-1.6l-1.2-0.5l-1.7-1.2
		l-1.3-2.2l-1.4-2.2l-0.4-1.3l-0.3-2.2l-1.3-4.4l0.3-1l-0.1-0.7l-1.6-3l-1.1-2.2l-1.8-3.5l4.6,2.8l3.6,2.2l5.8,3.4l4.5,2.6l1.3,0.5
		l14.3,1.7l5,2l1.5,0.9l0.3-0.3l0.8-0.5l1.3-0.4l1.7-0.2l1.7,0l2.3,0.4l1.6,0.3l1.1,0.4l2.3,0.3l1.1-0.1l3.9-0.4l2.6-0.3l3.9-0.4
		l2.8-0.3l0.8-0.3l0.8-0.7l0.5-0.6l-0.6-1.2l0.1-1l0.8-1.1l0.6-1.8l0.4-2.6l0.1-1.5l1.2-2.6l0.9-1.4l1.4-0.5l0.9-0.3l0.4-0.3
		l0.4-0.3l1.7-1.9l1.4-0.8l1.3-0.4l1.2,0.3l0.9,1l2,0.7l2,0.1l1.8-0.3l0.9-0.4l1-0.3l0-0.5l-1-0.6l-0.5-0.7l-0.1-0.8l0.7-0.4
		l1.4,0.1l3.6-1.2l1.6-1l0.5-0.5l0.6,0l1.2,0.8l1.4,0.4l1-0.4l0.9,0l0.8,0.8l0.4,0.8l0.7,1l1,0.3l1.3-0.3l1.5-0.8l1.5-1.2l1.3-1.2
		l0.4-4.4l0.2-2.6l0.8-1.2l1-0.7l0.7-1.2l0.2-1.1l0.7-0.9l1-2.5l0.9-0.5l1.6-0.2l2.5,0.2l2.2-0.9l2.2-0.9l0.4-1.1l-0.6-1.3l-0.6-2.4
		l-0.7-1.5l-1.8-2.8l0.5-1.5l1.3-0.4l2.8,1.5l0.8,0.3l1,0.3l2.7,0.4l2.3-0.1l2.4-0.6l0.6-0.9l0.2-1.1l0.2-0.9l0.2-1.3l-0.7-1
		l-0.4-0.8l-0.1-0.6l0.6-0.2l0.7-0.5l0.7-1l1.5-1.1l1-1.1l0.8-0.5l1.2-0.6l0.9-1l0.4-0.6l0.7-0.6l0.3-0.4l-0.1-0.4l-0.2-0.5
		l-0.3-0.6l0.1-0.5l0.4-0.5l0.4-0.5l0-0.7l0-1.2l-0.5-0.8l-0.1-1.6l-0.4-1.7l-0.2-0.7l-0.5-0.9l-1.2-1.1l-0.3-0.6l0.7-1l1-0.5
		l1.9-1.4l1.1-1l0.9-0.7l1,0.3l0.6,0l0.7-0.6l1.2-0.5l2.1-1l0.8-0.8l1.1-0.3l0.8,0l1.2-0.1l1.2-0.3l1-0.2l1.6,0.2l2.5,0.2l1.4,0
		l3.2,0.3l3.4,0.4l0.4,0l1.4,0.7l0.9,0.5l0.4,0l1.8-0.7l2.7-0.8l1.2-0.4l0.7-0.1l1,0.1l0.7,0.4l0.7,0.6l0.5,0.4l0.7-0.1l1.1-0.1
		l0.9,0.3l2,1.1l0.3,0.4l0.3,2l0.4,0.2l1.3-0.3l1,0.3l1,0.8l0.7,0.7l0.4,0.7l0.4,1.1l0.1,0.9l0.1,1l-0.4,2.8l-0.4,0.4l-0.4,0.6
		l0,0.5l0.3,0.5l0.7,0.4l0.6,0.2l0.3,0.5l0.3,1.6l0.3,0.3l0.8,0.1l1.5-0.2l1.3-0.4l0.5-0.1l0,1.5l0.7,0.6l1,0.8L235.8,315.6"/>
	<path vector-effect="none" fill="none" stroke="#464745" stroke-width="0.4" stroke-linecap="square" stroke-linejoin="bevel" d="
		M505.1,492.4l1.5,0.5l0,0.7l0.3,0.1l0.3-0.4l0.4-0.9l0.5-0.6l0.6-0.2l0.7,0.4l0.9,1.1l0.8,0.6l0.3,0l0.3,0.5l0.1,0.5l-0.1,1.2
		l-0.3,1.4l-0.5,1.7l0.5,1.3l1.3,0.9l1.4,0.4l1.3-0.4l0.7-0.5l0.5-0.6l0.5-0.3l0.7-0.2l2.2,0l0.7,0.3l0.2,0.7l0.1,2l0.6,1.3l0.9,1.4
		l0.3,1.3l-0.3,2.4l-0.2,2.2l-0.5,1.1l-0.4,0.8l-0.1,0.5l0.1,0.4l0.6,0.5l0.7,0.7l0.3,0.8l0.1,1l-0.1,1.4l-0.8,3.1l-0.6,2.8l0.6,0.4
		l1.1,0.2l0.8,0.2l0.7-0.4l1.2-1.8l1.1-1.4l1.4-1.4l0.1-0.1l1.3-1.1l0.5-0.9l0.2-1l0.4-0.5l0.7,0.1l0.7-0.6l0.8-1.2l0.7-0.6l0.5,0
		l1.1,0.5l1.6,1l1.4,0.5l1.1,0l0.6,0.4l0.1,0.7l0.3,0.4l0.5,0.1l0.2-0.1l-0.1-0.3l0.4-0.6l0.9-0.8l1-0.6l1-0.3l0.6-0.6l0.2-1.4
		l0.5-1.1l0.5-0.6l0.7-0.4l0.1-0.4l-0.4-0.3l0-0.4l0.3-0.5l0.9-0.4l1.4-0.2l1.7,0.1l2,0.4l1.3,0l0.5-0.4l1.4,1l2.2,2.4l1.9,1.8
		l1.5,1.1l1.5,0.8l1.5,0.5l1.2,0.8l1.3,1.7l-0.1,2.8l0.3,2.3l0.7,2.8l1.2,2l1.8,1.2l1.1,1l0.4,0.9l1.3,0.5l2.2,0.2l1,0.4l-0.2,0.6
		l0.1,0.6l0.4,0.7l0.9,0.4l1.3,0.2l0.8,0.3l0.3,0.5l0.2,0.8l0,1.2l-0.3,1L580,540l0,0.5l0,0.8l0.3,1.5l0.7,0.9l0.4,1.3l0,1.1
		l0.2,2.2l0.1,0.8l-0.1,0.8l-0.5,0.8l-0.8,0.9l-1,0.8l-0.6,0.4l-0.1,0.2l-0.4,0.8l-0.5,0.8l-0.5,0.1l-0.4-0.2l-0.3-0.4l-0.3-0.9
		l-1.1-0.2l-1.2,0l-2.3,0.9l-1.9,0.6l-2.2,0.1l-1.9,0.8l-0.8,0.2l-1,0.1l-0.9,0.2l-0.9,0l-1.8-0.2l-0.6,0.2l-1.2,0.7l-1.3,0.6
		l-1.3,0.5l-1.8,1.3l-1.1,1.7l-0.2,1.1l-0.5,1.1l-0.7,1.8l-1,1.7l-0.7,0.9l0.3,0.4l-0.1,0.5l-1.3,0.5l-1.1,0.3l-0.1,0.3l0.7,3
		l0.6,1.1l1,1.2l0.6,0.7l0.8,2.2l0.5,1.9l1.8,0.9l1,0.7l0.8,0.7l-0.1,0.6l-0.1,1.6l0.8,1.9l3,3.8l0.2,0.3l-0.2,0.1l-0.5-0.8
		l-1.4-1.2l-0.6-1.4l-1.6-1.4l-0.8-0.5l-0.1,0.6l-0.3,0.7l-1.4-0.6l-1.2-0.7l-1.3-1.5l0,0.4l-0.2,0.4l-1.4-1.1l-1.4-0.8l-1.1-0.2
		l-0.7-0.2l-0.7-0.4l-1.4-0.3l-3.1,1.5l-4.3,0.2l-1.5,0.9l-0.7-0.3l-0.5-0.6l0.1-1.3l-0.4-2.6l0.1-1.9l-0.5-1.3l0.1-0.7l0-0.9
		l-0.7-0.2l-3.1-0.1l-0.7-0.4l-0.7,0.8l-3.5,1l-1.2,0.8l-1,1.3l-0.1,1.4l0.9,0.7l0.7,1.4l-0.6,3.5l0,1l1.3,3.9l0.2,2.2l-0.4,1.6
		l-0.8,1.5l0,2.3l-0.7,1.2l-0.7,2.6l-0.2,3.1L520,605l0.2,2.6l-1.7,4.3l-0.1,2.3l-0.7,1l0.4,0.6l0.3,1.1l0.3,3l0.4,2.4l0.6,1.2
		l1.6,2.3l-0.1,0.8l0.1,1.1l1.1,0.3l0.7,0l3.7-2l1.4,0.1l0.7,1l0.5,0.9l1.7,5.2l0.5,0.9l1,0.8l1.1,0.8l0.3-0.2l0-0.4l0-0.4l1,0.8
		l1,1.8l4,9.5l0.8,1.1l0.8,1.2l-1.4-0.4l-0.8-2.1l-0.5-0.9l-0.5,0l-0.7,0.2l-0.1-0.4l0.4-0.8l-0.3-0.8l-0.9-0.6l-1.1,0.8l0.3,1.5
		l0.8,1.1l2.5,2.2l0.8,1l0.9,0.2l1.1-0.4l1.6,0.8l1.3,0.8l3,1.1l1.6-0.5l1.7-0.8l1.2-0.1l1.2,0.2l1.7,1l2.9,2.9l4.2,2l-0.3,0.8
		l0.1,1.1l-1.1,1.7l-0.1,0.9l-0.3,1.1l-0.9,0.8l-0.8,0.3l-0.5,0l-0.4-0.1l-0.8-0.9l-0.4-0.2l-0.3,0l-1.7,1l-1.6,1.1l-0.2,0.7
		l-0.3,0.9l-0.5,0.4l-0.4,0.2l-0.5-0.4l-0.8-0.5l-0.6-0.5l0-0.9l0.7-1.5l-0.1-0.9l-0.4-1.6l-0.5-0.9l-0.3,0l-0.5-0.1l-1.3,0.4
		l-0.9-0.9l-0.5-1.1l-0.6-0.3l-0.5-0.2l-1,0.6l-0.8-0.1l-2.8-0.5l-1.3-1.4l-0.5,0.1l-0.4,0.3l-0.1,0.4l0.1,1.9l-0.1,0.6l-3.7-3.1
		l-2.4-1.1l-0.3-2.8l-0.7-0.4l-0.8,0.1l-0.7-0.6l0.2-1.7l-0.7,0.5l-1.1,0.2l-1-0.3l-1.1-2.1l-0.6-0.6l-1.2-1l-1.3,0.2l-0.5-0.5
		l-0.2-1.5l-1.1-0.7l-1.4-0.5l-1.1-0.2l-1.5-2.2l-0.9-0.4l-0.8-0.3l-0.9,0.5l-0.1,0.9l-0.5,0.9l-0.7,0l-0.8-0.3l-1.3-2.2l-0.4-1.4
		l-0.3-2.7l0.5-2.6l-0.2-4l0.4-2.6l0.4-0.9l0.2-3.5l0.9-4.6l0-0.9l0.1-1.1l0.1-1l-0.2-1.5l-0.4-0.8L512,612l0.2-0.6l1-1.2l1.3-1.9
		l1.5-2.6l1.4-3.8l0.6-2.2l0.3-0.8l0.4-0.3l0.6-0.8l0.3-0.8l0-0.4l-1.8-3.5l-0.9-1.1l-0.6-1.4l-0.4-1l-0.4-0.9l0-0.9l-0.5-0.5
		l-1-0.5l-1.1-0.9l-0.9-1.6l-0.2-1l-0.7-0.7l-0.4-0.8l0.2-0.9l0.3-0.8l-0.6-3.2l-0.4-0.9l-0.5-1.7l-0.8-1.2l-1.1-1.3l-1.2-1.1
		l-2.9-1.8l-2-1.2l-1.1-1.2l-1.4-1.4l-1-1l-1.3-1.2l-0.9-1.9l-0.7-2l0-0.7l0.4-0.5l0.6-0.5l0.5-0.2l1.3-1.2l1-0.1l0.2-0.2l0-0.5
		l-0.5-1.9l-0.4-2.5l-0.2-2.1l0-1.4l2.3-2l0.4-0.8l0.1-0.8l-0.1-0.6l-0.3-0.5l-0.4-0.2l-1.5,1.7l-0.4-0.2l-1.2-2.1l-0.5-0.6
		l-0.6-0.7l-0.7-1l-0.4-1.9l-0.5-0.9l-2.5-1.7l-1.1-0.9l-1.6-1.4l-1.9-1.7l-1.9-1.5l-0.9-1l-0.3-0.2l-0.2-0.4l0.3-1.3l-0.4-1.2
		l-1.1-1.5l-0.5-1l0-0.4l-0.4-0.1l-0.9,0.2l-1-0.6l-1.1-1.5l-0.1-0.3l0.3,0l1.1,0.1l0.3-0.1l0.7-0.5l1-0.6l0.6-0.2l0.2-0.2l0-0.4
		l-1.2-3.7l0-0.8l0.8-1.8l-0.4-1.6l-0.1-2.4l0.9-1.8l0.7-0.9l0.1-1.2l0.3-0.3l0.7,0l1.6,0.6l0.6-0.1l0.9-0.2l0.9-0.2l0.4-0.2
		l2.9-1.4l0.7-0.2l0.7,0l0.5-0.1l0.4-0.5l0.2-0.7l0-2.2l0.1-0.4l0.3-0.4l0.6-0.3l0.8-0.1l1.1,0.2l0.6-0.1l0.7-0.3l0.5-0.4l0.3-0.4
		l0.1-0.5l-0.3-0.9l-0.6-1l0.1-0.2l0.9,0.1l1.3,0.1l0.9-0.2l0.6-0.3l0.5-0.6l0.7-0.6l0.7,0L505.1,492.4"/>
	<path vector-effect="none" fill="none" stroke="#464745" stroke-width="0.4" stroke-linecap="square" stroke-linejoin="bevel" d="
		M259.2,455.7l0.1,0.1L259.2,455.7L259.2,455.7"/>
</g>
<g id="India">
	<path fill="#212220" stroke="#464745" stroke-width="0.4" stroke-miterlimit="10" d="M462,669.3l-0.6,1.1l-2-2.8l-0.7-0.1l-0.3-1.5
		l0.2-0.6l1.6-1l0.5,0.3l1.4,2.7L462,669.3 M458.9,663.2l-0.9,1.4l-0.6-0.6l0.1-0.5l0.4-0.4l0.4-0.5L458.9,663.2 M454.2,657.5
		l-0.9,0.2l-0.4-0.5l-0.5-0.5l0.2-0.6l0.5-0.2l0.9,0.7l0.3,0.6L454.2,657.5 M455,655.1l-0.5,0.6l-0.2,0l-0.1-0.3l-0.1-0.2l-0.2-0.4
		l-0.2-0.8l0.3-0.7l0.5,0.1l-0.1,0.7L455,655.1 M449.7,653.6l0.4,0.4l-0.7,0l-0.7-0.6l0-0.7l0.2-0.3L449.7,653.6 M443.5,643.5
		l-0.5,0.2l-0.4-0.4l-0.1-0.5l0.3-0.4l0.3-0.2l0.3,0l0.4,0.8L443.5,643.5 M437.1,626.7l-0.3,0.5l-1.3-0.1l-0.1-1.3l-0.5-1.2l0.1-0.6
		l0.8-1l0.7-0.5l0.7,1.1l0.4,1.1L437.1,626.7 M437.7,616.2l-0.5,0.3l-0.6-0.2l0.4-0.6l-0.1-1l0.7,0.5l0.1,0.6L437.7,616.2
		 M440.3,607.5l0.8,1.6l-1.1-0.6l-0.4-0.5l0.4-0.4L440.3,607.5 M435,597.9l-0.3,0.9l-0.3-1.7l0.1-0.2l0.2-0.1l0.3,0.1L435,597.9
		 M437.7,614.2l-0.2,0.3l-0.4-0.3l-1.5-2l-0.4-1.4l-0.4-0.4l0.3-0.8l0.5-0.3l0.2-0.8l-0.1-1.2l0.3-1.1l0.2-0.3l0.9-0.2l0.2-0.2
		l-0.3-0.9l-0.6-0.3l-0.2-0.2l-0.3-2.3l0-0.9l0.2-0.7l-0.4-1.3l0.1-0.5l0.5-0.8l0-1.6l-0.3-0.4l0.2-2.4l-0.3-1.6l0.6-1.7l1.1-0.9
		l0.4-0.1l0.3,1.3l0.2,0.4l-0.6,0.9l0.9,0.9l0,0.4l-0.1,0.9l-0.3,0.9l-0.6,0.4l-0.3,1.2l-0.2,0.4l1.1,1l0.9,3.8l-0.5,1.2l-0.8,0.3
		l0.6,2.5l-0.1,0.6l-0.6,1.4l-0.1,0.6l-0.4,0.6l0.3,0.6l0.4,0.2l0.1,0.5l-0.1,1.4l0.2,1.5L437.7,614.2 M253.6,366.8L253.6,366.8
		l-0.6-1.1L253.6,366.8l-0.4,1.1l0,0.9l0.6,1l0.5,0.7l-0.6,0.9l-0.4,1l0.3,0.5l-0.2,1.5l0.2,0.3l0.4,0.1l0.6-0.1l0.6-0.4l0.5-0.1
		l0.3,0.1l0.5-1.1l0.4-0.1l0.7,0.3l1.3,2.2l1.1,1.8l0.2,0.3l0.1,0.1l0.2,0.2l1.2,1l0.8,0.6l1.1-0.2l1.5,0l0.9,0.6l0.5,0.4l0,0.1
		l0.1,0l0,0l1.7,1.4l0.8-0.1l0.5,0.4l0.1,1l-0.3,1l0,0.5l0.8,0.1l1.7,0.7l1.5,0.6l0.8,0.2l0.8,0.5l0.7,0.7l1.4,0.9l1.3,0.7l0.3,0.9
		l-0.5-0.2l-0.7,0.1l-0.7,0.4l-0.3,0.3l-1.6,1.6l-0.8,0.5l-0.7,0.7l-1.7,2.2l-1,2.1l-0.7,1.9l0,1.4l-0.3,1.6l-0.7,0.9l-0.5,0.3
		l-0.5,1.4l-0.4,1.6l0.2,0.5l0.9,0.7l0.9,0.7l1.1,0.8l1.1,0.7l1.1,0.8l0-1.5l0.7-0.3l0.8,0.6l1,0.8l1.8,1.4l3.5,1.3l1.4,3.1l1.5-0.3
		l5.1,3.9l2.2-0.9l4.4,3.1l2.9-0.6l0.6,2.8l4.9,0.5l1.6,1.6l0.8-2l5.1,1.4l0.7-1l1.5-0.4l0.7-0.4l1.6,0.8l2.9,0.9l1.5,0.6l0.4,0.6
		l0.2,0.6l0,1.4l0.4,0.6l3,1.3l1,0.6l0.8,0.2l0.4,0l0.3,0.2l0.3,0.8l0.2,0.2l0.6,0.2l0.6,0.1l1.8-0.8l1.3-0.6l0.9,0.1l0.6,0.6
		l0.1,0.9l0.4,0.9l0.7,0.4l0.7,0l1.7-0.7l1.4,0.4l1.3,0.1l1.4,0.2l0.6,0.2l1.5,0.7l1.8,0.7l0.7-0.1l2.8-1.6l0.3,0.2l0.7,1.3l0.9,0.4
		l1.4,0.3l1.4-0.9l1.1,0.1l1.4,0l1.3-0.5l1.1-0.2l1.7,0.6l0.3-0.2l0.3-0.5l0.5-2l0.4-1.8l-0.1-1l-0.6-1.5l-1.5-1.9l-0.1-0.6l0.2-3.5
		l0.4-2l0.4-1l0.4-1.4l0-0.6l-0.1-0.6l-0.5-0.3l-0.1-0.4l0.1-0.4l0.3-0.2l1.5-0.4l1.6-0.7l0.7-0.3l0.5-0.3l0.5-0.5l0.5,0l1.5,0.5
		l0.6,0.4l0.4,1.2l0.3,0.5l-0.1,1.3l-0.7,3.1l0.3,1.1l0.8,0.8l0.7,0.5l-0.1,0.2l-1.3,1.1l-0.2,0.6l0.3,0.5l0.6,0.4l0.3,0.4l0.4,1.3
		l0.7,0.3l1.4,0.7l1.3,0.5l2-0.6l0.6,0.2l1,0.2l0.8,0l0.5,0.2l0.3,0.2l0,0.3l0.1,0.3l1.1,0l0.6,0.1l2-0.5l2-0.6l0.8-1.2l0.4-0.1
		l1.1-0.6l1.2,0.4l1.3,0.6l0.7,0.1l1.3,0l1.3-0.2l3.1-0.6l1.7,0l1.5-1.1l0.3,0l0.8,0.7l1.7-0.1l0.9-0.4l1-0.4l0.6-0.2l0.5-0.1l0.6,0
		l0.5-0.3l0.2-0.5l-0.1-0.7L404,424l-0.4-0.4l-0.1-0.2l0.1-0.6l0.2-0.9l0.5-1l-0.5-0.9l-0.7-1l-0.4-0.1l-1.1,0.4l-1.2,0.1l-1-0.5
		l-0.8-0.7l-0.2-0.6l0.1-0.8l0.2-0.8l0-0.3l0.9-0.1l1.3,0l1,0.1l0.8-0.1l1.3-1.1l0.6-0.1l0.7-0.3l0.3-0.2l0.2,0.1l0.8,0l0.8-0.1
		l0.7-0.3l0.7-0.5l1.2-1l0.2-0.5l-0.1-0.5l-0.3-0.3l-0.3-0.1l0.1-0.4l0.5-0.7l1.9-1.2l1.5-1.4l0.8-1l0.3-1.2l0.4-1.3l0.4-0.5
		l1.1-0.4l3.3-0.8l1-0.6l1.4-1.1l0.7-0.8l0.4-0.6l0-0.6l1-0.3l0.8-1.1l1-1.2l1.8-1.1l1.5-1.4l0.6,0.1l0.7,0.5l0.4,0.6l0.1,0.3
		l2.2,0.1l0.3-0.1l1.6,0.4l1.5,0.5l0.8,0.1l0.4-0.1l0.3-0.2l0.3-0.6l0.3-0.5l0.2-0.2l-0.1-0.7l1.9-1.6l1.8-1.2l1.5-0.9l0.5,0.2
		l0.6,0.5l0.9,1.2l0.5,0.3l1.1-0.3l0.2,0.1l-0.1,0.5l-0.7,0.7l-0.9,0.7l-0.6,0.5l0.4,1.4l0,0.5l0.3,0.1l1.8-1.7l0.9-0.4l0.4,0.3
		l0.2,0.8l1,1.5l0.4,0.8l-1.7,2.2l-0.6,1.1l0.1,0.3l0,0.3l-0.4,0.6l0.1,0.2l0.5,0.3l0.5,0.2l0.2,0l0.4-0.5l1.8-0.9l0.6,0l1.5,0.8
		l0.6,0l1.6,0.1l1-0.5l0.8,0.2l1.7,1l0.4,0.2l0,0.8l0,0.9l0.5,0.6l0.1,0.6l0,0.6l-0.3,0.4l-0.8,0.3l-0.6,0.8l-1,1.1l-0.8,0.9
		l-0.6,0.8l-0.1,0.7l0.2,0.9l0.3,0.9l2.7,3l0.1,0.6l-0.7,0.3l-1-0.2l-0.9-0.4l-1.1-1.3l-0.8-0.3l-0.7,0l-4.2,1.3l-0.9,0.3l-1.3,0.7
		l-0.8,1.2l-0.6,1.1l-0.7,0.5l-1,0.9l-2.7,2.8l-1.6,1.3l-1.1,0.5l-0.7,0.6l-0.3,0.9l-0.2,0.7l0.1,1.6l0.4,1.9l0.6,1.2l0.3,0.2
		l0.1,0.4l-0.3,0.7l-0.5,0.6l-0.2,0.4l0,1.8l-0.4,0.9l-0.8,1.4l-0.7,1.1l-1.2,0.9l-0.4,0.7l-0.3,1.2l-0.2,1l0,0.3l0.2,0.3l0.6,0.3
		l0.7,0.2l0.4,0.5l0.1,0.6l-0.3,1.5l-0.6,2.1l-0.8,1.7l-0.9,1.7l-0.2,0.5l-0.7,2l-0.5,2.7l-0.3,1.8l-0.3,1.2l-0.6,0.1l-0.8-0.3
		l-1.8-0.3l-1.2-0.3l-0.9-0.3l-0.6,0.1l-0.8,0.3l-0.8,0.3l-0.5-0.1L423,459l-0.3,0.2l-0.1,0.5l1.1,3l0.6,1.1l0.2,1.9l0.1,2.3l0,2.6
		l-0.1,0.6l-0.4,0.7l-0.6,0.3l-0.6-0.2l-0.4,0.1l-0.1,0.4l0.3,1.1l-0.4,1.3l-0.3,1.1l0.2,1l0.3,1l0.9,2.2l0.1,0.8l0,0.8l-0.3,0.4
		l-0.6,0l-0.3,0.4l-0.2,0.5l-0.4,1.8l-0.6,0.3l-0.7-0.2l-1.1-1l-0.6-0.3l-0.4,0.1l-0.1,0.3l-0.2,0.7l-0.2,0.5l-0.6,0.5l-0.3-0.8
		l-0.9-4.4l-0.4-1.4l-0.5-1.9l-0.4-0.6l-0.5-1l-0.5-0.9l-0.4-0.4l-0.4-1.7l-0.3-2.1l-0.1-1l-0.8-2l-0.8-2.3l-0.7,0.2l-0.5-0.5
		l-0.3,0l-0.9,0.6l-0.8-0.1l-0.5,0.1l0.1,1.1l0.2,1.1l-0.2,0.4l-1.3,1.5l-0.3,1l0.2,1l0.3,1.3l-0.2,0.7l-0.6,0.7l-0.8,0.4l-0.8-0.1
		l-0.5-0.5l-0.6-1.3l-0.5-0.7l-0.4-0.1l-0.3,0.2l0,0.8l0.1,0.7l-0.1,0.1l-0.2-0.1l-0.3-0.3l-1.1-3.3l-1.3-2.5l-0.2-1l0.2-1.3l0.2-2
		l1.1-1.3l0.1-0.5l0.1-0.4l0.3-0.1l1.5-0.1l0.5-0.3l0.4-0.6l0.6-0.5l0.6-0.3l0.5-0.1l0.9,0.3l0.3-0.3l0.2-0.8l0.3-0.8l0.2-0.4
		l0.5-0.2l0.7-0.1l0.2-0.2l0.2-0.3l0.1-1.1l0.6-2.5l0.2-1.1l0-0.2l-0.2-1.2l0.2-0.2l1.6,0.4l0.7-0.1l0.3-0.3l0.1-0.4l-0.2-0.5
		l-1.2-0.8l-2-1l-1.8-0.5l-3.2,0.5l-3.2,0.6l-1,0l-1.2-0.2l-2.9,0.3l-3.5,0.5l-1.3,0l-0.7,0.1l-1.3,0.2l-2.2-0.1l-1.5-0.3l-1.4-0.4
		l-1.6-0.3l-0.4,0l-0.2-0.1l-0.2-0.4l-0.1-0.5l0.1-2.3l-0.6-3.5l0.1-1.3l-1.5-2.8l-0.5-0.5l-0.6,0l-0.3,0.4l-0.1,0.7l0.3,0.7
		l-0.4,0.9l-0.9,0.4l-1.1-0.2l-0.9-0.3l-1.2-0.8l-1-1.1l-0.2-1.3l-0.5-0.8l-0.6-0.4l-0.4-0.1l-0.3,0.1l-0.3,0.5l0.3,0.4l0.4,0.6
		l-0.1,0.5l-0.3,0.1l-0.5-0.1l-0.8,0.2l-0.8-0.3l-0.5,0l-0.5-0.1l-0.1-0.8l-0.8-0.9l-1.2-1l-1.2-0.6l-0.5,0.1l-0.2,0.8l0.1,0.3
		l0.4,0.1l0.6,0.4l0.2,0.4l-0.1,0.4l-0.7,0.8l-0.4,0.7l-1,1.1l-0.9,1.2l-0.2,0.9l-0.3,0.8l-0.1,0.9l0.3,0.6l0.5,0.3l1.2,0.2l1.3,1.1
		l1.1,1.5l0.6,0.4l1.1,0.4l2-0.1l0.3,0.4l0.4,1.1l0.4,0.4l1.1,0.5l0.1,0.4l-0.2,0.5l-0.4,0.4l-0.8,0.3l-0.8,0.2l-0.8-0.1l-1.2,0
		l-1.3,0.1l-0.7,2.9l-0.6,1.1l-0.4,0l-1.1-0.4l-0.4,0.1l-1,2.6l-0.1,0.6l0,0.5l0.7,0.9l0.8,0.7l0.9,0.2l0.7-0.3l0.6,0.3l0.8,0.8
		l1.2,0.4l1.7,0.1l1,0.6l0.2,0.5l0,0.6l0,1.5l-0.1,0.9l-0.7,2.3l-0.5,2l0.4,0.9l0.3,0.3l0.2,0.3l0.8,0.6l0.6,0.7l-0.3,1.8l0.3,0.5
		l1,0.2l1.1,0.1l0.4,0.3l-0.7,1.9l0.3,1.3l0.5,1.2l0.5,1.9l0.1,0.2l0,0.5l0.7,1.5l1.2,2.9l0.2,1.1l0.1,1.2l-0.1,2l-0.9,0.1l1,1.2
		l0.4,0.9l0.2,1.3l-1,0.3l-0.7-0.1l-0.7-1.1l-0.2,1.1l-1,1.1l-0.4-0.4l-0.3-0.5l-0.1-0.9l0.2-3.5l-0.2-0.4l-0.3-0.2l-0.6-0.1
		l-0.3-0.7l-0.5,3.7l0.5,1.4l-0.1,0.7l-1.6,0.7l-1.8-1.2l-0.3-0.4l0,0.8l-0.2,1l-1.6,0l-0.8-0.7l0.4-1.3l0.7-3.1l0.1-1.4l-1.4-0.9
		l-1.1-0.5l-0.7-1.3l0.4,1.5l0.6,0.5l0.9,0.3l1,0.7l-0.6,1l-0.6,0.6l-1,2.3l-1.4,1.4l-1.6,1.1l-5.5,1.9l-1.1,0.7l-1.6,1.9l-1,1.7
		l-0.1,1.7l0.8,1.7l0.8,2.7l0.5,0.5l-0.5,1.1l-1,1.2l-0.7,1.5l0.2,0.8l-0.2,0.6l-2.9,2.1l-0.5,1.1l-0.7,1.1l-1.1-0.5l-0.6,0.1
		l0.9,0.8l-0.1,0.6l-0.3,0.3l-0.7,0.4l-4.3,1.7l-3.2,1.6l-0.9,0l0.1-0.4l0.6-0.4l-0.2-1.4l-0.6-0.2l-0.5-0.1l-2.4,2l-0.9,1.8
		l0.2,0.3l0.6-0.1l1.6-1.1l0.8,0.2l0.1,0.4l-2.5,1.7l-5.1,5.4l-0.2,1l-0.6,1.2l-0.9,1.1l-1.6,2.7l-3.1,4l-0.8,1.5l-5.3,3.4l-0.9,0.9
		l-2,3l-2.2,2.5l-2.6,2.2l-4.6,2.9l-2.7,2.6l-0.8,1.6l0,0.6l0.4,0.7l0.6,0.7l0.2,0.5l-0.2,1l-0.1,0.6l-0.7,1.4l-1.4,1.1l-4.6,2.5
		l-0.6,0l-4-0.1l-1.4,0.5l-0.5,1l-1,4.1l-1.2,1.2l-0.4,1l-0.1,0.7l-0.8,0l-0.7-0.2l-0.5,0.3l-0.7-1.3l-1-0.2l-0.8,0l-3.2,1.6
		l-1.1,1.2l-2,5.3l-0.3,3.4l0.9,3.6l1.1,2.8l0.3,1.3l0,1.7l-0.4,0.9l-0.2,1l0.6,2l1.3,2.6l0.4,1.1l0.1,1.2l1.1,2.6l-0.6-0.4
		l-0.5-1.1l-1.1-1.3L276,609l0.8,1l2.4,1l0.8,0.9l-0.6,9.1l-0.8,3.3l-1.2,2.2l-0.6,0.9l-1.3,3.5l-0.7,4.1l-0.1,1.6l0.7,1.7l-0.5,1.1
		l-0.6,0.9l1.4-0.5l0.6,0.9l0.3,0.9l0.7,5.7l0.6,6l-1,0.4l-1.2,0.2l-1.1,0l-0.8-0.1l-1.8,0.5l-0.9,0.8l-0.7,1.2l0.3,1.9l-2.9,5.1
		l-0.6,1.7l-0.1,1.5l0.6,0.7l1,0.7l1.2,0.2l2.3,0l1.1,0.3l0.8,0.7l-2.7-0.5l-3.1,0.2l-7.2,3.2l-1.8,1.8l-0.9,1.5l-0.4,3.2l0.1,2.1
		l-0.7,1.8l-3.6,3.2l-2.4,1.1l-0.8,0.8l-3-0.5l-3.5-1.9l-1.5-1.1l-5.5-5.4l-1-0.7l-1.3-2.5l-0.3-0.9l-0.3-0.4l-0.5-0.2l-0.3-0.4
		l-1.4-2.8l-0.8-3l-1.1-3.4l0.6,0.2l0.9,1l0.6,1.6l0.3,2.3l0.6,0.2l0.5-0.3l-2.1-5.1l-1.5-1.2l-0.4,0l-0.5-0.8l-0.2-1.1l0.1-0.5
		l-1.3-1.6l-0.5-1l-2.9-5l-1.4-3.7l-2.1-4l-1.2-1.4l-2-3.1l-1.5-1.4l-1.7-1.9l-1.2-0.8l-0.5-0.4l-4-6.8l-1.4-3.8l-1-1.8l-0.6-1.4
		l-1.6-5.9l-0.1-1.1l-0.2-1.2l-1-2.5l-1.7-2.6l-0.5-1.7l0-0.7l-1.1-2.6l-0.3-1.2l-0.7-1.1l-0.8-1l-0.8-0.8l-2-2.6l-0.7-0.6l-1.3-1.7
		l-1-3.2l-1.2-1.2l1.8-0.1l-1.1-1.1l-0.6-0.8l-0.6-0.5l0.8-1.2l-1.4,0.1l-0.8-0.7l-1.1-2.2l-1.9-2.5l-0.4-1.4l-1.7-4.3l-1.6-10.4
		l-1.3-4.6l0.1-1.3l-1.5-4l-0.8-2.7l-0.3-2.3l-0.4-1.5l-0.4-3l-0.6-0.9l-0.1-0.6l0.4-1.4l1-2.1l0.4-1.3l-0.5-1.9l-0.9,2l-0.9,0.6
		l-0.4-1.5l0-2l-0.1-0.5l0.2-0.7l2.4,0.3l-2.7-1.2l-0.3-0.7l-0.1-0.5l0.6-1l-1-0.8l-0.4-2.5l-0.3-0.6l-0.1-0.5l0.6-3.5l2.3-6.8
		l0.2-1.5l-0.2-2.2l-0.5-1.7l-0.2-1.8l-0.1-0.5l-0.8-0.2l-0.8-0.7l-0.9-2.7l0.8-0.9l0.6-0.5l-0.9,0.2l-0.7-0.1l1.4-1.2l1.2-0.9
		l2.8-1.1l1.2-0.7l-1.8,0.6l-1.8,0.2l-3.9-0.2l0.7-2.5l0.7-0.8l0.7-0.5l-1.1,0.1l-1.2-0.2l0.5-2.6l1-0.5l1.1-0.1l1.3-0.3l-1.4-0.5
		l-1.5-0.2l-1.8,0.4l-1.6-0.4l-2-0.1l0.8,0.4l0.8,0.8l-0.5,1.4l-0.4,0.9L168,498l-0.9,0.9l-0.3,0.8l-0.5,0.5l0.9,0.4l0.9,0.3
		l0.5,0.7l0.6,1l-0.1,1.8l-2.5,4.3l-0.8,0.9l-6,2.5l-2.4,1.4l-5,1.7l-2,0.3l-2.2-0.4l-3.1-1.5l-4.7-3.8l-1.2-1.3l-3.7-4.9l-2.7-2.6
		l-2-2.4l-2.5-2.3l-2.3-3.1l-0.4-1.4l0.3-1.4l1-0.7l1.1,0.4l0.8,1.2l0.6,0.6l0.5,0.2l3.8-1.6l1.4,0.2l1-0.8l1.2,0.3l2.6-1.2l1,0
		l1.3-0.2l2.2-3.4l1.6-2.1l1-0.4l0-0.5l-0.2-0.7l-0.7,0.1l-0.5,0.6l-0.4,0.8l-0.4,0.5l-1.1-0.5l-0.8,0l-1,0.2l-3.6,1.1l-1.5,1.1
		l-1,0.2l-5.7-1.7l-5.4-3.4l-2.2-2.1l-1.3-2.6l-1.3-3.1l0.6-0.8l2.5-1.6l2.1-1.3l-1.8,0.5l-2,0.7l-1,0.5l-1.2,1.2l-1.5,0.2l-0.4-2
		l-0.2-1.9l1-0.5l0.7-0.3l1.3-0.2l1.5-0.1l1.3,0.1l1.8,0.2l0.4-4.3l0.2-0.4l0.3-0.2l0.3-0.1l0.2,0.1l0.3,0.7l0.5,0l0.5-0.3l1.1,0.4
		l0.9-0.1l0.9,0.3l1.5,0.1l2.8,0.1l1.5,0.2l0.9,0.8l1,0.8l1.2,0.2l1.7,0l1.2-0.2l0.6-0.7l0.5-0.6l2.6-0.8l2.7-0.6l0.8,0l0.2,0.5
		l-0.2,0.8l0.3,0.8l1,0.5l0.7,0.2l0.7-0.1l0.5-0.2l1.1-1.1l0.6-0.2l0.7,0.1l0.8-0.5l0-0.4l-0.5-0.2l-0.4-0.6l0.1-0.5l-0.1-0.7
		l0.1-0.7l0.4-0.5l0.6-0.4l-0.3-1l-0.8-2l-0.8-2.5l-0.8-2.1l-1.1-1.9l-0.5-1.3l0.3-2.9l-0.1-0.6l-0.4-0.4l-0.6-0.2l-0.8,0.2l-0.7,0
		l-1.6-0.2l-0.8-0.4l-1.9-3.1l-0.2-1.2l0.1-1.2l0.9-2l0.4-1.9l0.3-1.7l-0.1-0.5l-0.4-0.6l-0.7-0.5l-1.9-0.3l-2.2-0.8l-1.6-1.2
		l-1.1-0.7l-0.3-0.4l-0.1-0.5l0.5-2.1l0.8-2.3l0.5-0.7l0.8-0.7l0.6-0.5l0.9-0.6l2.4-2l2.3-2.9l1.4-2l0.7-0.6l0.7-0.5l1-0.6l1.1-0.5
		l1.1,0.1l0.9,0.7l0.7,0.7l0.1,1.5l0.4,1l0.5,0.6l0.7,0.3l1,0l4-1.3l1.3-0.2l3.2,0.1l2.2-0.4l2-0.5l0.3-1.2l0.9-1.7l2.4-2.1l0.7-1
		l0.9-1.9l0.9-1.7l0.7-0.7l3.6-1.7l3.5-1.5l0.6-0.8l2.5-3.6l1.5-2.4l0.4-0.8l0.9-2.2l1-2.1l1.1-0.4l2.3-0.6l1.9-0.7l1-0.9l0.6-0.8
		l0-0.8l-0.4-1l0.2-0.6l0.1-0.6l1.4-1l2.7-3.2l1.6-1.6l0.5,0l1.6-0.8l1.5-0.9l0-0.5L206,374l-0.8-0.3l-0.2-0.7l0.3-1l0.9-2.7
		l-0.1-0.8l-0.6-2.6l0.3-0.7l0.4-0.7l1-0.9l1.3-0.7l4-1.5l0.8-0.1l1.4-0.4l0.9-0.9l0.2-0.8l-0.3-0.6l-0.7-0.8l-1.4-0.8l-1.3-0.7
		l-2.3-0.2l-1.1-0.6l-0.3-0.4l0-1.2l0.4-2l-0.3-0.2l-0.5,0.2l-1.2-0.4l-1.5-0.1l-0.5-0.6l0.3-0.6l0-0.9l-0.1-0.9l-0.2-0.2l-0.7-0.3
		l-1-0.9l-0.8-1l-0.4-0.7l-0.1-0.4l0.1-0.3l0.7-0.7l0.9-1l0.4-0.9l0.2-0.7l-0.2-0.5l-0.6-0.7l-0.7-0.6l-0.2-0.5l0.1-0.7l0.4-0.9
		l0.9-0.6l1.6-0.5l0.5-0.8l0-0.6l-0.4-0.2l-1.1-0.1l-1.8-0.4l-0.3-0.4l-0.2-0.5l0-0.4l0.4-0.4l0.5-0.6l0-0.6l-0.4-0.8l-1.2-0.7
		l-0.1-0.7l0.3-0.6l0.5-0.8l0.4-0.5l1.1-1.6l1.1-0.2l1.3-0.4l1.5-0.4l2.1,0.7l1,0.3l2.1,0.8l1.7,0.6l1.8,0.3l0.8,0.1l0.8,0.6l2,1.1
		l1.6,0.6l1.1,0.1l1.8-0.6l0.9-0.6l1.2-0.6l1.4,0.2l3.2-0.9l0.6,0.3l0.9,0.2l1.2-0.6l0.6-0.7l0.1-0.4l0.3-0.3l1.2-0.4l1.2-0.6
		l0.4-0.9l0.2-0.6l1.4-0.7l1.4-0.7l1.5-0.8l1.7-0.9l1.4-0.7l1.2-0.6l0.1,0.2l0.4,0.3l0.5,0.2l0.6-0.2l0.7-0.2l0.3,0.2l0,0.4
		l-0.6,1.8l0,0.7l0.6,1.6l0.7,2.5l0.7,2.4l0.4,1.6l0.4,0.7l2,0.8l1.6,0.6l0.9,0.9l1,0.9l0.7,0.6l0.3,0.7l0,0.6l-0.1,0.4l-0.5,0.5
		l-2,1.2l-0.3,0.4l-0.1,0.5l0.3,1.7l0.2,1l-0.1,2.1l0,2l0.6,0.9l0.5,0.6l0.3,0.5l0.7,0.8l0.6,0.6l0.5,0.3l0.2,0.7l-0.2,0.8l-0.2,0.7
		l0,0.4l0.4,0.3l0.6,0.8l0,1.1l-0.1,0.7l0.2,0.7l0,0.7l-0.3,1.8l0,0.8l-0.6,0l-0.5,0.3l-0.7,1.1l-0.8,0.3l-0.9,0l-0.9-0.8l-0.7-0.8
		l-0.2-0.4l-0.1-0.8l-0.4-0.5l-0.8,0.2l-1.2,0l-1.3,0.1l-0.2,0.2l0,0.3l0.3,0.7l0.2,0.9l0.1,1.3l0.3,0.9l0.1,0.3l1.9,2.6l0.5,0.5
		l0.1,0.3L253.6,366.8 M188.9,692.2l-0.2,0.2l-0.2,0.1l-0.1,0l-0.1-0.2l0-0.1l0.2,0.1l0.2-0.2l0.2-0.5l0-0.2l0.1,0.1l0,0.3
		L188.9,692.2 M180.6,650.9L180.6,650.9l-0.1-0.2l0.1-0.4l0.1-0.3l0,0l0,0.3l0,0.4L180.6,650.9"/>
</g>
<g id="Uttar_Pradesh">
	<path vector-effect="none" fill="#F0C30E" d="M311.7,426.4l1.5,1.9l-0.4,1.4l0.9-0.1l0.5,2.6l2.2,0.4l-0.1,1.6l2.1,1.3l-3.8,0
		l-0.4,1.3l-1.6,0.3l0,0.9l3.1,0.9l-0.1,1.6l-1.8,0.1l0,0.8l2,2.3l4.2,1.3l1.3,1.8l-1.6,0.7l-1.9-0.8l-0.7,1.1l-2.1-0.7l-2.8,3.8
		l-5.6,3.3l-0.3,2.4l0.9,3l1.9,1.9l-0.4,1.3l-1.2,0.4l0.8,1.7l-1.4,3.5l-2.7,3.1l-3.4-1l-0.2-0.2l0-0.3l-0.7-0.1l0-0.2l0.2-0.2
		l0.1-0.4l-0.1,0.1l-0.1-0.1l-0.1,0.1l-0.2-0.1l-0.2,0.1l-0.1-0.3l-0.5-0.4l0.2-0.4l0.2,0.2l0.4,0.1l0.2-0.4l-0.1-0.7l0.3-0.2l0-0.3
		l0.2-0.5l-0.1-0.9l-0.1-0.1l-0.5,0.1l-0.1-0.2l0.1-0.5l0.2-0.1l-0.1-0.6l0.2-0.3l-0.3-0.3l0-0.2l0.1-0.1l-0.1-0.2l0.4,0l0,0.2
		l0.7-0.2l-0.1-0.6l-0.4,0l0.2-0.2l-0.1-0.4l-0.8,0.1l-0.1-0.5l-0.4-0.3l-1.5,0.7l-0.2-0.4l-0.9,0.1l0-0.2l-0.3-0.2l-0.3,0.3
		l0.1,0.3l-0.1,0.3l0.1,0.4l-0.1,0.1l-0.6-0.1l-0.3-0.3l-0.2,0.2l-0.3,0l0-0.8l-0.2,0l-0.2-0.2l-0.1,0.1l0.1,0l-0.1,0.2l-0.2-0.1
		l-0.1,0.1l-0.1-0.3l0.2-0.2l0-1l0,0.3l-0.1-0.2l-0.1,0l0.1,0.2l-0.2-0.1l-0.1,0.1l0.2,0.3l-0.1-0.2l-0.4,0l0.3-0.3l-0.1-0.3l0.3,0
		l-0.1,0l0.1-0.2l-0.4,0l0.2-0.3l-0.4,0.3l0.2,0.1l-0.1,0.1l-0.3-0.1l-0.3,0.2l-0.3-0.4l-0.9-0.4l-0.5,0.1l-0.1,0.2l-0.8-0.8
		l0.2-0.5l-0.1-0.2l-0.1-0.9l-0.1,0.2l-0.7-0.3l-0.5,0.2l-0.5-0.4l-0.8-0.1l0-0.1l-0.3-0.2l0-0.1l-0.4,0.3l-0.2,0l0.1-0.1l-0.2-0.2
		l0.4-0.4l-0.1-0.2l-0.2,0.3l0-0.2l-0.2-0.2l0.3-0.1l0-0.2l-0.1-0.1l-0.3,0.1l0.1-0.2l-0.2-0.1l-0.4,0.1l-0.2,0l0,0.2l0.3,0.2
		l-0.1,0.2l0.1,0l0,0.1l-0.3-0.1l0,0.3l-0.2,0l0.1,0.2l0.3,0.2l-0.3,0.4l-0.3-0.2l-0.7-0.2l0.4-0.1l-0.1-0.3l-0.3,0l0,0.1l-0.1,0
		l-0.3-0.2l-0.2-0.4l-0.3-0.1l-0.2,0.1l0.1,0.6l-0.2-0.6l-0.4,0l0,0.2l-0.3,0.6l0.2,0.3l0,0.4l-0.4,0.7l-0.2-0.1l0,0.1l0.1,0.2
		l-0.2,0.2l0.2,0.5l-0.3,0.1l0.2-0.1l-0.4-0.3l-0.1,0.6l-0.1,0l-0.1,0.3l-0.5-0.4l-0.1-0.4l-0.6,0l-0.1,0.2l-0.1-0.1l0.2,0.2
		l-0.1,0.1l-0.2-0.1l-0.2,0.2l-0.2-0.1l-0.2,0.2l-0.1-0.6l-0.6,0.2l0.1,0.2l-0.2-0.1l-0.6,0.2l0,0.1l-0.3,0l0.1-0.1l-0.3-0.4l0.4,0
		l0.3-0.3l0-0.2l-0.2-0.3l0.5-0.4l-0.1-0.2l0.1-0.3l-0.1-0.2l0.1-0.3l0.2,0l0.2-0.3l-0.4-0.4l-0.2,0.1l-0.4-0.1l0.2,0.2l-0.2,0.2
		l0,0.6l-0.1,0.1l-0.1-0.3l-0.2,0l-0.1-0.2l-0.2,0.1l-0.1-0.2l-0.4,0.2l-0.2-0.2l-0.3,0.2l0,0.1l0.3,0l0,0.3l0.3,0l0.4,0.2l0.1,0.2
		l-0.1,0.1l-0.5,0l-0.2-0.1l-0.5,0.2L275,457l0.1-0.2l-0.1,0l-0.1,0.2l0-0.2l-0.2-0.1l-0.2,0.1l-0.2-0.2l0.4-0.2l-0.1-0.2l-0.2,0.1
		l-0.1-0.3l-0.1,0.3l0.1,0.1l-0.2,0.2l0.2,0.5l-0.5-0.3l0,0.2l-0.2,0.1l-0.3-0.2l0-0.2l-0.5,0l0.3,0.2l-0.1,0.1l0.1,0.2l-0.1,0.2
		l0.5,0.2l0,0.4l-0.6,0l-0.3,0.4l-0.3-0.1l0.1-0.3l-0.4-0.3l0.2-0.2l0.3,0.1l0.3-0.1l-0.3,0l-0.1-0.4l-0.2,0l0-0.2l-0.2,0.2
		l-0.2-0.1l-0.1,0.2l-0.1-0.1l-0.2,0.2l-0.2,0l0,0.1l0.2,0.1l-0.1,0.1l0.2,0.2l-0.1,0.1l-0.3-0.2l-0.1,0.1l-0.2,0l-0.1,0.3l-0.6-0.4
		l-0.1-0.1l0.2-0.2l0-0.2l0.3,0.2l0.3-0.2l0.2,0l-0.1-0.1l0-0.3l0.3-0.3l-0.3-0.2l0-0.2l0.9-0.4l-0.4-0.9l-0.2,0.1l-0.4-0.5
		l-0.5-0.1l0.1-0.6l-0.1-0.3l0.1-0.2l-0.1-0.3l-0.3-0.4l-0.3-0.1l-0.1,0.3l-0.2-0.1l-0.2,0.1l-0.2-0.2l-0.1,0.5l-0.3,0l0,0.2
		l-0.4,0.4l-0.5-0.3l-0.2,0.2l-0.5-0.1l-0.2,0.2l0,0.3l-0.3,0.2l0.1,0.3l-0.7,0l-0.4,0.5l-0.1-0.3l0,0.2l-0.4-0.2l-0.3,0.2l0.2,0.3
		l-0.1,0.3l0.2,0.7l-0.3,0.4l0.2,0.2l-0.4,0l-1-0.5l-0.4,0.1l-0.4-0.1l-0.1,0.2l-0.6-0.2l-0.3,0.2l0.1-0.3l-0.1,0.1l-0.4-0.4
		l-0.4,0.5l-0.2,0.1l0.1,0.4l-0.2,0l-0.1,0.2l-0.3-0.1l0.1-0.5l-0.4,0.4l0-0.3l-0.2-0.1l0,0.2l-0.2,0.2l-0.3-0.5l0.1-0.3l0.2-0.2
		l0.1-0.2l0.3,0l0.1-0.2l-0.2-0.1l0.4-0.6l0.4,0l-0.4-0.2l0,0.1l-0.2,0.2l-0.4,0l-0.1-0.2l-0.4-0.2l0,0.3l-0.2,0.1l0-0.3l-0.3-0.1
		l0.2-0.5l-0.6-0.1l-0.1,0.2l-0.2,0l-0.2,0.2l-0.1,0.5l0.2,0.1l0.1-0.3l0.3,0.4l0.2,0l0.1-0.2l0.2,0.1L259,455l-0.2,0l0.2,0.2
		l-0.1,0.2l-0.2-0.3l-0.6-0.3l0.1,0.7l0.1,0.1l0.1-0.2l0.1,0.1l0,0.3l0.2,0.4l-0.2,0.2l-0.3,0l-0.1,0.2l-0.2-0.1l0-0.4l-0.2-0.1
		l-0.2,0.2l0.3,0.1l-0.1,0.3l-0.2-0.1l-0.2,0.1l-0.3-0.4l-0.2,0.1l0,0.2l0.1,0l0,0.1l-0.1,0.1h-0.5l-0.1,0l0.1-0.2l-0.2-0.2l0.1-0.3
		l-0.4-0.2l-0.1-0.2l-0.5,0.7l-0.3-0.1l0.1-0.4l-0.1-0.2l0.2-0.3l0,0.2l0.1,0l0-0.4l-0.3-0.2l0.1-0.1l-0.2,0l0-0.3l-0.1-0.2l-0.2,0
		l-0.2,0.4l0.3,0.1l0.1,0.5l-0.6-0.3l-0.3,0.2l-0.3,0.5l-0.3,0.1l-0.1-0.4l0.2-0.4l-0.2-0.2l0.1-0.3l0.2,0.1l0.2-0.4l0.5,0.2l0-0.3
		l0.3,0l-0.2-0.4l0-0.5l-0.3,0.2l-0.1-0.2l-0.1,0.1l-0.4-0.1l0,0.2l-0.2,0.1l0.1,0.1l0.1,0.3l-0.1,0.1L253,455l-0.1-0.3l-0.3-0.2
		l0.1-0.4l0.1,0l-0.1,0l-0.2,0.2l-0.1-0.1l0.1-0.2l0.3,0.1l0.3-0.4l0.1,0l-0.1-0.2l0.5-0.5l0.9-0.2l-0.2,0.3L254,453l-0.3,0.1l0,0.2
		l0.5,0.2l0.2-0.3l0.3,0l0-0.1l-0.2-0.1l0.1-0.4l-0.1-0.2l-0.2-0.1l-0.2,0.2l-0.3-0.2l0.3-0.3l0.1-0.3l-0.2-0.1l0.2,0l-0.2-0.3
		l0-0.1l0.2,0l0.2-0.2l-0.2-0.3l-0.2,0.3l-0.1-0.2l-0.4,0l-0.1,0.2l0.2,0.1l0,0.2l-0.6,0.1l-0.1,0.1l0.2,0.2l0.1,0.3l-0.2,0.5
		l-0.2,0l-0.1-0.1l0.4-0.1l-0.2-0.1l0-0.1l-0.2-0.1l-0.2,0.2l0.1-0.2l-0.3-0.2l-0.4,0.2l-0.2-0.4l-0.1,0.1l-0.1,0.4l0.2,0.2l0.1,0.3
		l0.5-0.1l0.2,0.2l-0.9,0.2l0,0.2l0.2-0.1l-0.1,0.2l0.2,0.1l0,0.3l-0.6,0.1l-0.2-0.1l0.1-0.3l-0.2-0.2l0,0.2l-0.4-0.1l0-0.4l0.1,0.2
		l0.4-0.4l-0.3-0.2l-0.1,0.2l-0.3-0.1l-0.2,0.1l0,0.3l-0.1,0.2l-0.2-0.2l-0.2,0.1l-0.1,0.3l-0.3-0.1l0,0.2l0.3,0l0,0.4l-0.3,0.1
		l-0.1-0.2l-0.2-0.1l0,0.1l0.1,0.1l0,0.2l0.2,0.1l-0.2,0.3l-0.3,0.1l-0.1-0.3l-0.3,0.5l-0.3-0.2l-0.2,0.2l0.2,0.3l0.6-0.4l0.1,0.2
		l0.2-0.1l0,0.2l0.5,0.2l-0.3,0.5l0.2-0.1l0.3,0.8l0.1,0.9l0.3,0.1l0.3,0.4l-0.1,0.9l-0.1,0.3l0.4,0.3l0.2,0.6l1.2,0.5l0.2,0.6
		l-0.2,0.3l0.1,1.1l-0.5,0.7l0.1,0.7l0.4,0.2l0.3-0.2l0.4,0l0.1-0.2l0.2,0l0.2-0.3l0.2,0l0.4,0.8l0.4,0.4l-0.1,0.2l0,0.4l0.3,0.1
		l-0.4,0.2l-0.2,0l0.1-0.1l-0.2-0.1l-0.1,0.5l0.3,0.1l0.1,0.2l0.5-0.1l0.1,0.2l-0.3,0.7l0,0.2l-0.8,0.7l0.1,0.4l-0.4,0.3l0,0.4
		l-0.4,0.1l-0.3,0.2l-0.2-0.1l0,0.3l-0.2,0.1l-0.3-0.6l-0.1-0.5l-0.1,0.3l-0.2,0l-0.1-0.2l-0.1,0.2l-0.3,0.1l-0.4-0.2l-0.1-0.4
		l-0.3-0.3l-0.1,0.1l0-0.3l-0.3-0.1l-0.2-0.6l-0.7-0.2l-0.1-0.2l-0.2-0.1l-0.4,0.5l0,0.2l-0.4,0.3l-0.1,0.5l-0.2,0.2l-0.4,0l0-0.2
		l-0.4-0.2l-0.2-0.4l0.5-0.6l-0.1-0.1l-0.2,0l-0.1-0.2l-0.9-0.6l0.1-0.3l-0.4-0.2l0-0.3l-0.3-0.1l0.1-0.2l0.4-0.2l0.2-0.8l-0.2-0.5
		l0.2-0.2l-0.6-1.1l0.1-0.3l-0.2-0.5l-0.2-0.4l-0.3-0.1l-0.1-0.2l0.1-0.2l0.4-0.2l0.2-0.3l1.3-1.1l0.2-0.3l-0.1-0.9l0.5-0.2l0.4-0.4
		l0.5,0l-0.3-0.3l0.2,0l0.1-0.2l-0.4-0.1l-0.1-0.2l-0.2,0l-0.1-0.2l0.2-0.2l-0.6-0.4l0.2-0.2l-0.3-0.2l0-0.3l-0.2,0l-0.3-0.2
		l0.4-0.3l-0.2-0.3l-0.3-0.1l0.1-0.2l0.4-0.3l0-0.4l0.2-0.3l0.2,0.2l0.2,0l0.3-0.5l0.2,0l-0.2-0.4l0.1-0.1l-0.1-0.3l0.3-0.4l0.2,0.2
		l0-0.2l0.3-0.2l0.7,0.2l0.4,0l0.3-0.2l0.5,0.2l0.3-0.4l0.4-0.2l0.3,0.1l0.8-0.3l0.1-0.7l-0.3-0.3l0.1-0.1l-0.5-0.3l-0.1-0.3
		l0.3-0.1l0.3-0.6l0.3,0.1l0-0.2l-0.1-0.1l-0.1,0.1l-0.1-0.1l0.2-0.2l0.3,0.1l0.1,0.3l0.2,0.1l0.1-0.6l-0.3,0l0-0.2l0.3-0.3l0.2,0.1
		l0.1-0.4l-0.1-0.3l0.3-0.1l0.2-0.3l0.2,0l0-0.3l0.1,0l-0.1-0.2l0.3-0.2l-0.1-0.4l0.4-0.3l0.1-0.2l0.1,0l0.1-0.2l-0.7-0.6l0.2-0.3
		l0.4,0l0-0.2l-0.2-0.2l0.1-0.2l0.3,0l0-0.3l-0.4-0.3l0.3-0.1l0.3,0.3l0.3,0l0.1-0.2l-0.3-0.2l0.2-0.2l0.3,0.1l0-0.3l0.2-0.2l0,0.2
		l0.1,0l0-0.3l0.2-0.1l0.1-0.2l-0.7-0.3l0.1-0.3l0-0.4l0.4,0l0.1-0.4l-0.3-0.2l-0.2,0.1l0,0.1l-0.4-0.2l0.3-0.3l0-0.3l-0.2,0
		l-0.3-0.7l-0.2,0l0-0.3l-0.2-0.2l0.1-0.2l0.3,0l-0.3-0.5l0.2-0.3l-0.1-0.1l-0.2,0l-0.4,0.3l0.1-0.5l-0.5-0.2l-0.5,0.1l-0.6-0.8
		l-0.6,0l-0.2-0.4l-0.3,0.2l-0.1-0.3l-0.5,0.1l-0.2,0.3l-0.5-0.1l-0.2,0.3l-0.4,0l-0.7-0.4l-0.7-0.1l-0.3-0.5l-0.5,0.1l-0.3-0.6
		l-0.1-0.1l-0.9,0.2l-0.2,0.5l-0.7-0.3l0.2-1.5l-2.4,1.1l-3.1-1.1l-3.1,1.1l-0.6,1.4l-0.3-1.6l4.1-1.9l-3.1-1.1l2.1-1.4l-0.7-2
		l-2-0.9l-1.1-1.9l-0.6-3.4l0.2-0.4l0.4-0.1l0-0.2l0.2-0.1l0.9,0l-0.1-0.3l0.1-0.2l0.4,0.3l0.3-0.2l0-0.6l0.2-0.1l0.2,0.2l0.2-0.1
		l-0.1-0.2l0.2,0l0.2-0.2l-0.2-0.3l-0.1-0.5l-0.4-0.3l0.1-0.3l-0.2-0.3l0.1-0.2l0.2,0.1l0-0.2l0.2-0.2l-0.2-0.2l0.2-0.1l0-0.2l0.3,0
		l0.2-0.2l-0.1-0.2l-0.3,0l-0.2,0.1l0-0.3l0.1-0.1l0.3,0.2l0.1-0.2l-0.1-0.2l0.3-0.3l-0.6-0.1l-0.3-0.2l0.4-0.1l0-0.4l-0.4-0.4
		l0.4-0.4l-0.4-0.4l0.1-0.2L237,412l-0.1-0.3l-0.2,0l-0.1-0.1l0.1-0.1l-0.3,0l-0.2-0.2l0-0.2l-0.3,0l-0.1-0.2l-0.5-0.9l0.4-1.8
		l-1.4-2l-1-8.9l0.5-3.2l5.8-8l0-0.1l-0.1-0.1l4.3,2.2l-1.9,1.9l-1,2.7l1,2.9l1.8-0.5l-0.1,1.5l0.9,0.3l2-2.1l2.6-0.1l1.7,2.5l4.1,2
		l-2.7,1.7l1.6,0.9l0.5,1.5l2.6,0l0.4,1.5l2.4,0.5l0.8,1.7l4.4-0.3l-0.1,1.2l0.9-0.5l0.7,1.5l1.4-1.5l5.2,3.8l-0.1-1.6l0.8-0.2
		l3.9,3l3.3,1.1l1.4,3.1l1.5-0.3l5.1,3.9l2.2-0.9l4.4,3.1l2.9-0.6l0.6,2.8l4.9,0.5l1.6,1.6l0.8-2L311.7,426.4 M317.5,447L317.5,447
		L317.5,447L317.5,447 M272.2,456.3L272.2,456.3L272.2,456.3L272.2,456.3 M306.6,454.5L306.6,454.5L306.6,454.5L306.6,454.5
		 M272.7,457l0.1,0.1L272.7,457L272.7,457 M248.8,456l0.4-0.3l-0.2,0.1L248.8,456"/>
</g>
<g id="Text">
</g>
</svg>
