<svg id="Map" xmlns="http://www.w3.org/2000/svg" width="660" height="420" viewBox="-181.1 299.5 660 420"><g id="Asia" xmlns:inkscape="http://www.inkscape.org/namespaces/inkscape"><path fill="#181917" d="M-181.1 299.5h660v420h-660z"/><path fill="none" stroke="#464745" stroke-width=".4" stroke-linecap="square" stroke-linejoin="bevel" d="M218.1 292.6h-.6l-.7-.4-.2-.5-.1-.1-.7.2-1.2.2-2.1.8v.3l1.1 1.2.3.4.1.1-1.2.4-2.7.8-1.8.7h-.4l-.9-.5-1.4-.7h-.4l-3.4-.4-3.2-.3h-1.4l-2.5-.2-1.6-.2-1 .2-1.1.4-1.2.1h-.8l-1.1.3-.8.8-2.1 1-1.2.5-.7.6h-.6l-1-.3-.9.7-1.1 1-1.9 1.4-1 .5-.7 1 .3.6 1.2 1.1.5.9.2.7.4 1.7.1 1.6.5.8v1.9l-.4.5-.4.5-.1.5.3.6.2.5.1.4-.3.4-.7.6-.4.6-.9 1-1.2.6-.8.5-1 1.1-1.5 1.1-.7 1-.7.5-.6.2.1.6.4.8.7 1-.2 1.3-.2.9-.2 1.1-.6.9-2.4.6-2.3.1-2.7-.4-1-.3-.8-.3-2.8-1.5-1.3.4-.5 1.5 1.8 2.8.7 1.5.6 2.4.6 1.3-.4 1.1-2.2.9-2.3.8-2.5-.2-1.6.2-.9.5-1 2.5-.7.9-.2 1.1-.7 1.2-1 .7-.8 1.2-.2 2.6-.4 4.4-1.3 1.2-1.5 1.2-1.5.8-1.3.3-1-.3-.7-1-.4-.8-.8-.8h-.9l-1 .4-1.4-.4-1.2-.8h-.6l-.5.5-1.6 1-3.6 1.2-1.4-.1-.7.4.1.8.5.7 1 .6v.5l-1 .3-.9.4-1.8.3-2-.1-2-.7-.9-1-1.2-.3-1.3.4-1.4.8-1.7 1.9-.4.3-.4.3-.9.3-1.4.5-.9 1.4-1.2 2.6-.1 1.5-.4 2.6-.6 1.8-.8 1.1-.1 1 .6 1.2-.5.6-.9.3-.8.3-2.8.3-3.9.4-2.6.3-3.9.4-1.1.1-2.3-.3-1.1-.4-1.6-.3-2.3-.4h-1.7l-1.7.2-1.3.4-.8.5-.3.3-1.5-.9-5-2-14.3-1.7-1.3-.5-4.5-2.6-5.8-3.4-3.6-2.2-4.6-2.8 4.4-3.2 3.8-2.8 3.8-2.7 3.7-2.7.6-1.1.6-2.3v-3.3l-.8-1.7-3.8-1.6-2.9-1.2-3.1-1.3-.4-.3.3-2.5.5-1 .4-2.1.5-1.6 1.2-2.5.4-1.2v-11.7l.1-1 .3-1.1 2.7-2.1.8-.4 1.5-1 .9-.5v-.5l-1.1-.6-1.8-.6-.9-.7-.5-1v-1.1l1.1-1.7.6-3.8 1.6-1.5 1.2-1 3 .7-.6-1.7-.2-1-.2-.3v-.4l.3-.3.8.1.7-.3 1-.4.5-.2.3-.8.6-.4.8-.5.7-.7.2-1 .8-1 .4-.6.5-.5v-1.8l.2-.9.5-.1.7-.1.1-1.1.6-.8.4-.6.6-.4.2-.5.1-1 1 .2.2.6.3.8 1 1.7.8.6 1.1.5 1.5.3 1.2.1.5.2 1 1.3 1.1 1.7.3.7v.9l.3.4 1.2-.6h1l.8.4.9.4 1-.1.5-.1 1.9-.7 1.6-.4 1-.3.8-1.6.7-.9.7-.4v-.8l-.1-.6v-.8l.4-.3h.6l1.4.4 2.7-.1 2.3-.2 2.1-.1.9.1.8.3.4-.1.3-.6.6-.5 1.2-.2 2.2-.5 2.1-1.1.9-1 .9-1.6 1.5-2.5 1.7-2.7.7-1.2.6-.9 1.7-.4 1.7-.2 2.4.5 2.8.7 1-1.5.7-1.3.6-.6.8-.4.3-.1 1.3 1.2 1.9 1.9 2.5 1.3 1.2.7.6.1 3.4.5 2.5 1.1 1.1 1.7 1.3.7 1.5-.3.8.1.2.5.6.3 1 .2.5.5v.9l.5 1.2 1.1 1.6 1.1.6 1.8-.6.5.2.3-.3.3-.7 1.1-.5 1.9-.2 1.1-.3.4-.4h.6l.6.3.5-.1.3-.4.2-.2.4-.1h.3l.5.2.8 1 1.1 1.8.8.9h.4l.6-.3.8-.6.4-1.1V281l.5-1.1 1-.7 1.5-.3 2.1.2 1.3.4.4.6.6.4.8.2.8-.4.9-1 .3-1.4-.3-1.7.3-.5.3-.2.9-.4 1.3-1 1.4-1.4 1.4-1.7 1.5-.9 1.6-.2 1.7.9 1.9 1.9.5 2-.9 2.1-.3 1.2.4.3.7.1 1.1-.2.7.1.3.4-.1.6-.5.9-.9 2.5-.7 2.2-.7 2.2-.6 1.9.2 1.6.2 2.4.5 1.6.7.6.7.3h.8l1.7-.7 2.6-1.4 2.4-.7 3.3-.1 1.4-1.7 1.7-1 3.6-1.4 1.9-.4h1.1l1.3.5.3.2.2.1.6.3.1.6-.3.6-.8.4-.3.4.2.3 1 .3 2.2-.4 1.4-.2h1l.5-.5.7-.5.9.1 1 .4.8.3h1.4l.7.6.9 1.1.4.6-.4-.7M410.8 492.6l-.7.1-.4-.3.1-.5-.4-1.6.6-.2h.3l.2.5.3.9v1.1M409.5 488.7l-.3 1.1-.3-.7.1-1 .1-.5h.1l.3.5v.6M400.6 485.4l-1.1 1-.2-5.2 1.1 1.8.3 1-.1 1.4M405 482.3l-.5.4-.5-.3-.8-1.1.1-1.6.2-.2.4.5.6 1 .4.8.1.5M396.4 487l-2 .7h-1l1.6-3.5-.2-1.5-.4-1.2-1.1-.8-.1-.7-.5-.9-.3-1.1 1-.5.9.5.2.3.3.9.5.9 1.7 1.7.1 1.2-.1 2.9-.6 1.1M393.6 476.3l.3.5-.7-.2-.5-.3-.4-.5.5-.3.8.8"/><path fill="none" stroke="#464745" stroke-width=".4" stroke-linecap="square" stroke-linejoin="bevel" d="M368.3 436.9l.8.3.8-.2.5.1.3-.1.1-.5-.4-.6-.3-.4.3-.5.3-.1.4.1.6.4.5.8.2 1.3 1 1.1 1.2.8.9.3 1.1.2.9-.4.4-.9-.3-.7.1-.7.3-.4h.6l.5.5 1.5 2.8-.1 1.3.6 3.5-.1 2.3.1.5.2.4.2.1h.4l1.6.3 1.4.4 1.5.3 2.2.1 1.3-.2.7-.1h1.3l3.5-.5 2.9-.3 1.2.2h1l3.2-.6 3.2-.5 1.8.5 2 1 1.2.8.2.5-.1.4-.3.3-.7.1-1.6-.4-.2.2.2 1.2v.2l-.2 1.1-.6 2.5-.1 1.1-.2.3-.3-.1-.7.1-.5.2-.2.4-.3.8-.2.8-.3.3-.9-.3-.5.1-.6.3-.6.5-.4.6-.5.3-1.5.1-.3.1-.1.4-.1.5-1.1 1.3-.2 2-.2 1.3.2 1 1.3 2.5 1.1 3.3.3.3.2.1.1-.1-.1-.7v-.8l.3-.2.4.1.5.7.6 1.3.5.5.8.1.8-.4.6-.7.2-.7-.3-1.3-.2-1 .3-1 1.3-1.5.2-.4-.2-1.1-.1-1.1.5-.1.8.1.9-.6h.3l.5.5.7-.2.8 2.3.8 2 .1 1 .3 2.1.4 1.7.4.4.5.9.5 1 .4.6.5 1.9.4 1.4.9 4.4.3.8.1.5.5 4.1.3 1.7.6 1.4.1.5-.3.5-.4.1-.4-.7-.8-.4-1.2-.4-.5-.3-.6.2-.7 1-.2.8.3 1.1.4 1.1.7.6.1.7.3.9.4.8.3.9h-.2l-.8-1.1-.8-1.2-1.9-2.2-1-4.2-.3-2.1-1.4-2.3-1.1-3.3-.4-.8.2-1.1v-.4l-.2.1-.5.6-.9-1.3-.6-1.2-2.2-2.3-.7-1-.1-1.1-.7 1.2-1 .9-1 1.3-1 .5-2.4.5-1.5-1.4-2.4-3.6-.4-.8v-2.3l-.7-2.1-.1-1.1-.2-.7-.3.2-.1.5.2.8-.1.7-1.7.1-1.6-.1 1.5 1 1.5.1.9.9.2.8v.9l-.7.7-.7.5.2.8 1 .9-1 .4-.2.7.1 1 .6.8.3.6-.1.6.6.6.9 1.2.3.9-.2 1.3-.4.5-.6.6-1.4 1.8-.5 1.7-.6.9-.8.3-.4-.3-.7-.4-.1-.9.1-.7 1.2-1.9-.7.3-.8.6-1.2 1.1-.5-1.1-.4-1-.1-1.3.9-2.1-1.1 1.1-.2 1.3.3 1.4v1l-.3 1.4-.6.9-1 .6-.4.8-.6.7-.1-1.2-.4-1.5-1.1-3.6-.1.8.6 2.2.1 1.5-.4 1.2-1 1.4-.9.3-.5-.1-.9-.7-1-1-.3-1.8-.5-.9-.1-1.2-.2-1.1-1.2-2.9-.7-1.5v-.5l-.1-.2-.5-1.9-.5-1.2-.3-1.3.7-1.9-.4-.3-1.1-.1-1-.2-.3-.5.3-1.8-.6-.7-.8-.6-.2-.3-.3-.3-.4-.9.5-2 .7-2.3.1-.9v-2.1l-.2-.5-1-.6-1.7-.1-1.2-.4-.8-.8-.6-.3-.7.3-.9-.2-.8-.7-.7-.9v-.5l.1-.6 1-2.6.4-.1 1.1.4h.4l.6-1.1.7-2.9 1.3-.1h1.2l.8.1.8-.2.8-.3.4-.4.2-.5-.1-.4-1.1-.5-.4-.4-.4-1.1-.3-.4-2 .1-1.1-.4-.6-.4-1.1-1.5-1.3-1.1-1.2-.2-.5-.3-.3-.6.1-.9.3-.8.2-.9.9-1.2 1-1.1.4-.7.7-.8.1-.4-.2-.4-.6-.4-.4-.1-.1-.3.2-.8.5-.1 1.2.6 1.2 1 .8.9.1.8.5.1h.5M398.7 415.6v.3l-.2.8-.1.8.2.6.8.7 1 .5 1.2-.1 1.1-.4.4.1.7 1 .5.9-.5 1-.2.9-.1.6.1.2.4.4.5.8.1.7-.2.5-.5.3h-.6l-.5.1-.6.2-1 .4-.9.4-1.7.1-.8-.7h-.3l-1.5 1.1h-1.7l-3.1.6-1.3.2h-1.3l-.7-.1-1.3-.6-1.2-.4-1.1.6-.4.1-.8 1.2-2 .6-2 .5-.6-.1h-1.1l-.1-.3v-.3l-.3-.2-.5-.2h-.8l-1-.2-.6-.2-2 .6-1.3-.5-1.4-.7-.7-.3-.4-1.3-.3-.4-.6-.4-.3-.5.2-.6 1.3-1.1.1-.2.5-1.9.8-.7.8-1 .5-1.5 1.1-1.6 1.3-1.7.8-1.3.6-.6 1.2-.7 1-.5.7-.9.9-.5.9-.3h1.4l1.3.2 1.4.3.2.3-.1.6-.2.6v.3l.2.2h1.4l1.7-.2h1l2.2.4.7.3.7.2.6-.1.7-.7.8-.6.5-.1.4.1.7.5 1.4.4 1.3.3.4.3v1.5l.2.4"/><path fill="none" stroke="#464745" stroke-width=".4" stroke-linecap="square" stroke-linejoin="bevel" d="M606 40.4l.3-.1.2-.1.2-.4 1.1-.1 2.3.3h1.3l.4-.4.6.1.9.5.9.1 1.3-.4 1.6.2.5-.2-.1-.6.3-.5.7-.4 1.2-.1 1.8.2h1l.3-.3h.4l.5.3.3.5.1.3.6.3.4-.2.7-.1.9.5.6.1.5.2.2.2.2.2v.7l.1.4.4.3.9-.1.4.2.3.4.5.3.8.2.4.3.1.4.3.2.4.1.5.8.3.4.7.3.7 1 .9 1 1.9 1 .8.7.5 1.1.4.4h.6l.5.3.3.6.4.3.4.3.3.7.5.5.4.2.5.5.5.7 1.4.9 2.2 1 1.5.9.8.8.4.8-.2.9.2.5.4.1.3.3.2.5.7.3 1.9.2.3 1.8.5 1.1.7 1.1.8.6.9.1.7.3.4.4 1 .1 1.7-.2 1.8-.9 1.8-1.6 1.2-.8h.6l.4.3.2.6.5.1.9-.3h.8l.6.3.5.1.3-.5.5-.2h.6l.2-.3.1-.4.4-.2.4-.2.7.6.7.2.6-.3 1.4.3 3.2 1.4 1.7.2 1.3-.4 1.5-.8 1.1.7.3 1.2.4.9.5.1 1.1.7 1 .2.4.4.6.3.5 1 .3 1.7.9 1.1 1.5.5 1.1.6.7.8.6.4h.4l.8-.6 1.2-1.2 1.1-.6h1l1.7-1 2.4-2.1 1.6-1.2.8-.3.2-1-.3-1.7.1-.9.5-.2.5-.9.4-1.6.6-1 1.2-.7 1.2-.8.5-.9.2-1.3.7-1.5 2-2.7.5-.6.3-.2 1-.5 1-.2 1.2.2.4.4.3.7-.1.4v.6l.2.8.5.4 1.2.8.9.5 1 .6.1.5.2.8v1.6l-.1.7-.1.7-.7.6-.2.3-.2.4v.5l-.1.4-.1.8.3.5.7.6.6.6v1l.3 1.2.1.4.3.9.1.3.9 1.6.2 1.4.2 1.7.6.6.6.6.1.4.2.3.3.7v.4l-.3.8v.7l.6.7.2.8.1.8-.1.6-.3.5-.2.4.3.9.3.6.2.7.5.5.1.7-.4.8-.2.4-.3.3-.3.9.7 2.2.6 1.2.8.9-.4 1.1-.3.9-.5.1-.5.1-.3.1-.6-.9-1.2-.5H723l-1.6.5-1.3.8-.9 1.2v.8l-.4.1h-.7l-.8-.3-.3.5v.9l-.4.8.2.9.1.8-.2 1.2-.1.5-1.1 1.4-.2.4-1.1.8-.2.5-.1.7.2.6.6.3 1.1.8.6.6 1.1 1.2 3.7 3.8.1 1 1.6 3.5.4.6.5.9.4.7h.3l.4.1.4.3.3.6.1.5.3 1 .5 1.5v1.6l.5.9.2.7-.4.5-.3.6-.7.2-.5.4-.5.6-1 1-.5.8-.2.5v.4l.1.3.3.1.7-.3.8.3.4.6-.3.6-.5-.3-.5.1-1.1-.1-.9-.3-.8-.4-.8-1.4-.2-.2-.9.1-.5-.3h-.5l-.4.4-.4.1-.4-.1-.4.2-.1.5.3.9.2 1.6.4.8.4 1.3.6 1.6v.4l-.6.4-.1.2v.7l-.3.3-.5-.1h-.7l-.5.2-.3.5-.2.9v.7l.2.5.2.6-.2.8-.3.6-.5 1.4-.1.5-.7.4-.8.4-.9.8-1.6 1-1.1.4-1.2.8-.8.8.1.5.4.6.4.3.4.1.8.6.8.6.9.2.6.4.3.5V157.2l-.2.7-.3.2h-.7l-.5-.2-.9.3-1.8 1.3-1.1.3-.6-.1-.8.4-1.5.2-.8.3-.5-.1-.4-.6-.6-.2-.5-.4-.8-.4-.6-.1-.7.2-.3.6-.3.6-.4.1-.1.2-.1.4-.5 1 .1.6.2 1.3.3 1.3v.5l-.3.2-.2.5-.2 1.4-.2 1.3-.6 1.1-.1.8v.7l-.3 1.1-.9.6-.7.6-.5.3-.2.5V175.6l-.4.2-.2.6-.6 1.5-.8.6-.8 1.2-.8.9-.3.5v.8l-.4.3-.5.2-.6 1.4-.2 1-1.3 2.5-.4 1.3.3 1.2h-.1l-.3 1.3-1 1.6-3 1.6-1.3-.2-.1.6v.8l-.7.6-1.2.6-.5.7-.2.6-1.7.9-.4.9-1 .7-3.4 4.7-.5 1.6-.4 1.7-.4.9-.4.7-.5.4-.3.7-.5.3h-.6l-.6.3-.2.7.6.6-.1.4-1 .9-1.7 1-.6.8-.2.4-.3.3-.8-.8-.3-1.1.6-.6.6-.4 3.1-3.3-1-1.1.1-.7.5-1.3.4-.7h-.4l-2.3 1.3-1.4.6-.8.2-.1-.9-.4-.7-.3-.2.9-1.4.5-.5.4-.2-.3-.5-.7-.7v-1.2l2-2.3.1-1.4.6-1.5.7-3.4-.1-.5v-1.4l-.1-.5-1.1-.3-.8-.8-3.2-.7-.9-1.4-.2.2.1 1.2-.2.5-1.1.5-.7-.2-3.3 1.1-.5 1-.3 1.4-.4 1.1-.6.7-.3.9-.9 5.2-.8.7-3.6 4.3-1.9 1.9-1.1 2.4-.2 1.3-.1 1.4.4 1.9-.8 2.8-.4.7-.5.4-.8.2-.6.4-1.2.2-1.1 1.2-1.4 1.2-1.9-1h-1.1l-1.4 1-.5.9-.3 3.8.1 2.1.3.8 1.7 2 1.5.9 2.8.7 5.2-.8 1-.8 1.2-.5 1.7.5 1.4 1.3.5 1.1.2.4.4.2.4.5-.3.7-.3.4.3 1.8.7 1.9.7.5 1.4.5 1.9.1 1.6-.4 2.8-1.5.7-1.6-.3-.5-.2-.7 1.9-2.7.9-2-.4-.3-.4-.2.2-.3.7-.4 2.9-2.9 3.3.2 2.2.8 1.7-.4 1.4.3 1.5.1 1.6-.6 1.4-.4.2-.8.3-.6.5-.1.9.5 1.8-.1 1.4-.6.9-.6h.7l-.5 1.4.8 1.5-.5.8-.3 1.1.6.4.4.1.2.7-.4.6-.7 1.4-.6.2-.4-.1-.4-.3-.4-.5-.5-.2-1.1.3-1 .6-1.9 2.4-1.9 2.1-2.2 1.9-.6.9-.5.4h-1.2l-.6.3v.4l1.1.5.5.5.1.5-.4.4-.8-.1-.4.7.1 1 .8 2-.2.6-1 .7-1 1.1-.5-.1-.3-.3-.2-1-.3-.4-.5.2-.7.6-.4.8-.1.4 1.3.9.8-.2.3.2-.4.8-1.2 1.5v.8l-.2.9-.4.8-.2.7-.4.5-.7.7-.5 1.8-.3 1.6-.7 1 .1 2.5-.9 1.7.2 2.1.8 1 1.5-.5.9.1 2.1 1 2.2.3 2.1-.1 2.8.6.9.4 1 1 2.3 3.2 1.4 1.5.4.9 1.7 1.3 2.3 2.5 2.3 2.1 1 1.9-.1 1.1.5 1.2 1.8.6 3.5.1.6.2.8.4.8 1.9.7.4.5.2 2.2.1 1 .4 1.2.8.6.9.6 1.3-1 .4-.9.2-4-.5-.9.3-1.1.7-1.8.3-2.5-1.2-1.5-.1-1.5.2-2.8 2.9-.9.2-.2.3-.3.4 1.7-.2 1.4-1.1 1.2-1.3 2.3-.4.6.6.8 1.1 1.8.3 1.3-.1 1.9.5 2.1 1.1 3.9.8 2 1.4.9 1 1.1 1.5-.9 1-.9.4-1.4.8-.9 1-.7 1.5-2.6 2.8-.2 1.3-.1 1.1-.6.7-2.1.3-1.8.7-1.6 2-.3.7.3-.2.3-.3 1-.2 1.2-1.2 2.1 1.5 2.7-1.3 2-2.6 1-.4.9-.1 1.2.3 3.6 2 1.5-.2 1.6.2.8-.2h.8l-1.4 1.8-1.5 3.2-.8.9-.5.9 1.8-1 .9-1.6.6-.5.6.1.8 1.3 1 4.4-.6.3-1.1-.9-.9-.1-.6.5-1.3.5-.3.7-.1.9.8-.1 2 .7.4.6-.2.6-1.1.2 1.6.5v1.1l-.3.5-.7.5-.1 1 1.2 1.2 1.3 1.6.4.9h-1.2l-1.2 1.7-.8.4-1.1-1.3-.7.5-.3.6-.1 1.8-.3 1.7-.6.6-.9.2-.7.3.3.3.9.2.2.5-.9 2.3v.8l.2.6-.6 1 .8 1 .1.9-.3 1.4-.5 1-.5 1.5-.9 1.1-.6 3v1.4l.3 1.3-.3.6-.6.8h-1l-.3-.9-.4.1-.4-.5-.3-.7-.1-.6-.3.3v.8l-.4.7h-.7l-.8-.2.2.6.6.5.4.6 1-.2.9.5.9 1 .2.4.6.4.2.4-.8.7-.9 1.1-.9 1.7-.8 1.2-1 .3-.6.1-1-.2-1.1.1 1.9 1.3.8.1.9-.4.7-.9 1.3-.4.7.9v1.2l-.2 1.7.3 1.3 1.5 1.5.2.5-.2.4-1.2-.1-1-.3-.8.4h-1l-.8.5-.2.5.5.6 1 .3.7.7-.4.5-2.3.5-.5.3-1.4 2 .9 1.3-.2 1.1-.9.5-1 1.1-.7.4.1.3.7.1.4.3-.2 1.7-.9.8-1.7.3-1.2.7-1.3-.3-1.2.4-.5 1 .2 1-.7.3-.4.1-.6.2.2.5.5.3 1.6-.3.5.5.4.9-1.1 2.2-.4 1.3-1.1.3-.5 1.1-.1 1.4-.6-.1-1.2.6-.2.7.4.2.2.4-.1 1.5-.4.5-.4-.5-.4-.8-.5.1-.5 1-.7.8-.6.5-.7-.4-1.4.1.1 2.5-.9 1.2-.4.4-.9.4.7.1.4.5-.2.7-.9.4-.4.6.4 2.1-.3.9-1.4.5-1.2-.2-.2.5-.1.4-.4.5-1 .4-2.1 1.6h-2.5l-.8.6-.1.8-.2.7-1.3.4-1.2-.4-1.2-.2-1 .7-.6 1.1-1 .6v.6l-.4.4-1.2.2-.8-1.2h-.7l-.5.9-.1.6-.2.5.4 1.1-.6.2-1-.4-.9.2-.7.8h-1l-.7.2-.2.2-.5.2-.3.4h-1l-1.4-.6-1.2-1.3-1.2-.5-.6-.6-.5-1.2-.4-.6-.1-.7.1-.7-1 .6-.7.8.4.7v.7l-1.1.7.1.3.2.3 1.2.6.4.7.5.3 1.1 1 .6 2.3.6.5v.7l-.1.9-.3-.2-.3.2-.1.3v.3h-.1l-.6.4-.5.3-.4.3-.5.9-1.3.5-1.1-1.4-.6 1.3.3 2.2-.2.5-.5.5-1.3-.5-.8.7-.6.7-.2.5-.4.7-1.1-.2-1-.5.1-.6-.2-.3-.4-.2-.4.1.4.7.5 1.3-.3.5-.5.5-1.3.1-1-.3-1.1-.2-.9.2v.9l-.4.9-.5.2h-.6l-.5.9-.2.6-.7.8-2.3.9-.6.8-1.1.2-.8.4-.5.1-.5-.2-.5.1v1l-1.2.7-1.2.4-1 1.6-.8 1-.7.3-.6-.1-.5-1.1-.3-.1.1 1.1v1l-.4.6-1.3 1.5-.2 1.2.5 1 2.1-.3.4.5-.1.5-.4.5v.6l2.7 1.3.2.7-.2.5-.2 1-1 1-2.4 1-2.2.1-.8-.7-.1-.6h.6l.6-.2-.3-.5-.3-.3-1.1-.2-1.1-1.1-.1-1.1-.6-.7-.6-.6-.6-.3-.4-.5.1-1.7-.5-.9.6-1.4-.1-1.3 1.5-.8-.2-1.3-1.1.2-1-.7-.1.4-.6.2-1.5-1.5-.4-.1-.5.1.7 1.8-1 1-.9.5-1.4.5-.7.4h-.8l.1-.6.2-.8-.5-.5-.9-.2-1.2.3-.9.1-.8.2-.2-.2-1-.7-.8-.4-.4-.5.1-.7-.3-.3-1.3.3.2.9.4 1 .6.7-.2.5-.6.5-.9-.7-.4-.1-.3.1-.1.9-.4.9-1.1.2-.8.7-1 .5-.9-.5-1.4-.7h-.5l-1.2.8-1.8.6-.5-.4-.8.6-1.2-1-1.1.2-1.5-.6-.6-.4-.3-.7-.5-.3-.5.2-.6-.2-1-.2-.8-.1-.3.2-.4.2-.2-.5-.3-1.4-.3-1.2-.3-.5-.6-.3-.5-.1-.3-.6-.1-1.3.2-.9.5-.3.6-.8.2-1 .3-.9-2-.8-1-.2-1 .4-1.2.6-.6.2-.4-.1-.9-.9-.4-.1-.9.1-.7.2-.3.5-.6.3-.7.2-.8-.4-1.2-.5-1.7-.2-.3-.5-.6-.6-.7-.5-1.2-.7-.9-.3-.3.4-.4.6-1.9 1.5-.9.6-.4.4-.3.5.1 1.1v1.2l-.5.7-.5.6-.6.2-.6.1-.5.3-1.5 1.5-.8.1-.8-.5-.4-.4-.7.3-.9.8-.2 1.1v1l-.1.5-.3.2-.3.1-3.6-2.1-.2-.1-.4.7-.2 1.6-.3.4-.3-.1-1.6-1.6-.4-.1-.3.1-.3.7-.6 1.1-.5.7.1.6-.6.7-.7.7-.2.1-.6-.1-.8-.6-.6-.6-1.4-.5-1.5-.4-1-.3h-.5l-.4.3-.2.3-.2.8-.6 1.4-.5 1.1-.6.7-.5.5-.5-.3-.8-.2-.9.2-1 .8-1.1-1h-.2l-.3.2-.3.4-.2.7-.1 1-.5.7-.4.4.2.5.4.5.1.5.3.8.4.7 1.3 1.1.5.6.2.6.4 2.1.1.9.1 1.7.2 1 .5.3.5.4v.3l-.2.1-.5.7-.2.1-.5-.2-.6-.1-.5-.1-.5-.3-1.1.3-1.7.9-.4-.1-.3-.3-.3-.6-.1-.8-.3-.5-.4-.2v-1.4l-.7-.4.1-.2-.5-1.4v-.4l-.1-.1h-.5l-.6.4-1.9 1.4-1.4 2.1-.7.5-.8.3-1-.1h-1.1l-1.4.7-.8-.1-.4-.3-.4-.5.1-.7-.2-.5-.7-.2-.7-.1-.5-.6-.3-.7v-1l-.1-1.1-.4-.4-1.1-.1h-2.7l-2.3.1-.9.3h-.8l-.5-.1-.3-.3-.1-.5.2-1.2.2-1.1.8-1.7-.1-1.1-.3-1.2.2-1.7.7-1.4.4-.5-.2-.5-.5-.4-.6-.2-.9-.2-1.4.1h-1.9l-2.3-.4v-1.4l-.2-.9-.4-.7-.5-.4-.3-.4.2-1.3-.7-1.3-.7-.5-.7-.6-.2-.8.2-.8 1.2-1.8v-.4l-.4.1-.4.1-1.9.9-.3-.3-.8-.1-1.5.2-1.7.4-2.1.9-1.8 1.3-.8.8-.7.5-.6.2-.8-.2-.1-.9 1.1-1.9v-1.2l-.6-1-.2-.8-.6-.4-.7-.1-.4-.5-.3-1.7.3-1.8.9-.7.5-.4.1-.4-.5-1.2-.1-.8.3-1.6.4-1.2h1.1l.4-.4.5-.5.5-.8.3-.9.2-2 .3-.3 1.4.1.4-.3.6-1.2.5-1.5 1-.6.7-.2.3-.5-.1-.7-.9-.9-.4-.8v-.5l.9-.5.1-.6-.4-1.3.2-1.7-.1-1.9-.1-1.4-.2-1.1-.3-1.1-.5-2-.7-1.7v-.7l-.4-2.1-.6-1.8-.6-.2-1.1-.4h-.6l-.4.3-.1.7-.4.7-.6-.1-.4-.6-.5-.7-1.8-3.5-.3-1-.4-1-.5-.5-.5-.2-1.1-1.1-.6-.4h-.3l-.5.2-.5.1-.5-.6-.5-.7-.4-.3-.7-.1-.6.2-.3.7-.2.4-.4.9-.6 1.3-.3.5-.4-.2-1.7-1-.8-.2-1 .5-1.6-.1h-.6l-1.5-.8h-.6l-1.8.9-.4.5h-.2l-.5-.2-.5-.3-.1-.2.4-.6v-.3l-.1-.3.6-1.1 1.7-2.2-.4-.8-1-1.5-.2-.8-.4-.3-.9.4-1.8 1.7-.3-.1v-.5l-.4-1.4.6-.5.9-.7.7-.7.1-.5-.2-.1-1.1.3-.5-.3-.9-1.2-.6-.5-.5-.2-1.5.9-1.8 1.2-1.9 1.6.1.7-.2.2-.3.5-.3.6-.3.2-.4.1-.8-.1-1.5-.5-1.6-.4-.3.1-2.2-.1-.1-.3-.4-.6-.7-.5-.6-.1-1.5 1.4-1.8 1.1-1 1.2-.8 1.1-1 .3v.6l-.4.6-.7.8-1.4 1.1-1 .6-3.3.8-1.1.4-.4.5-.4 1.3-.3 1.2-.8 1-1.5 1.4-1.9 1.2-.5.7-.1.4.3.1.3.3.1.5-.2.5-1.2 1-.7.5-.7.3-.8.1h-.8l-.2-.1-.3.2-.7.3-.6.1-1.3 1.1-.8.1-1-.1h-1.3l-.9.1-.1-.5v-1.5l-.4-.3-1.3-.3-1.4-.4-.7-.5-.4-.1-.5.1-.8.6-.7.7-.6.1-.7-.2-.7-.3-2.2-.4h-1l-1.7.2h-1.4l-.2-.2v-.3l.2-.6.1-.6-.2-.3-1.4-.3-1.3-.2h-1.4l-.9.3-.9.5-.7.9-1 .5-1.2.7-.6.6-.8 1.3-1.3 1.7-1.1 1.6-.5 1.5-.8 1-.8.7-.5 1.9-.7-.5-.8-.8-.3-1.1.7-3.1.1-1.3-.3-.5-.4-1.2-.6-.4-1.5-.5h-.5l-.5.5-.5.3-.7.3-1.6.7-1.5.4-.3.2-.1.4.1.4-1-.1h-1l-.8.1-1.9.9-.7.1h-1.8l-1.9.1-1.7-.1-1.4-1.1-1-.4-1-.3-1-.2-.4-.6-.3-.3-.9-.1-.7.3-.3 1.6-.3.3-.9.2-.9-.3-1.3-.7-.5-.9-.4-.3-.6.4v1.1l-.1.8-.8.3-.5-.2-.4-.8-1-1.8-1-1-.9-.7-3 .1-2.3-.1-1-.3-.4-.7.3-1.4.4-1.1v-.3l-.4-.1-.6-.1-2.4.8-.7-.1-.4-.2-.5-.2-.4-.3-.3-.5-2.1-1.1-.6-.6-1.1-.8-1-.5-.6-1.6-.6-1.5-.3-.8-.9-.4-1-.3-1.6.7-1.3.5-1 .1-1.5-1.6-1.2-1.7-1.4-1.5-.9-.7-1.6-.1-1.8-.8-2.4-1.9-1.7-1.4-3-1.6-.7-.7-.3-.6-.4-1.1-.6-1.1-2.1-.5-2.4-.3-2.5.6-1.9 3.2-.9.7h-.8l-.6-.8-.5-.9-.3-.9-1.3-.7-1.4-.9-.7-.7-.8-.5-.8-.2-1.5-.6-1.7-.7-.8-.1v-.5l.3-1-.1-1-.5-.4-.8.1-1.7-1.4-.1-.1-.5-.4-.9-.6h-1.5l-1.1.2-.8-.6-1.2-1-.2-.2-.3-.4-1.1-1.8-1.3-2.2-.7-.3-.4.1-.5 1.1-.3-.1-.5.1-.6.4-.6.1-.4-.1-.2-.3.2-1.5-.3-.5.4-1 .6-.9-.5-.7-.6-1v-.9l.4-1.1.2-.9-.1-.3-.5-.5-1.9-2.6-.1-.3-.3-.9-.1-1.3-.2-.9-.3-.7v-.3l.2-.2 1.3-.1h1.2l.8-.2.4.5.1.8.2.4.7.8.9.8h.9l.8-.3.7-1.1.5-.3h.6V358.5l.3-1.8v-.7l-.2-.7.1-.7v-1.1l-.6-.8-.4-.3v-.4l.2-.7.2-.8-.2-.6v-.1l-.5-.3-.6-.6-.7-.8-.3-.5-.5-.6-.6-.9v-2l.1-2.1-.2-1-.3-1.7.1-.5.3-.4 2-1.2.5-.5.1-.4v-.6l-.3-.7-.7-.6-1-.9-.9-.9-1.6-.6-2-.8-.4-.7-.4-1.6-.7-2.4-.7-2.5-.6-1.6v-.7l.6-1.8v-.4l-.3-.2-.7.2-.6.2-.5-.2-.4-.3-.1-.1-.8.1h-1.6l-.6-.1-.8-.1-1.6-.6-2.1-.8-2.2-1-1.1-.8-.4-.3-1-.8-.7-.6v-1.5l-.5.1-1.3.4-1.5.2-.8-.1-.3-.3-.3-1.6-.3-.5-.6-.2-.7-.4-.3-.5v-.5l.4-.6.4-.4.4-2.8-.1-1-.1-.9-.4-1.1-.4-.7-.7-.7-1-.8-1-.3-1.3.3-.4-.2-.3-2-.3-.4-2-1.1-.9-.3-1.1.1-.7.1-.5-.4-.7-.6-.7-.4-1-.1-.7.1-.1-.1-.3-.4-1.1-1.2v-.3l2.1-.8 1.2-.2.7-.2.1.1.2.5.7.4h.6l.3-.2 1-.5.8-.6.5-.5-.1-.9-1-1.2-.7-.7-.2-.4.3-1.1.4-1.1-.1-.5-.2-.4.1-1.2-.3-1.6-.4-.9v-1.2l.1-1.1.9-1.6-.1-.8-.6-.8-2.2-1.5-2.3-1.2-.9-.1-.6-.1-.8.6-.6.8h-.6l-1-.5-.6-.7-.3-1.3-.1-1.6-.1-.5.2-.4.3-.3.7-.2.2-.3v-.5l-.4-.6-.4-.9-.6-1.8.3-.9.3-1.3.1-.7h.9l1.2-.2.6-.5.4-.5.1-.4-.1-1.5-.3-.7v-.5l.3-.3.4-.6.8-1.2.7-.8.3-.2.7-.1h1.6l1.8-.3 2.3-1.4.7-.4.9-.1.6.1.1-.2-.2-1.2.2-.4.3-.3.3-.1 1.3.8 1.1.1 1.3-.1 3.1-1.5.3.1.2.3.2 1.2v2.5l.2.3 1.9.3 1.4-.7.6-.1.9.3.5-.3.6-.2.5 1.1.8-.4.9-.7.5-.7.7-.8.6-1 .3-1 .3-.5.5-.4 1.4-2 .9-.4.8-.1 1.9.6 1 .1 2.9.6 1.4-.2 1-.3 1.4.2 1.7-.1 2.5-2.4.1-.6.2-.6.8-.5 1-.4 2.1-1.1 4.1-1.6 1.5-.7.6.1 1.5-.4 2.6-.7.8-1.2.7-.2 3 .1.2-.1.1-.2-.1-.9-.1-.8.2-.2.3-.3v-.5l-.3-1.6-.1-1.5V229l.1-.5.4-.8.5-.8 1.7-.6 1.1-.1.1-.5-1-.7-.6-.5-.1-.3.1-.3.2-.3 1.1-.4 1.1-.4 1.2.4.3-.2.1-.5-.2-.6-.2-.9-.5-.5v-.6l.4-.9-.3-1.8-.4-1.6-.6-2.7-.5-.8-.2-1.3-.3-.7.1-.9.1-.7v-2.7l.3-1.4.4-.9v-.4l.2-.3h.5l.3-.4-.2-.4-.8-.4-.9-.6-1.2-.1h-1.2l-.6-.4-.5-.5v-.3l.8-.7 1.1-.7 1.6-.2 1.7-.3.9-.3 1.2-.2h1.3l.7.1 1.7-.3 2.7-.7 2.5-.6.8-.4.6.5.2 1.1.6.6.7.3h.4l1.2-.3 1.3-.2.5.2.6.6.7.5h.4l.4-.4.4-.7.3-1 .1-1-.1-.6-.2-.3-1.1-.5-1.1-.7-.1-.6.1-.4.4-.9.9-1.7.9-2.4.5-1.9 1.4-2.8 1.2-2.9 1.9-4.2.3-.8.2-1.3.1-.6.5-.3.9.4 2.1 1.1 1.6.9.7.3 1 .4 1.6.5h.9l.8-.2h1.1l1.6.4h.5l.6.1.4.4.2 1 .3.4.6-.1 1.4-.8.9-.6 1.1-.9 1.1-.1 1.1-.2.4-.4.5-1.1.7-.8.2-1-.2-.8-.4-1.2.1-.8-.1-2.4-.2-2.1.4-1.7.6-1.9.2-.6.4-.8.5-.9.7-.3 1.9-.1 1.8-.3.9-.4.9-.2.6-.3 1-1.3.5-.8.4-2-.2-1 .2-.9.5-.5.7-.5.4-.1.9-.1 1.5.1.8.3.8.1.5-.2.3-.4.5-.1.8-.2.8-.2.4.1.1.6-.1.4.1.6.3.4-.1.4-.4.2-.4.3-.1.5.5.6.2.6.9.3.7.4.3.4-.1.4-.3.4-.3.5v.3l.1.3.7.2.8.4 1.3.5.9.9.9.2.4.8.1 1.2.9.6 1.3.9.7.2.4.5.6.6.6.2.7.1 1.1-.5 1.2-.1.7.3.7 1.2.5.4.3.3.4.3h.4l.7-.3.4-.5.6.1.2.3.1.6.3.7.7.5 1 .3.1.3.2.7.3.5.4.6.4 1.2.1 1 .2.5.5.9.8 1.4.6 1.2.7.2.6.4.4.9.7 1.6.1 1.1.1.8.2.4.1.5-.5 1.8-.4.8v.7l.3 1.1.4.9.1.9-.3.6-.6.8-.3.5-.5.4-.7 1.5-.3 1.7-.1.9.3.6.5.7.1.6.8 1.3.2.8h.3l.3-.3h.8l.8.3.8.6.8.3 1.1-.1.6.3.7.2h2.4l1.6-.1 1.3.4 2.2.2 1.4-.1 1.8-.4 1.1.1 3.3.3 2 .4 1.3.5.9.8 1.1 1.3.8.6 2.1.2 1.6 1.4 1.2.5 2 1.3 1.4.5 1.7.4 2.6-.5.2.2-.1.8-.1 1.1.1.8.3.4 1 .2.5.4.4.7.3.5 1.1 2.2 1.7 3.3.3 1.3.6.8 1.6 1.2.9.9 1.3.9.5.9.2 1.2.3.3 2.1-.5 1.8-.4 3.3-.7 4.7.1h11.2l4.8-.1 2.5-1.1 1.9-.9.9-.1 4 .1H471.5l2-.2 1.6-.3.8.1.8.2.5.3 1.8 1.8 1 .8 1.8.4 3.9.1 2.2.1 2.5.1 1.7.5 2 .6 2.6.8 2.5-1.1 2.6-1.1 1.7-.7.5 2.6 2.5-.3.8-.2 1.2.3.6-.4.5-.7.5-1 1-.6 1.6-1.4.4-.3 2.4-2 3.6-2.6 1.6-1.3.5-.3.9-.7.6-.5 1.1-.5 1.6-.5 1.7-.8 3.9-1.6.5-.2 2.2-.8.9-.5 1.5-.2 1.9-.4 1.3-.2 1.6-.5 2.2-.8 1.8-.5.9-.4 1.2-1 .8-.8 1.2-1 1.6-1.1 1.1-.9.7-.6.9-.6.1-.5.2-.4.3-.7.6-1.4.4-1.2.2-.5.5-1.2.4-.9.5-1.2.6-.5.8-.5 2-1.6.4-.3.4-.1.6-1 .5-.9.3-.6.9-.5.4-.5-.1-.5-.3-.7-.7-.6-.6-.5-1.7-.9-.9-.6-1-.8-.6-.9-.7-.5-.4-.5-.1-.6.3-1.3v-.7l-.1-1.3.1-2 .3-1 .3-1 .9-1.5 1.1-.5h.7l1.5-.5 1-.2.9.3 1.2.8 1 .1h3.1l1.3-.2.9-.2 1.4-.1.5-.1h.7l.5-.4.6-1 .8-1.2.4-.3.7-.6.3-.5.4-1.2.7-1 .8-1.5.3-1-.1-.6-.1-.6.3-.4.6-.5.8-.3h1.6l1.9-.8.4-.2 1.7-.9.7-.5 1.1-.6.6-1.2.8-1.5.6-.9.5-.3.5-.9.1-.8-.3-.5-.3-.4.1-1 .2-1.8.4-1 .4-.8v-1.1l.4-.4.5-.3.6-.9.5-.3 1.1-.1 1.4-.5.9-.3.5-.3.1-.4-.2-.5-.2-1.3v-.4l.2-.3.9-.4.7.2.5.2.6-.2.5-.5.4-1.2 1.1-1 .6-.4 1-.9.8-.1 1.4-.4.5-.3.6-.1.3-.8.4-.3 1-.1.8.3 1.3.2 1.5-.3 1.1-.6 1.3-.2.7-.3.2-.4.7-.9-.1-.8-.4-.6-.2-.8-.5-.4-.9-.6-.5-.5-.3-.7-.6-.5-1.2-.5-.7-.1-1.8-.9-.5-.2-.2-.2-.3-.4h-.5l-.7-.1-.5-.3-.5-.6-.3-.4-.6-.2h-2.4l-.8-.5-1.5-1-.7-.3-2.1.6-.8-.1-.8.4-.4.4-1.1.4-.5.4-.4 1.2-.5 1.6-.5 1-.3 1-.2.4h-.6l-1-.6-1.3-.4h-1.5l-1.2.2-.8.4-1 .7-1.1.3h-.5l-.7.3-.9 1.2-.3 1.1-.6.6-.9-.3-1-.4-1.1-.6-.8-.6-1-2.1.7-1 .9-1.1-.3-1.2-.5-1.3-.3-1.5.5-1.7.2-1.3-.2-.7.1-1.3v-1.3l.1-1.8.2-3.2.2-3.7.1-1.9 1.9.4 1.2.1 2 .1 1.8-.5 2 .2 1-.1.5-.2 1.5-3 1.3-2.5 1.7-2.3 1.6-.9 1.1-.9.6-1 .1-1.2-.5-1.5-.7-.7h-.9l-.3-.2.3-.5v-.7l-.2-1 .1-1 .4-1.1v-1l-.3-1V82l.4-1.3.1-1.1-.3-.8v-1.2l.3-2.2-.2-2.3.6-1.9 1.3-2.3.6-1.9-.2-1.6-.6-1.2-1-.8-.6-1-.2-1.3-.7-.7-1.2-.1-1.2.4-1.2.9h-.9l-.6-.9v-.9l.6-1 .7-2.1.9-3.2 1.3-2.1 2.7-1.7 1.9-1.8 1.9-1.9 1.5-1.2.4.1.9-.4 1.5-.9 1.3-1 1-1.2 1-.6.9-.1-.3-.3M-41.1 392.1l-1.9 1.5-2.5 1-.7-.7-.7-.2-1.6.2-1.1-.2-2.2.6-1.9.1-1.2-.4-.4-.2v-.8l.1-.3.7.4 3-.2 3.8-.7.5-.6-.2-1.3.2-.2 2 1.2 2.7-.5 2.1.2.7 1.1h-1.4"/><path fill="none" stroke="#464745" stroke-width=".4" stroke-linecap="square" stroke-linejoin="bevel" d="M-90.7 148.6l.1.2 3.1 3.5 1.8 1.8.5.5 2 .5 1.8 1.3.7.5 4.1-.8 1.3-.3 1.7.5 1.5-.4 2.1-.3 2.3-.1h2.1l1.5.1 2.9-.1 1.6.3 1.1.7.5 2.7.4 2.4v.9l-1.1.2-1.7-.2-.5.3-.4.5-.3.6-.1.5 1 2-.2.7-.3.6-.4.2h-.5l-1.3-.4-1.2-.3-.5.1-.5.2-.2.4v.7l1.1 2.5-.1.6v.9l.2.7.8.6.2.5.4 3.6.4.5 2.6.8.3.2-.3.6-1.8 3.6-.8 1.9-.7 2-.3 2-.2 1.9.5 1.5 1.6 2.4.9 1 2.8 1.9 2.6 2.1 1.4 1.5.3.7.1.8-.1 3.5 1.2 3.1 3 5.3 1.7 2.1 6.5 5.6 5 2.4 15.4 3.1 4.9 1.2 1.7.8-1.3.2-1.9-.4.8 1 1.5.8.8.3.7-.2.4-.7.3-.8.8-3.6.6-2.5 3.1 1.6 1.4.3 2.1.1 1.6.2.7.2.8-.1.7-.2 2.6-2.6.9-.5 2.8-.9 2.2-.4 2.2-.2 2.5.3 2.9 1.4 2.2 1.2 1.3.6.6.3.5.1.4-.1.9-1.2.7-.2h1l1.1.5 1.4.5 1.1.6 1.2 1.1 1.9.8 1.3.4.5.8.2.9v.7l-.3.8-.3.6.1.3.6.7 1 .7 2 1.2 1.7 1.4.9.8 1.2 1.2L39 241l.5.5.7.5.6.2 1.5-.2.9.9.6.1 1.4.1 1.2 1 2.7 3.1.4.1.2.3.1.5v.6l-.3 1.6.6 1.5.8 1.5 1.2 1.1 2.5 2.4.9 1.5.7 2.3.8 3 .2.3 4.2 1.3 4.6 1.5.2 1.2-.7 1.9-.5 2.1v1.5l-.4 1.3-.5.5-.5.7-.2.3.5.7.2 1.2-.4 1.5-.5.7-.2.7.1.6-.1 1-.2.5-.6.4-.4.6-.8.9-.3.7-.7.1-.5.1-.2.9v1.8l-.5.5-.4.6-.8 1-.2 1-.7.7-.8.5-.6.4-.3.8-.5.2-1 .4-.7.3-.8-.1-.3.3v.4l.3.4.2 1 .6 1.7-3-.7-1.2 1-1.6 1.5-.6 3.8-1.1 1.7v1.1l.5 1 .9.7 1.8.6 1.1.6v.5l-.9.5-1.5 1-.8.4-2.7 2.1-.3 1.1-.1 1v11.7l-.4 1.2-1.2 2.5-.5 1.6-.4 2.1-.5 1-.3 2.5.4.3 3.1 1.3 2.9 1.2 3.8 1.6.8 1.7v3.3l-.6 2.3-.6 1.1-3.7 2.7-3.8 2.7-3.8 2.8-4 2.9-.4.3 1.8 3.5 1.1 2.2 1.6 3 .1.7-.3 1 1.3 4.4.3 2.2.4 1.3 1.4 2.2 1.3 2.2 1.7 1.2 1.2.5 2.7 1.6.9 1 1.3 2.3 2.1.1.4.1.1.2-.1.6-.9 2.9v3.1l-.5 4.6-.3.8-.7 1.2-.2.8-.2.5.1.3.6.4 1.7.7 3.5.1.4.2.7.7.5 1v.4l-1 .5-.4 1.2-.1 1.8-.2.2-.8.3-.7 2.5-.2.2-.9.1-4.1-.9h-.5l-1.7.4h-2.8l-.8.1-1.1.6-.9.8-.3.9-.2.2-1.5-.5-.6.7-3.2.6-.4.2-.7.7-.9 2.5-.8 2.3-.3.3-1.1.6-.1.3v.9l-.7 1.6-1.2 4.5-.6 1.2h-.8l-.7.5-1.2.6-2.3-1-1.8-1-6-2.7-.5-.9-.1-1.4-1-.6-1.9 1.6-5.1-2.2H6l-1-.8-3-.6-2-1.7-3.4.2-2.6-.4-3.1-2.9-3.7-1.4-3.2-.5-1.6-.5-2.4-1.5-1-1.1-2.2.1-.6-1.4-5.5-2.4-.6-2.3-.3-2.1.4-1.9-.5-3.7.8-5v-2l-.3-1.9-.6-1.7-1-1.9-1-.9-5-2.6-1.1-.1-2.6.1-3 1-4.4-.2-1.1.5-1.5 1.3-1.6.6-1.8-.8-2.3.4-4.6 1.6-2.2.3-1.7-.6-1.4-1.8-3.5-2.9-2.4-1.4-3.8-.7-1.6-.8-2.3-3-.3-1.7-1.3-1.5-4.5-4-3.3-4.4-.4-1.4.1-1.8-1.2-2.6-3.6-3.1-1.7-2.6-2.6-1.4-2.6-.9-1-.7-.8-1.1-2.1-4.9.5-1.4-.8-4.3v-1.4l.9-3.6-.2-1.1-1.6-2.3v-1.1l1-1 .4-.9-.8-1.3-1.5-1.2v-1.2l1.2-1.9.3-1.4-.6-2.7-1.3-3-.9-4-.5-1.1.3-2.3.3-2.7-1.2-.7-7.3.2-1-2.4-4-5.2-.2-.6-.1-.8.8-.1.7.2 1.1 1.1 1.1-.2.1-1.1-1-1.2-1.8-.8.1 1.1-2.1.1-.9.9-.4 1.5-.8 2-1.1.6-.7.2-2.3-.9-1.5.4-.8-.1-.6-1.1-.4-.8v-1.4l.2-.9.4-.4.1-.8-.3-1.2-.5-.8-.7-.4-.4-.8v-1.2l-.8-1.2-.7-.5 1.5-3 1.3-2.7 1.3-2.6-2.4-1.3-2.1-1.2 1.1-2.2 2.1-4.1 2.7-2.6 2.6-2.5-.4-3-.4-3.2-.5-1.5.3-3.6.1-1.6-.3-.8-.4-.6-2.2-1.1-1.2-2.7-1.3-3.1-1.6-3.9-1.7-2.9-.8-.9-2.4-1.5-.1-.4.3-.9.5-.9 1.6-.9.6-.8.1-3.8V231l-1.2-1.2.8-.6.3-.5.1-.5-.2-.4-.4-.3-1.3-.3v-1.8l-.2-3 7.1-11.1.9.6.7-.4 1.3-2 .7-.6 5.1-1.5 2 .2h1.6l.9-.8.1-.7.3-.9.3-.6-.3-2.3.1-1 .4-.7 1.1-1 1.1-.6 2.1.5 1.3.1.4-.3-.8-1.5-2.6-1.9-2.1-1.1-.5-.6-.1-1.9-.5-1.3 28.4-42.4M246.7 318.8l-1.2.6-1.4.7-1.7.9-1.5.8-1.4.7-1.4.7-.4-1.2-.2-.7-.4-1.4-.4-1.2-.6-1.9-.4-1.2 1.1.8 2.2 1 2.1.8 1.6.6.8.1.6.1h1.6l1-.2M280.5 669.8l.5 1-1.2-.5-.8-.5-.3-.4 1.6.3.2.1M280.8 661.9l-.8.3-.8-.8-.2-.4.1-.3.2-.2h.2l.4.8.9.6"/><path fill="none" stroke="#464745" stroke-width=".4" stroke-linecap="square" stroke-linejoin="bevel" d="M280.6 659.5l1.3-.1 1.3-.2 1 .1 1.9 1.8 4.9 3.1 2.9 3.4.3.8.4.7.6.1.5.3 2.9 3.2.4.7.1.8.2.6.7.2h.8l.6.5 1.1 2.7.1.9.2.4 3.7 4 .3.5v.4l.1.3.7.7 1.2 2 .5.4.8 1.7.6 3.5v1.6l-.3 2-.4 2-.5 1.5-.8 1.3-3 3-.9.6-4.2 2.2-3 2-2.9.9-3.1-.3-2.6-1.5-1.6-2.6-1.3-2.8-1.7-3.1-2.4-9.9-.8-2.7-1.2-3.5-.2-1.6.3-1.6.5 3.3.5.3.3-.5-.2-3.4.1-1.5.7-3.9-.1-.7-.4-1.4-.1-.7 1.4-2.9.3-1.6v-1.6l-.3-1.7-.5-1.6 1.5.3.9.5.9.3.6-.3.8-.1-.7-.8-1.8-.6-2.9-.2-1-.5-.4-.5.1-.7.3-.5M454.2 557.8l-.2.3-.5-.1-.1-.1.9-1.5.2.5-.3.9M450 556.8l-.6 1.3-.6-1.7 1.1-1.2.5-1 .6-.7.3.8-.4 1.6-.9.9M435.7 524.7l-.2.1-1.4-.9-1.2-1.2 1.5-.5 1.5.1.1.7-.2 1.2-.1.5M434.5 513.9l1.5.8.5-.1.9.5.1.2-.1.5-.3.5-1 .6-.7-.2-.4-1.1-.9-.4-.3-.4.4-.7.3-.2M431.3 510.2l.5 1.7-.9-.5-.4-.8-.2-.9 1 .5M425.7 510.6l.3 1.2-.6-.4-.9-1.5-.1-1.1.6.4.7 1.4"/><path fill="none" stroke="#464745" stroke-width=".4" stroke-linecap="square" stroke-linejoin="bevel" d="M464.1 399.5l.5.6.5-.1.5-.2h.3l.6.4 1.1 1.1.5.2.5.5.4 1 .3 1 1.8 3.5.5.7.4.6.6.1.4-.7.1-.7.4-.3h.6l1.1.4.6.2.6 1.8.4 2.1v.7l.7 1.7.5 2 .3 1.1.2 1.1.1 1.4.1 1.9-.2 1.7.4 1.3-.1.6-.9.5v.5l.4.8.9.9.1.7-.3.5-.7.2-1 .6-.5 1.5-.6 1.2-.4.3-1.4-.1-.3.3-.2 2-.3.9-.5.8-.5.5-.4.4h-1.1l-.4 1.2-.3 1.6.1.8.5 1.2-.1.4-.5.4-.9.7-.3 1.8.3 1.7.4.5.7.1.6.4.2.8.6 1v1.2l-1.1 1.9.1.9.8.2.6-.2.7-.5.8-.8 1.8-1.3 2.1-.9 1.7-.4 1.5-.2.8.1.3.3 1.9-.9.4-.1.4-.1v.4l-1.2 1.8-.2.8.2.8.7.6.7.5.7 1.3-.2 1.3.3.4.5.4.4.7.2.9v1.4l2.3.4h1.9l1.4-.1.9.2.6.2.5.4.2.5-.4.5-.7 1.4-.2 1.7.3 1.2.1 1.1-.8 1.7-.2 1.1-.2 1.2.1.5.3.3.5.1h.8l.9-.3 2.3-.1h2.7l1.1.1.4.4.1 1.1v1l.3.7.5.6.7.1.7.2.2.5-.1.7.4.5.4.3.8.1 1.4-.7h1.1l1 .1.8-.3.7-.5 1.4-2.1 1.9-1.4.6-.4h.5l.1.1v.4l.5 1.4-.1.2-.4 1.3-1.5 1.5-1.1.8-.7.1-.5.8-.2 1.5-.4.9-.5.3-.2.6v.9l.4.4.8-.1.1.2-.6.5-.8.3-1 .1-.9.5-.7.9-.4 1.8-.1 2.7v.7l-1.5-.5-.6-.3h-.7l-.7.6-.5.6-.6.3-.9.2-1.3-.1-.9-.1-.1.2.6 1 .3.9-.1.5-.3.4-.5.4-.7.3-.6.1-1.1-.2-.8.1-.6.3-.3.4-.1.4v2.2l-.2.7-.4.5-.5.1h-.7l-.7.2-2.9 1.4-.4.2-1.1.6-.9.2-.6.1-1.6-.6h-.7l-.3.3-.1 1.2-.7.9-.9 1.8.1 2.4.4 1.6-.8 1.8v.8l1.2 3.7v.4l-.2.2-.6.2-1 .6-.7.5-.3.1-1.1-.1h-.3l.1.3 1.1 1.5 1 .6.9-.2.4.1v.4l.5 1 1.1 1.5.4 1.2-.3 1.3.2.4.3.2.9 1 1.9 1.5 1.9 1.7 1.6 1.4 1.1.9 2.5 1.7.5.9.4 1.9.7 1 .6.7.5.6 1.2 2.1.4.2 1.5-1.7.4.2.3.5.1.6-.1.8-.4.8-2.3 2v1.4l.2 2.1.4 2.5.5 1.9v.5l-.4.4-1 .1-1.3 1.2-.5.2-.6.5-.4.5v.7l.7 2 .9 1.9 1.3 1.2 1 1 1.4 1.4 1.1 1.2 2 1.2 2.9 1.8 1.2 1.1 1.1 1.3.8 1.2.5 1.7.4.9.6 3.2-.3.8-.2.9.4.8.7.7.2 1 .9 1.6 1.1.9 1 .5.5.5v.9l.4.9.4 1 .6 1.4.9 1.1 1.8 3.5v.4l-.3.8-.6.8-.4.3-.3.8-.6 2.2-1.4 3.8-1.5 2.6-1.3 1.9-1 1.2-.1.4.1.5.4.8.2 1.5-.1 1-.1 1.1v.9l-.5.2-.8 1.9-.7-.8-.5-.8-.1-2.1-1.4-3.8.3-.6.4-.3.5-1.6.6-1.6-.2-1.8.5-1.4-.4-1-.2-1.3v-1.1l-.2-.8.4-1 .9-.8-.5-.2-.5-.4-1.2 1-.7-.1-.3-.7v-1.3l.4-.7-.2-1.1-.4-.9.2-1.3-.8.1-.4-.2.1-.7.6-.7-.8-1 .3-1.3-.3-1.5-.6-1.2-.2-.9-.8-1.6-.6-2.1-1.3-1.4-1.2-2.2-2.6-2.6-.2-1.3-.3-1.1-.6-.5.1 4.1-.6-.7-.5-2.2-.5-1-.1-2.2-1.6-1.9-.5-1.5-1.2-2.2.1-.6 1.1.3-1.2-1.2-.7.4-.9-1.3-.8-3.9-.9-1.4.1-1.6-1.7-5.2-1.8-1.5V548l.1-1.4-.5-2.4.2-.8.6-.7-.6.3-.5.3-1.3.4-1.5.3-.8-1.7-.9-.7-1-1.7-.7-2 .2-.4-1.3-.6-.4-.5-1.4-1.1-1.6-.8.4.7.4.4-.5 1.3 1 2-.4 1.4-.3 1.8-.4.9-1.4 2.1-1.3.8-.9.3-.8-.1-1.1-.8-.4-.7-.4-1.3-.4-.1-.3.2.8 1.6.1.8 1.3 1.3-.3.5-1.7 1.1h-.7l-.4.2v.7l-.2.4-2.8 1.5-.4 1.3-.2 1.2-1.2 1.9-1.7 1.7h-.5l-.6-.2-.2-1.5.5-1.4-.4-1.3v.8l-1 2.1-.5.7h-1.2l-1.6.5-.9-1.9-.1-.7-.2-.6.1-.7-.1-.5-.2 1v.9l-.5.8-1.5 1.1-.2-1-.2-.9.2-.9-.3-1.3.2-2-.1-.7-.3-.7-.1 1.1v1.1l-.3.4-.6.3-.9 1.4-.5 1.2-1.5 1.3h-.9l-.3-1.3-.1-4.9.6-.8.2-.9.1-2.9.5-1.1-.1-2.3.2-.4.6-1.9-.2-3.2-.6-1.5-1-1.4-1.4-4.5-2.5-3.5-.3-1.2-1.2-1.4.9-.2-2-1.1-.3-.5-.8-3-.2-1.7-.2.3-.1 1.1-.6.5.6 1.8v.5l-.3.8-1.6-.5-1.2-.7-1.5-1.8-1.5-2 .4-.4.6-.1 2 1.4 1.2.2.7-.5.8-.8.2-1.4-.5-.4-.9-.2-.8-.1-.9-.8-.2-.5-.3-.6-.9-.3-.7-.4.4-1 .4-.8-1.5.2-1.8-1-.4-.3-.6-.2h-1.3l-1 .5.7 1.7v.6h-.7l-1.8-2.5.4-.7.6-.7h-.3l-.6.1.3-2.4-.4-.3-.1.8-.2.8-1 1.8-.7-.2-.5-.4.5-1 .3-.3.2-.5-.6-.9-.8-.6-.7-1.1h-.3l.5 1.3.1 2-1.6-2-3.1-2.7-.7-.8-.7-.8-.4-.8-.3-.9-.1-.7-.7-.6-.4-1.1-.3-1.1.2-.8.7-1 .6-.2.5.3 1.2.4.8.4.4.7.4-.1.3-.5-.1-.5-.6-1.4-.3-1.7-.5-4.1-.1-.5.6-.5.2-.5.2-.7.1-.3.4-.1.6.3 1.1 1 .7.2.6-.3.4-1.8.2-.5.3-.4h.6l.3-.4v-.8l-.1-.8-.9-2.2-.3-1-.2-1 .3-1.1.4-1.3-.3-1.1.1-.4.4-.1.6.2.6-.3.4-.7.1-.6V468l-.1-2.3-.2-1.9-.6-1.1-1.1-3 .1-.5.3-.2 1.2.9.5.1.8-.3.8-.3.6-.1.9.3 1.2.3 1.8.3.8.3.6-.1.3-1.2.3-1.8.5-2.7.7-2 .2-.5.9-1.7.8-1.7.6-2.1.3-1.5-.1-.6-.4-.5-.7-.2-.6-.3-.2-.3v-.3l.2-1 .3-1.2.4-.7 1.2-.9.7-1.1.8-1.4.4-.9V434l.2-.4.5-.6.3-.7-.1-.4-.3-.2-.6-1.2-.4-1.9-.1-1.6.2-.7.3-.9.7-.6 1.1-.5 1.6-1.3 2.7-2.8 1-.9.7-.5.6-1.1.8-1.2 1.3-.7.9-.3 4.2-1.3h.7l.8.3 1.1 1.3.9.4 1 .2.7-.3-.1-.6-2.7-3-.3-.9-.2-.9.1-.7.6-.8.8-.9 1-1.1.6-.8.8-.3.3-.4v-.6l-.1-.6-.5-.6V402.2l.3-.5.6-1.3.4-.9.2-.4.3-.7.6-.2.7.1.4.3.6.9M359.5 417.4l.5.3.1.6v.6l-.4 1.4-.4 1-.4 2-.2 3.5.1.6 1.5 1.9.6 1.5.1 1-.4 1.8-.5 2-.3.5-.3.2-1.7-.6-1.1.2-1.3.5H354l-1.1-.1-1.4.9-1.4-.3-.9-.4-.7-1.3-.3-.2-2.8 1.6-.7.1-1.8-.7-1.5-.7-.6-.2-1.4-.2-1.3-.1-1.4-.4-1.7.7h-.7l-.7-.4-.4-.9-.1-.9-.6-.6-.9-.1-1.3.6-1.8.8-.6-.1-.6-.2-.2-.2-.3-.8-.3-.2h-.4l-.8-.2-1-.6-3-1.3-.4-.6V428l-.2-.6-.4-.6-1.5-.6-2.9-.9-1.6-.8-.7.4-1.5.4-.8 1-5-1.4-.8 2-1.6-1.6-4.9-.5-.6-2.8-2.9.6-4.4-3.1-2.2.9-5.1-3.9-1.5.3-1.4-3.1-3.3-1.1-3.9-3-.8.2.1 1.6-5.1-3.7-.2-.5.4-1.6.5-1.4.5-.3.7-.9.3-1.6V400l.7-1.9 1-2.1 1.7-2.2.7-.7.8-.5 1.6-1.6.3-.3.7-.4.7-.1.5.2.5.9.6.8h.8l.9-.7 1.9-3.2 2.5-.6 2.4.3 2.1.5.6 1.1.4 1.1.3.6.7.7 3 1.6 1.7 1.4 2.4 1.9 1.8.8 1.6.1.9.7 1.4 1.5 1.2 1.7 1.5 1.6 1-.1 1.3-.5 1.6-.7 1 .3.9.4.3.8.6 1.5.6 1.6 1 .5 1.1.8.6.6 2.1 1.1.3.5.4.3.5.2.4.2.7.1 2.4-.8.6.1.4.1v.3l-.4 1.1-.3 1.4.4.7 1 .3 2.3.1 3-.1.9.7 1 1 1 1.8.4.8.5.2.8-.3.1-.8v-1.1l.6-.4.4.3.5.9 1.3.7.9.3.9-.2.3-.3.3-1.6.7-.3.9.1.3.3.4.6 1 .2 1 .3 1 .4 1.4 1.1 1.7.1 1.9-.1h1.8l.7-.1 1.9-.9.8-.1h1l1.3-.2M-25.7 508.6l-1 .1-.3-.2.3-2.1 2.7-2.3 1.9-2.8.6 2.8-2 1.3-1.3 2.4-.9.8"/><path fill="none" stroke="#464745" stroke-width=".4" stroke-linecap="square" stroke-linejoin="bevel" d="M-46.4 424l.5 4.6 1.3 4.5 1.5 2.7 1.4 3.5 2.5 3.4 1.2 1.3 5.4 3.2 3 1.4 4.3 1.6 2.7 2.1 1 .3 1.7-.1 1.1.3 2.5 2.6.5 2.1 1 1.2.8 1.8.4 1.8 2 3 1.2 3.2 1.4 2.4 1.4 1.6 2.3.9 1.8.9v1.4l-.5 1.8-.6 1.3-2.2 2.4-.7 1.6-2.5 2.4-2.9 4.2-1.2.9-4 1.8-3.1 2.5-3.9 4.5-3.2 4.6-1.2 1.5h-2l-1.3-.3-.8-.6.6-1.3.4-1.5h-1.2l-1.1.2-3 3.4-1.6 1.5-.6 2.1-1.1 2.6-1.3 2.4-.7 2-.2 1.2.3 3-.4 3 .2 1.9.1 2.2-1.3.5-1 .2-4-.3-4.2.2-3.3.4-2.3 1-3.2 2.5-2.7 7-3.2 2.7-2 .4-4.6-.3h-6.5l-2.4.4-4.4 4-.5 1.4.6 1.1.1 1.2-.5 1-2.1 2.7-2.1 1.9-5.2.7-1.7-1-1.6-.6-3.3-.5-5.4-.2-2.2 1.3-3.3.7-3.1 1.4-5.6-.1-4 .9-.7-2.6-.7-2.6-.7-2.6-.7-2.6-.5-1.8-1.2-.8-.5-1.9-.5-2-.5-2-.5-2-.5-2-.5-2-.5-2-.5-2-.5-2-.4-2-.4-2-.4-2-.4-2-.4-2-.4-2-.4-2-.4-2 2.6-.4 3.2-.5 3.2-.5 3.2-.5 3.2-.5 3.1-.5 3.1-.5 3.1-.5 3.1-.5 3.1-.5 3.1-.5 3.1-.5 3.1-.5 3.1-.5 3-.5 3-.5 3-.5 1.9-.3 1.1-2.2 1-1.8.9-1.8 1-1.8 1-1.8 1-1.8 1-1.8 1-1.8 1-1.8 1-1.8 1-1.8 1-1.8 1-1.8 1-1.8 1-1.8 1-1.8 1-1.8.9-1.6-.7-1.9-.9-2.5-.9-2.6-.8-2.5-.6-1.8-.7-2.2.7-2.4.2-1.2.5-1.8 1.7-2.3 2.1-3 1.4-2 1.3-1.7 1-1.4.7-1.5.1-1.1-.3-.5-.2-.6 1.4-.5h2.4l1.2.4h3.3l.2-.5-.2-.9-.3-1.3-1.9-.6-.5-.5 1.1-1.6.1-.6-.1-.7v-1.2l.5-1.4.6-.9.2-.8.2-1.6.4-1.4.6-.6.9-.5.8-.2.7.2.5.4.1.8-.3.5h-.4l-.2.2.3 1.1.6 1.2h.7l.9-.6.9-.4 1.1-.3.9-.9.8-.5-.2 1.3M-46.9 419.4l-.7.3-.4-.2.3-.8.4-.5.6.2.1.4-.3.6M-40.2 402.5l-.7 1.9-.4 1.6-1.9 4.7-.9.7-.5.6-.4.9-.4.3-.4-.1-.9-.6-.4-.9.3-.9.5-1.6.7-1.5.4-1.7-.7-.5h-.5l1.8-2 .6-.2.4.3h1.2l.9-1.1.6-.6.5.2.2.5M235.8 315.6l.4 1.2.6 1.9.4 1.2.4 1.4.2.7.4 1.2-.2.6-.4.9-1.2.6-1.2.4-.3.3-.1.4-.6.7-1.2.6-.9-.2-.6-.3-3.2.9-1.4-.2-1.2.6-.9.6-1.8.6-1.1-.1-1.6-.6-2-1.1-.8-.6-.8-.1-1.8-.3-1.7-.6-2.1-.8-1-.3-2.1-.7-1.5.4-1.3.4-1.1.2-1.1 1.6-.4.5-.5.8-.3.6.1.7 1.2.7.4.8v.6l-.5.6-.4.4v.4l.2.5.3.4 1.8.4 1.1.1.4.2v.6l-.5.8-1.6.5-.9.6-.4.9-.1.7.2.5.7.6.6.7.2.5-.2.7-.4.9-.9 1-.7.7-.1.3.1.4.4.7.8 1 1 .9.7.3.2.2.1.9v.9l-.3.6.5.6 1.5.1 1.2.4.5-.2.3.2-.4 2v1.2l.3.4 1.1.6 2.3.2 1.3.7 1.4.8.7.8.3.6-.2.8-.9.9-1.4.4-.8.1-4 1.5-1.3.7-1 .9-.4.7-.3.7.6 2.6.1.8-.9 2.7-.3 1 .2.7.8.3.1.6v.5l-1.5.9-1.6.8h-.5l-1.6 1.6-2.7 3.2-1.4 1-.1.6-.2.6.4 1v.8l-.6.8-1 .9-1.9.7-2.3.6-1.1.4-1 2.1-.9 2.2-.4.8-1.5 2.4-2.5 3.6-.6.8-3.5 1.5-3.6 1.7-.7.7-.9 1.7-.9 1.9-.7 1-2.4 2.1-.9 1.7-.3 1.2-2 .5-2.2.4-3.2-.1-1.3.2-4 1.3h-1l-.7-.3-.5-.6-.4-1-.4-1.7-.7-.7-.9-.7-1.1-.1-1.1.5-1 .6-.7.5-.7.6-1.4 2-2.3 2.9-2.4 2-.9.6-.6.5-.8.7-.5.7-.8 2.3-.5 2.1.1.5.3.4 1.1.7 1.6 1.2 2.2.8 1.9.3.7.5.4.6.1.5-.3 1.7-.4 1.9-.9 2-.1 1.2.2 1.2 1.9 3.1.8.4 1.6.2h.7l.8-.2.6.2.4.4.1.6-.3 2.9.5 1.3 1.1 1.9.8 2.1.8 2.5.8 2 .3 1-.6.4-.4.5-.1.7.1.7-.1.5.4.6.5.2v.4l-.8.5-.7-.1-.6.2-1.1 1.1-.5.2-.7.1-.7-.2-1-.5-.3-.8.2-.8-.2-.5h-.8l-2.7.6-2.6.8-.5.6-.6.7-1.2.2h-1.7l-1.2-.2-1-.8-.9-.8-1.5-.2-2.8-.1-1.5-.1-.9-.3h-.9l-1.1-.4-.5.3h-.5l-.3-.7-.2-.1-.3.1-.3.2-.2.4-.4 4.3-1.8-.2-1.3-.1-1.5.1-1.3.2-.7.3-1 .5-.3.9-.5.6-.6-1-.4-.5-.5.3-.7-.1-1.1-1.2-.6 1-2 .1-.2-.8v-.8l-1.2.5-.7-.9-.2-1.2-.3-.3-.3-.4-.8-.5-.6-1.3.1-1.3-.1-1.6-1-5.8-.9-.6-5.2-1.6-.2-1 .7-2.6v-1.7l-1.4-2.4-.3-1.6-1.2-1.5-1.3-.6h-1.4l-.8.4-.5.8 3 .2.6.4.7.7-.9-.1-1-.4-1.3-.1-4.8.1-2.9.6-3.6-.8-4.8.3-3.9-.5-1.9 1.6-.8-.5-.6-.5L65 440l-.3-.7-.8-.6-1.1.6h-.7l-2.8-1.1-2.3.1-1 .7-.3 1.3-2.8-.7-1.5-.7-2.2.1-4.7-1.4-1.3-.1-1.9.6-.9.6-1.1.1-.8-1.1-.6-.5-.7.2-1 .6-2.6-.1-2.3-.5-2.3-1.2.3-.2.6-1.2 1.2-4.5.7-1.6v-.9l.1-.3 1.1-.6.3-.3.8-2.3.9-2.3.6-.8.4-.2 3.2-.6.6-.7 1.5.5.2-.2.3-.9.9-.8 1.1-.6.8-.1h2.8l1.7-.4h.5l4.1.9.9-.1.2-.2.7-2.5.8-.3.2-.2.1-1.8.4-1.2 1-.5v-.4l-.5-1-.7-.7-.4-.2H53l-1.4-.4-.6-.4-.1-.3.2-.5.2-.8.7-1.2.3-.8.5-4.6v-3.1l.9-2.9.1-.6-.1-.2-.4-.1-2.1-.1-1.3-2.3-.9-1-2.7-1.6-1.2-.5-1.7-1.2-1.3-2.2-1.4-2.2-.4-1.3-.3-2.2-1.3-4.4.3-1-.1-.7-1.6-3-1.1-2.2-1.8-3.5 4.6 2.8 3.6 2.2 5.8 3.4 4.5 2.6 1.3.5 14.3 1.7 5 2 1.5.9.3-.3.8-.5 1.3-.4 1.7-.2h1.7l2.3.4 1.6.3 1.1.4 2.3.3 1.1-.1 3.9-.4 2.6-.3 3.9-.4 2.8-.3.8-.3.8-.7.5-.6-.6-1.2.1-1 .8-1.1.6-1.8.4-2.6.1-1.5 1.2-2.6.9-1.4 1.4-.5.9-.3.4-.3.4-.3 1.7-1.9 1.4-.8 1.3-.4 1.2.3.9 1 2 .7 2 .1 1.8-.3.9-.4 1-.3v-.5l-1-.6-.5-.7-.1-.8.7-.4 1.4.1 3.6-1.2 1.6-1 .5-.5h.6l1.2.8 1.4.4 1-.4h.9l.8.8.4.8.7 1 1 .3 1.3-.3 1.5-.8 1.5-1.2 1.3-1.2.4-4.4.2-2.6.8-1.2 1-.7.7-1.2.2-1.1.7-.9 1-2.5.9-.5 1.6-.2 2.5.2 2.2-.9 2.2-.9.4-1.1-.6-1.3-.6-2.4-.7-1.5-1.8-2.8.5-1.5 1.3-.4 2.8 1.5.8.3 1 .3 2.7.4 2.3-.1 2.4-.6.6-.9.2-1.1.2-.9.2-1.3-.7-1-.4-.8-.1-.6.6-.2.7-.5.7-1 1.5-1.1 1-1.1.8-.5 1.2-.6.9-1 .4-.6.7-.6.3-.4-.1-.4-.2-.5-.3-.6.1-.5.4-.5.4-.5v-1.9l-.5-.8-.1-1.6-.4-1.7-.2-.7-.5-.9-1.2-1.1-.3-.6.7-1 1-.5 1.9-1.4 1.1-1 .9-.7 1 .3h.6l.7-.6 1.2-.5 2.1-1 .8-.8 1.1-.3h.8l1.2-.1 1.2-.3 1-.2 1.6.2 2.5.2h1.4l3.2.3 3.4.4h.4l1.4.7.9.5h.4l1.8-.7 2.7-.8 1.2-.4.7-.1 1 .1.7.4.7.6.5.4.7-.1 1.1-.1.9.3 2 1.1.3.4.3 2 .4.2 1.3-.3 1 .3 1 .8.7.7.4.7.4 1.1.1.9.1 1-.4 2.8-.4.4-.4.6v.5l.3.5.7.4.6.2.3.5.3 1.6.3.3.8.1 1.5-.2 1.3-.4.5-.1v1.5l.7.6 1 .8.3.7M505.1 492.4l1.5.5v.7l.3.1.3-.4.4-.9.5-.6.6-.2.7.4.9 1.1.8.6h.3l.3.5.1.5-.1 1.2-.3 1.4-.5 1.7.5 1.3 1.3.9 1.4.4 1.3-.4.7-.5.5-.6.5-.3.7-.2h2.2l.7.3.2.7.1 2 .6 1.3.9 1.4.3 1.3-.3 2.4-.2 2.2-.5 1.1-.4.8-.1.5.1.4.6.5.7.7.3.8.1 1-.1 1.4-.8 3.1-.6 2.8.6.4 1.1.2.8.2.7-.4 1.2-1.8 1.1-1.4 1.4-1.4.1-.1 1.3-1.1.5-.9.2-1 .4-.5.7.1.7-.6.8-1.2.7-.6h.5l1.1.5 1.6 1 1.4.5h1.1l.6.4.1.7.3.4.5.1.2-.1-.1-.3.4-.6.9-.8 1-.6 1-.3.6-.6.2-1.4.5-1.1.5-.6.7-.4.1-.4-.4-.3v-.4l.3-.5.9-.4 1.4-.2 1.7.1 2 .4h1.3l.5-.4 1.4 1 2.2 2.4 1.9 1.8 1.5 1.1 1.5.8 1.5.5 1.2.8 1.3 1.7-.1 2.8.3 2.3.7 2.8 1.2 2 1.8 1.2 1.1 1 .4.9 1.3.5 2.2.2 1 .4-.2.6.1.6.4.7.9.4 1.3.2.8.3.3.5.2.8v1.2l-.3 1-.7.6v1.3l.3 1.5.7.9.4 1.3v1.1l.2 2.2.1.8-.1.8-.5.8-.8.9-1 .8-.6.4-.1.2-.4.8-.5.8-.5.1-.4-.2-.3-.4-.3-.9-1.1-.2h-1.2l-2.3.9-1.9.6-2.2.1-1.9.8-.8.2-1 .1-.9.2h-.9l-1.8-.2-.6.2-1.2.7-1.3.6-1.3.5-1.8 1.3-1.1 1.7-.2 1.1-.5 1.1-.7 1.8-1 1.7-.7.9.3.4-.1.5-1.3.5-1.1.3-.1.3.7 3 .6 1.1 1 1.2.6.7.8 2.2.5 1.9 1.8.9 1 .7.8.7-.1.6-.1 1.6.8 1.9 3 3.8.2.3-.2.1-.5-.8-1.4-1.2-.6-1.4-1.6-1.4-.8-.5-.1.6-.3.7-1.4-.6-1.2-.7-1.3-1.5v.4l-.2.4-1.4-1.1-1.4-.8-1.1-.2-.7-.2-.7-.4-1.4-.3-3.1 1.5-4.3.2-1.5.9-.7-.3-.5-.6.1-1.3-.4-2.6.1-1.9-.5-1.3.1-.7v-.9l-.7-.2-3.1-.1-.7-.4-.7.8-3.5 1-1.2.8-1 1.3-.1 1.4.9.7.7 1.4-.6 3.5v1l1.3 3.9.2 2.2-.4 1.6-.8 1.5v2.3l-.7 1.2-.7 2.6-.2 3.1-.8 1.4.2 2.6-1.7 4.3-.1 2.3-.7 1 .4.6.3 1.1.3 3 .4 2.4.6 1.2 1.6 2.3-.1.8.1 1.1 1.1.3h.7l3.7-2 1.4.1.7 1 .5.9 1.7 5.2.5.9 1 .8 1.1.8.3-.2v-.8l1 .8 1 1.8 4 9.5.8 1.1.8 1.2-1.4-.4-.8-2.1-.5-.9h-.5l-.7.2-.1-.4.4-.8-.3-.8-.9-.6-1.1.8.3 1.5.8 1.1 2.5 2.2.8 1 .9.2 1.1-.4 1.6.8 1.3.8 3 1.1 1.6-.5 1.7-.8 1.2-.1 1.2.2 1.7 1 2.9 2.9 4.2 2-.3.8.1 1.1-1.1 1.7-.1.9-.3 1.1-.9.8-.8.3h-.5l-.4-.1-.8-.9-.4-.2h-.3l-1.7 1-1.6 1.1-.2.7-.3.9-.5.4-.4.2-.5-.4-.8-.5-.6-.5v-.9l.7-1.5-.1-.9-.4-1.6-.5-.9h-.3l-.5-.1-1.3.4-.9-.9-.5-1.1-.6-.3-.5-.2-1 .6-.8-.1-2.8-.5-1.3-1.4-.5.1-.4.3-.1.4.1 1.9-.1.6-3.7-3.1-2.4-1.1-.3-2.8-.7-.4-.8.1-.7-.6.2-1.7-.7.5-1.1.2-1-.3-1.1-2.1-.6-.6-1.2-1-1.3.2-.5-.5-.2-1.5-1.1-.7-1.4-.5-1.1-.2-1.5-2.2-.9-.4-.8-.3-.9.5-.1.9-.5.9h-.7l-.8-.3-1.3-2.2-.4-1.4-.3-2.7.5-2.6-.2-4 .4-2.6.4-.9.2-3.5.9-4.6v-.9l.1-1.1.1-1-.2-1.5-.4-.8-.2-.6.2-.6 1-1.2 1.3-1.9 1.5-2.6 1.4-3.8.6-2.2.3-.8.4-.3.6-.8.3-.8v-.4l-1.8-3.5-.9-1.1-.6-1.4-.4-1-.4-.9v-.9l-.5-.5-1-.5-1.1-.9-.9-1.6-.2-1-.7-.7-.4-.8.2-.9.3-.8-.6-3.2-.4-.9-.5-1.7-.8-1.2-1.1-1.3-1.2-1.1-2.9-1.8-2-1.2-1.1-1.2-1.4-1.4-1-1-1.3-1.2-.9-1.9-.7-2v-.7l.4-.5.6-.5.5-.2 1.3-1.2 1-.1.2-.2v-.5l-.5-1.9-.4-2.5-.2-2.1v-1.4l2.3-2 .4-.8.1-.8-.1-.6-.3-.5-.4-.2-1.5 1.7-.4-.2-1.2-2.1-.5-.6-.6-.7-.7-1-.4-1.9-.5-.9-2.5-1.7-1.1-.9-1.6-1.4-1.9-1.7-1.9-1.5-.9-1-.3-.2-.2-.4.3-1.3-.4-1.2-1.1-1.5-.5-1v-.4l-.4-.1-.9.2-1-.6-1.1-1.5-.1-.3h.3l1.1.1.3-.1.7-.5 1-.6.6-.2.2-.2v-.4l-1.2-3.7v-.8l.8-1.8-.4-1.6-.1-2.4.9-1.8.7-.9.1-1.2.3-.3h.7l1.6.6.6-.1.9-.2.9-.2.4-.2 2.9-1.4.7-.2h.7l.5-.1.4-.5.2-.7v-2.2l.1-.4.3-.4.6-.3.8-.1 1.1.2.6-.1.7-.3.5-.4.3-.4.1-.5-.3-.9-.6-1 .1-.2.9.1 1.3.1.9-.2.6-.3.5-.6.7-.6h.7l.6.2M259.2 455.7l.1.1-.1-.1"/></g><path fill="#212220" stroke="#464745" stroke-width=".4" stroke-miterlimit="10" d="M462 669.3l-.6 1.1-2-2.8-.7-.1-.3-1.5.2-.6 1.6-1 .5.3 1.4 2.7-.1 1.9m-3.1-6.1l-.9 1.4-.6-.6.1-.5.4-.4.4-.5.6.6m-4.7-5.7l-.9.2-.4-.5-.5-.5.2-.6.5-.2.9.7.3.6-.1.3m.8-2.4l-.5.6h-.2l-.1-.3-.1-.2-.2-.4-.2-.8.3-.7.5.1-.1.7.6 1m-5.3-1.5l.4.4h-.7l-.7-.6v-.7l.2-.3.8 1.2m-6.2-10.1l-.5.2-.4-.4-.1-.5.3-.4.3-.2h.3l.4.8-.3.5m-6.4-16.8l-.3.5-1.3-.1-.1-1.3-.5-1.2.1-.6.8-1 .7-.5.7 1.1.4 1.1-.5 2m.6-10.5l-.5.3-.6-.2.4-.6-.1-1 .7.5.1.6v.4m2.6-8.7l.8 1.6-1.1-.6-.4-.5.4-.4.3-.1m-5.3-9.6l-.3.9-.3-1.7.1-.2.2-.1.3.1v1m2.7 16.3l-.2.3-.4-.3-1.5-2-.4-1.4-.4-.4.3-.8.5-.3.2-.8-.1-1.2.3-1.1.2-.3.9-.2.2-.2-.3-.9-.6-.3-.2-.2-.3-2.3v-.9l.2-.7-.4-1.3.1-.5.5-.8V596l-.3-.4.2-2.4-.3-1.6.6-1.7 1.1-.9.4-.1.3 1.3.2.4-.6.9.9.9v.4l-.1.9-.3.9-.6.4-.3 1.2-.2.4 1.1 1 .9 3.8-.5 1.2-.8.3.6 2.5-.1.6-.6 1.4-.1.6-.4.6.3.6.4.2.1.5-.1 1.4.2 1.5-.6 1.4M253.6 366.8l-.6-1.1.6 1.1-.4 1.1v.9l.6 1 .5.7-.6.9-.4 1 .3.5-.2 1.5.2.3.4.1.6-.1.6-.4.5-.1.3.1.5-1.1.4-.1.7.3 1.3 2.2 1.1 1.8.2.3.1.1.2.2 1.2 1 .8.6 1.1-.2h1.5l.9.6.5.4v.1h.1l1.7 1.4.8-.1.5.4.1 1-.3 1v.5l.8.1 1.7.7 1.5.6.8.2.8.5.7.7 1.4.9 1.3.7.3.9-.5-.2-.7.1-.7.4-.3.3-1.6 1.6-.8.5-.7.7-1.7 2.2-1 2.1-.7 1.9v1.4l-.3 1.6-.7.9-.5.3-.5 1.4-.4 1.6.2.5.9.7.9.7 1.1.8 1.1.7 1.1.8v-1.5l.7-.3.8.6 1 .8 1.8 1.4 3.5 1.3 1.4 3.1 1.5-.3 5.1 3.9 2.2-.9 4.4 3.1 2.9-.6.6 2.8 4.9.5 1.6 1.6.8-2 5.1 1.4.7-1 1.5-.4.7-.4 1.6.8 2.9.9 1.5.6.4.6.2.6v1.4l.4.6 3 1.3 1 .6.8.2h.4l.3.2.3.8.2.2.6.2.6.1 1.8-.8 1.3-.6.9.1.6.6.1.9.4.9.7.4h.7l1.7-.7 1.4.4 1.3.1 1.4.2.6.2 1.5.7 1.8.7.7-.1 2.8-1.6.3.2.7 1.3.9.4 1.4.3 1.4-.9 1.1.1h1.4l1.3-.5 1.1-.2 1.7.6.3-.2.3-.5.5-2 .4-1.8-.1-1-.6-1.5-1.5-1.9-.1-.6.2-3.5.4-2 .4-1 .4-1.4v-.6l-.1-.6-.5-.3-.1-.4.1-.4.3-.2 1.5-.4 1.6-.7.7-.3.5-.3.5-.5h.5l1.5.5.6.4.4 1.2.3.5-.1 1.3-.7 3.1.3 1.1.8.8.7.5-.1.2-1.3 1.1-.2.6.3.5.6.4.3.4.4 1.3.7.3 1.4.7 1.3.5 2-.6.6.2 1 .2h.8l.5.2.3.2v.3l.1.3h1.1l.6.1 2-.5 2-.6.8-1.2.4-.1 1.1-.6 1.2.4 1.3.6.7.1h1.3l1.3-.2 3.1-.6h1.7l1.5-1.1h.3l.8.7 1.7-.1.9-.4 1-.4.6-.2.5-.1h.6l.5-.3.2-.5-.1-.7-.5-.3-.4-.4-.1-.2.1-.6.2-.9.5-1-.5-.9-.7-1-.4-.1-1.1.4-1.2.1-1-.5-.8-.7-.2-.6.1-.8.2-.8v-.3l.9-.1h1.3l1 .1.8-.1 1.3-1.1.6-.1.7-.3.3-.2.2.1h.8l.8-.1.7-.3.7-.5 1.2-1 .2-.5-.1-.5-.3-.3-.3-.1.1-.4.5-.7 1.9-1.2 1.5-1.4.8-1 .3-1.2.4-1.3.4-.5 1.1-.4 3.3-.8 1-.6 1.4-1.1.7-.8.4-.6v-.6l1-.3.8-1.1 1-1.2 1.8-1.1 1.5-1.4.6.1.7.5.4.6.1.3 2.2.1.3-.1 1.6.4 1.5.5.8.1.4-.1.3-.2.3-.6.3-.5.2-.2-.1-.7 1.9-1.6 1.8-1.2 1.5-.9.5.2.6.5.9 1.2.5.3 1.1-.3.2.1-.1.5-.7.7-.9.7-.6.5.4 1.4v.5l.3.1 1.8-1.7.9-.4.4.3.2.8 1 1.5.4.8-1.7 2.2-.6 1.1.1.3v.3l-.4.6.1.2.5.3.5.2h.2l.4-.5 1.8-.9h.6l1.5.8h.6l1.6.1 1-.5.8.2 1.7 1 .4.2V404.5l.5.6.1.6v.6l-.3.4-.8.3-.6.8-1 1.1-.8.9-.6.8-.1.7.2.9.3.9 2.7 3 .1.6-.7.3-1-.2-.9-.4-1.1-1.3-.8-.3h-.7l-4.2 1.3-.9.3-1.3.7-.8 1.2-.6 1.1-.7.5-1 .9-2.7 2.8-1.6 1.3-1.1.5-.7.6-.3.9-.2.7.1 1.6.4 1.9.6 1.2.3.2.1.4-.3.7-.5.6-.2.4v1.8l-.4.9-.8 1.4-.7 1.1-1.2.9-.4.7-.3 1.2-.2 1v.3l.2.3.6.3.7.2.4.5.1.6-.3 1.5-.6 2.1-.8 1.7-.9 1.7-.2.5-.7 2-.5 2.7-.3 1.8-.3 1.2-.6.1-.8-.3-1.8-.3-1.2-.3-.9-.3-.6.1-.8.3-.8.3-.5-.1-1.5-1.5-.3.2-.1.5 1.1 3 .6 1.1.2 1.9.1 2.3v2.6l-.1.6-.4.7-.6.3-.6-.2-.4.1-.1.4.3 1.1-.4 1.3-.3 1.1.2 1 .3 1 .9 2.2.1.8v.8l-.3.4h-.6l-.3.4-.2.5-.4 1.8-.6.3-.7-.2-1.1-1-.6-.3-.4.1-.1.3-.2.7-.2.5-.6.5-.3-.8-.9-4.4-.4-1.4-.5-1.9-.4-.6-.5-1-.5-.9-.4-.4-.4-1.7-.3-2.1-.1-1-.8-2-.8-2.3-.7.2-.5-.5h-.3l-.9.6-.8-.1-.5.1.1 1.1.2 1.1-.2.4-1.3 1.5-.3 1 .2 1 .3 1.3-.2.7-.6.7-.8.4-.8-.1-.5-.5-.6-1.3-.5-.7-.4-.1-.3.2v.8l.1.7-.1.1-.2-.1-.3-.3-1.1-3.3-1.3-2.5-.2-1 .2-1.3.2-2 1.1-1.3.1-.5.1-.4.3-.1 1.5-.1.5-.3.4-.6.6-.5.6-.3.5-.1.9.3.3-.3.2-.8.3-.8.2-.4.5-.2.7-.1.2-.2.2-.3.1-1.1.6-2.5.2-1.1v-.2l-.2-1.2.2-.2 1.6.4.7-.1.3-.3.1-.4-.2-.5-1.2-.8-2-1-1.8-.5-3.2.5-3.2.6h-1l-1.2-.2-2.9.3-3.5.5h-1.3l-.7.1-1.3.2-2.2-.1-1.5-.3-1.4-.4-1.6-.3h-.4l-.2-.1-.2-.4-.1-.5.1-2.3-.6-3.5.1-1.3-1.5-2.8-.5-.5h-.6l-.3.4-.1.7.3.7-.4.9-.9.4-1.1-.2-.9-.3-1.2-.8-1-1.1-.2-1.3-.5-.8-.6-.4-.4-.1-.3.1-.3.5.3.4.4.6-.1.5-.3.1-.5-.1-.8.2-.8-.3h-.5l-.5-.1-.1-.8-.8-.9-1.2-1-1.2-.6-.5.1-.2.8.1.3.4.1.6.4.2.4-.1.4-.7.8-.4.7-1 1.1-.9 1.2-.2.9-.3.8-.1.9.3.6.5.3 1.2.2 1.3 1.1 1.1 1.5.6.4 1.1.4 2-.1.3.4.4 1.1.4.4 1.1.5.1.4-.2.5-.4.4-.8.3-.8.2-.8-.1h-1.2l-1.3.1-.7 2.9-.6 1.1h-.4l-1.1-.4-.4.1-1 2.6-.1.6v.5l.7.9.8.7.9.2.7-.3.6.3.8.8 1.2.4 1.7.1 1 .6.2.5v2.1l-.1.9-.7 2.3-.5 2 .4.9.3.3.2.3.8.6.6.7-.3 1.8.3.5 1 .2 1.1.1.4.3-.7 1.9.3 1.3.5 1.2.5 1.9.1.2v.5l.7 1.5 1.2 2.9.2 1.1.1 1.2-.1 2-.9.1 1 1.2.4.9.2 1.3-1 .3-.7-.1-.7-1.1-.2 1.1-1 1.1-.4-.4-.3-.5-.1-.9.2-3.5-.2-.4-.3-.2-.6-.1-.3-.7-.5 3.7.5 1.4-.1.7-1.6.7-1.8-1.2-.3-.4v.8l-.2 1h-1.6l-.8-.7.4-1.3.7-3.1.1-1.4-1.4-.9-1.1-.5-.7-1.3.4 1.5.6.5.9.3 1 .7-.6 1-.6.6-1 2.3-1.4 1.4-1.6 1.1-5.5 1.9-1.1.7-1.6 1.9-1 1.7-.1 1.7.8 1.7.8 2.7.5.5-.5 1.1-1 1.2-.7 1.5.2.8-.2.6-2.9 2.1-.5 1.1-.7 1.1-1.1-.5-.6.1.9.8-.1.6-.3.3-.7.4-4.3 1.7-3.2 1.6h-.9l.1-.4.6-.4-.2-1.4-.6-.2-.5-.1-2.4 2-.9 1.8.2.3.6-.1 1.6-1.1.8.2.1.4-2.5 1.7-5.1 5.4-.2 1-.6 1.2-.9 1.1-1.6 2.7-3.1 4-.8 1.5-5.3 3.4-.9.9-2 3-2.2 2.5-2.6 2.2-4.6 2.9-2.7 2.6-.8 1.6v.6l.4.7.6.7.2.5-.2 1-.1.6-.7 1.4-1.4 1.1-4.6 2.5h-.6l-4-.1-1.4.5-.5 1-1 4.1-1.2 1.2-.4 1-.1.7h-.8l-.7-.2-.5.3-.7-1.3-1-.2h-.8l-3.2 1.6-1.1 1.2-2 5.3-.3 3.4.9 3.6 1.1 2.8.3 1.3v1.7l-.4.9-.2 1 .6 2 1.3 2.6.4 1.1.1 1.2 1.1 2.6-.6-.4-.5-1.1-1.1-1.3-.9 1.5.8 1 2.4 1 .8.9-.6 9.1-.8 3.3-1.2 2.2-.6.9-1.3 3.5-.7 4.1-.1 1.6.7 1.7-.5 1.1-.6.9 1.4-.5.6.9.3.9.7 5.7.6 6-1 .4-1.2.2h-1.1l-.8-.1-1.8.5-.9.8-.7 1.2.3 1.9-2.9 5.1-.6 1.7-.1 1.5.6.7 1 .7 1.2.2h2.3l1.1.3.8.7-2.7-.5-3.1.2-7.2 3.2-1.8 1.8-.9 1.5-.4 3.2.1 2.1-.7 1.8-3.6 3.2-2.4 1.1-.8.8-3-.5-3.5-1.9-1.5-1.1-5.5-5.4-1-.7-1.3-2.5-.3-.9-.3-.4-.5-.2-.3-.4-1.4-2.8-.8-3-1.1-3.4.6.2.9 1 .6 1.6.3 2.3.6.2.5-.3-2.1-5.1-1.5-1.2h-.4l-.5-.8-.2-1.1.1-.5-1.3-1.6-.5-1-2.9-5-1.4-3.7-2.1-4-1.2-1.4-2-3.1-1.5-1.4-1.7-1.9-1.2-.8-.5-.4-4-6.8-1.4-3.8-1-1.8-.6-1.4-1.6-5.9-.1-1.1-.2-1.2-1-2.5-1.7-2.6-.5-1.7v-.7l-1.1-2.6-.3-1.2-.7-1.1-.8-1-.8-.8-2-2.6-.7-.6-1.3-1.7-1-3.2-1.2-1.2 1.8-.1-1.1-1.1-.6-.8-.6-.5.8-1.2-1.4.1-.8-.7-1.1-2.2-1.9-2.5-.4-1.4-1.7-4.3-1.6-10.4-1.3-4.6.1-1.3-1.5-4-.8-2.7-.3-2.3-.4-1.5-.4-3-.6-.9-.1-.6.4-1.4 1-2.1.4-1.3-.5-1.9-.9 2-.9.6-.4-1.5v-2l-.1-.5.2-.7 2.4.3-2.7-1.2-.3-.7-.1-.5.6-1-1-.8-.4-2.5-.3-.6-.1-.5.6-3.5 2.3-6.8.2-1.5-.2-2.2-.5-1.7-.2-1.8-.1-.5-.8-.2-.8-.7-.9-2.7.8-.9.6-.5-.9.2-.7-.1 1.4-1.2 1.2-.9 2.8-1.1 1.2-.7-1.8.6-1.8.2-3.9-.2.7-2.5.7-.8.7-.5-1.1.1-1.2-.2.5-2.6 1-.5 1.1-.1 1.3-.3-1.4-.5-1.5-.2-1.8.4-1.6-.4-2-.1.8.4.8.8-.5 1.4-.4.9-.7.4-.9.9-.3.8-.5.5.9.4.9.3.5.7.6 1-.1 1.8-2.5 4.3-.8.9-6 2.5-2.4 1.4-5 1.7-2 .3-2.2-.4-3.1-1.5-4.7-3.8-1.2-1.3-3.7-4.9-2.7-2.6-2-2.4-2.5-2.3-2.3-3.1-.4-1.4.3-1.4 1-.7 1.1.4.8 1.2.6.6.5.2 3.8-1.6 1.4.2 1-.8 1.2.3 2.6-1.2h1l1.3-.2 2.2-3.4 1.6-2.1 1-.4v-.5l-.2-.7-.7.1-.5.6-.4.8-.4.5-1.1-.5h-.8l-1 .2-3.6 1.1-1.5 1.1-1 .2-5.7-1.7-5.4-3.4-2.2-2.1-1.3-2.6-1.3-3.1.6-.8 2.5-1.6 2.1-1.3-1.8.5-2 .7-1 .5-1.2 1.2-1.5.2-.4-2-.2-1.9 1-.5.7-.3 1.3-.2 1.5-.1 1.3.1 1.8.2.4-4.3.2-.4.3-.2.3-.1.2.1.3.7h.5l.5-.3 1.1.4.9-.1.9.3 1.5.1 2.8.1 1.5.2.9.8 1 .8 1.2.2h1.7l1.2-.2.6-.7.5-.6 2.6-.8 2.7-.6h.8l.2.5-.2.8.3.8 1 .5.7.2.7-.1.5-.2 1.1-1.1.6-.2.7.1.8-.5v-.4l-.5-.2-.4-.6.1-.5-.1-.7.1-.7.4-.5.6-.4-.3-1-.8-2-.8-2.5-.8-2.1-1.1-1.9-.5-1.3.3-2.9-.1-.6-.4-.4-.6-.2-.8.2h-.7l-1.6-.2-.8-.4-1.9-3.1-.2-1.2.1-1.2.9-2 .4-1.9.3-1.7-.1-.5-.4-.6-.7-.5-1.9-.3-2.2-.8-1.6-1.2-1.1-.7-.3-.4-.1-.5.5-2.1.8-2.3.5-.7.8-.7.6-.5.9-.6 2.4-2 2.3-2.9 1.4-2 .7-.6.7-.5 1-.6 1.1-.5 1.1.1.9.7.7.7.1 1.5.4 1 .5.6.7.3h1l4-1.3 1.3-.2 3.2.1 2.2-.4 2-.5.3-1.2.9-1.7 2.4-2.1.7-1 .9-1.9.9-1.7.7-.7 3.6-1.7 3.5-1.5.6-.8 2.5-3.6 1.5-2.4.4-.8.9-2.2 1-2.1 1.1-.4 2.3-.6 1.9-.7 1-.9.6-.8v-.8l-.4-1 .2-.6.1-.6 1.4-1 2.7-3.2 1.6-1.6h.5l1.6-.8 1.5-.9v-.5l-.7-.7-.8-.3-.2-.7.3-1 .9-2.7-.1-.8-.6-2.6.3-.7.4-.7 1-.9 1.3-.7 4-1.5.8-.1 1.4-.4.9-.9.2-.8-.3-.6-.7-.8-1.4-.8-1.3-.7-2.3-.2-1.1-.6-.3-.4v-1.2l.4-2-.3-.2-.5.2-1.2-.4-1.5-.1-.5-.6.3-.6v-.9l-.1-.9-.2-.2-.7-.3-1-.9-.8-1-.4-.7-.1-.4.1-.3.7-.7.9-1 .4-.9.2-.7-.2-.5-.6-.7-.7-.6-.2-.5.1-.7.4-.9.9-.6 1.6-.5.5-.8v-.6l-.4-.2-1.1-.1-1.8-.4-.3-.4-.2-.5v-.4l.4-.4.5-.6v-.6l-.4-.8-1.2-.7-.1-.7.3-.6.5-.8.4-.5 1.1-1.6 1.1-.2 1.3-.4 1.5-.4 2.1.7 1 .3 2.1.8 1.7.6 1.8.3.8.1.8.6 2 1.1 1.6.6 1.1.1 1.8-.6.9-.6 1.2-.6 1.4.2 3.2-.9.6.3.9.2 1.2-.6.6-.7.1-.4.3-.3 1.2-.4 1.2-.6.4-.9.2-.6 1.4-.7 1.4-.7 1.5-.8 1.7-.9 1.4-.7 1.2-.6.1.2.4.3.5.2.6-.2.7-.2.3.2v.4l-.6 1.8v.7l.6 1.6.7 2.5.7 2.4.4 1.6.4.7 2 .8 1.6.6.9.9 1 .9.7.6.3.7v.6l-.1.4-.5.5-2 1.2-.3.4-.1.5.3 1.7.2 1-.1 2.1v2l.6.9.5.6.3.5.7.8.6.6.5.3.2.7-.2.8-.2.7v.4l.4.3.6.8v1.1l-.1.7.2.7v.7l-.3 1.8v.8h-.6l-.5.3-.7 1.1-.8.3h-.9l-.9-.8-.7-.8-.2-.4-.1-.8-.4-.5-.8.2H251l-1.3.1-.2.2v.3l.3.7.2.9.1 1.3.3.9.1.3 1.9 2.6.5.5.1.3.6.9m-64.7 325.4l-.2.2-.2.1h-.1l-.1-.2v-.1l.2.1.2-.2.2-.5v-.2l.1.1v.3l-.1.4m-8.3-41.3l-.1-.2.1-.4.1-.3v.7l-.1.2" id="India"/><path fill="#F0C30E" d="M311.7 426.4l1.5 1.9-.4 1.4.9-.1.5 2.6 2.2.4-.1 1.6 2.1 1.3h-3.8l-.4 1.3-1.6.3v.9l3.1.9-.1 1.6-1.8.1v.8l2 2.3 4.2 1.3 1.3 1.8-1.6.7-1.9-.8-.7 1.1-2.1-.7-2.8 3.8-5.6 3.3-.3 2.4.9 3 1.9 1.9-.4 1.3-1.2.4.8 1.7-1.4 3.5-2.7 3.1-3.4-1-.2-.2v-.3l-.7-.1v-.2l.2-.2.1-.4-.1.1-.1-.1-.1.1-.2-.1-.2.1-.1-.3-.5-.4.2-.4.2.2.4.1.2-.4-.1-.7.3-.2v-.3l.2-.5-.1-.9-.1-.1-.5.1-.1-.2.1-.5.2-.1-.1-.6.2-.3-.3-.3v-.2l.1-.1-.1-.2h.4v.2l.7-.2-.1-.6h-.4l.2-.2-.1-.4-.8.1-.1-.5-.4-.3-1.5.7-.2-.4-.9.1v-.2l-.3-.2-.3.3.1.3-.1.3.1.4-.1.1-.6-.1-.3-.3-.2.2h-.3v-.8h-.2l-.2-.2-.1.1h.1l-.1.2-.2-.1-.1.1-.1-.3.2-.2v-1 .3l-.1-.2h-.1l.1.2-.2-.1-.1.1.2.3-.1-.2h-.4l.3-.3-.1-.3h.3-.1l.1-.2h-.4l.2-.3-.4.3.2.1-.1.1-.3-.1-.3.2-.3-.4-.9-.4-.5.1-.1.2-.8-.8.2-.5-.1-.2-.1-.9-.1.2-.7-.3-.5.2-.5-.4-.8-.1v-.1l-.3-.2v-.1l-.4.3h-.2l.1-.1-.2-.2.4-.4-.1-.2-.2.3v-.2l-.2-.2.3-.1v-.2l-.1-.1-.3.1.1-.2-.2-.1-.4.1h-.2v.2l.3.2-.1.2h.1v.1l-.3-.1v.3h-.2l.1.2.3.2-.3.4-.3-.2-.7-.2.4-.1-.1-.3h-.3v.1h-.1l-.3-.2-.2-.4-.3-.1-.2.1.1.6-.2-.6h-.4v.2l-.3.6.2.3v.4l-.4.7-.2-.1v.1l.1.2-.2.2.2.5-.3.1.2-.1-.4-.3-.1.6h-.1l-.1.3-.5-.4-.1-.4h-.6l-.1.2-.1-.1.2.2-.1.1-.2-.1-.2.2-.2-.1-.2.2-.1-.6-.6.2.1.2-.2-.1-.6.2v.1h-.3l.1-.1-.3-.4h.4l.3-.3v-.2l-.2-.3.5-.4-.1-.2.1-.3-.1-.2.1-.3h.2l.2-.3-.4-.4-.2.1-.4-.1.2.2-.2.2v.6l-.1.1-.1-.3h-.2l-.1-.2-.2.1-.1-.2-.4.2-.2-.2-.3.2v.1h.3v.3h.3l.4.2.1.2-.1.1h-.5l-.2-.1-.5.2-.7-.2.1-.2h-.1l-.1.2v-.2l-.2-.1-.2.1-.2-.2.4-.2-.1-.2-.2.1-.1-.3-.1.3.1.1-.2.2.2.5-.5-.3v.2l-.2.1-.3-.2v-.2h-.5l.3.2-.1.1.1.2-.1.2.5.2v.4h-.6l-.3.4-.3-.1.1-.3-.4-.3.2-.2.3.1.3-.1h-.3l-.1-.4h-.2v-.2l-.2.2-.2-.1-.1.2-.1-.1-.2.2h-.2v.1l.2.1-.1.1.2.2-.1.1-.3-.2-.1.1h-.2l-.1.3-.6-.4-.1-.1.2-.2v-.2l.3.2.3-.2h.2l-.1-.1v-.3l.3-.3-.3-.2v-.2l.9-.4-.4-.9-.2.1-.4-.5-.5-.1.1-.6-.1-.3.1-.2-.1-.3-.3-.4-.3-.1-.1.3-.2-.1-.2.1-.2-.2-.1.5h-.3v.2l-.4.4-.5-.3-.2.2-.5-.1-.2.2v.3l-.3.2.1.3h-.7l-.4.5-.1-.3v.2l-.4-.2-.3.2.2.3-.1.3.2.7-.3.4.2.2h-.4l-1-.5-.4.1-.4-.1-.1.2-.6-.2-.3.2.1-.3-.1.1-.4-.4-.4.5-.2.1.1.4h-.2l-.1.2-.3-.1.1-.5-.4.4v-.3l-.2-.1v.2l-.2.2-.3-.5.1-.3.2-.2.1-.2h.3l.1-.2-.2-.1.4-.6h.4l-.4-.2v.1l-.2.2h-.4l-.1-.2-.4-.2v.3l-.2.1v-.3l-.3-.1.2-.5-.6-.1-.1.2h-.2l-.2.2-.1.5.2.1.1-.3.3.4h.2l.1-.2.2.1.3.2h-.2l.2.2-.1.2-.2-.3-.6-.3.1.7.1.1.1-.2.1.1v.3l.2.4-.2.2h-.3l-.1.2-.2-.1v-.4l-.2-.1-.2.2.3.1-.1.3-.2-.1-.2.1-.3-.4-.2.1v.2h.1v.1l-.1.1h-.6l.1-.2-.2-.2.1-.3-.4-.2-.1-.2-.5.7-.3-.1.1-.4-.1-.2.2-.3v.2h.1v-.4l-.3-.2.1-.1h-.2v-.3l-.1-.2h-.2l-.2.4.3.1.1.5-.6-.3-.3.2-.3.5-.3.1-.1-.4.2-.4-.2-.2.1-.3.2.1.2-.4.5.2v-.3h.3l-.2-.4v-.5l-.3.2-.1-.2-.1.1-.4-.1v.2l-.2.1.1.1.1.3-.1.1-.2 1-.1-.3-.3-.2.1-.4h.1-.1l-.2.2-.1-.1.1-.2.3.1.3-.4h.1l-.1-.2.5-.5.9-.2-.2.3-.3-.1-.3.1v.2l.5.2.2-.3h.3v-.1l-.2-.1.1-.4-.1-.2-.2-.1-.2.2-.3-.2.3-.3.1-.3-.2-.1h.2l-.2-.3v-.1h.2l.2-.2-.2-.3-.2.3-.1-.2h-.4l-.1.2.2.1v.2l-.6.1-.1.1.2.2.1.3-.2.5h-.2l-.1-.1.4-.1-.2-.1v-.1l-.2-.1-.2.2.1-.2-.3-.2-.4.2-.2-.4-.1.1-.1.4.2.2.1.3.5-.1.2.2-.9.2v.2l.2-.1-.1.2.2.1v.3l-.6.1-.2-.1.1-.3-.2-.2v.2l-.4-.1v-.4l.1.2.4-.4-.3-.2-.1.2-.3-.1-.2.1v.3l-.1.2-.2-.2-.2.1-.1.3-.3-.1v.2h.3v.4l-.3.1-.1-.2-.2-.1v.1l.1.1v.2l.2.1-.2.3-.3.1-.1-.3-.3.5-.3-.2-.2.2.2.3.6-.4.1.2.2-.1v.2l.5.2-.3.5.2-.1.3.8.1.9.3.1.3.4-.1.9-.1.3.4.3.2.6 1.2.5.2.6-.2.3.1 1.1-.5.7.1.7.4.2.3-.2h.4l.1-.2h.2l.2-.3h.2l.4.8.4.4-.1.2v.4l.3.1-.4.2h-.2l.1-.1-.2-.1-.1.5.3.1.1.2.5-.1.1.2-.3.7v.2l-.8.7.1.4-.4.3v.4l-.4.1-.3.2-.2-.1v.3l-.2.1-.3-.6-.1-.5-.1.3h-.2l-.1-.2-.1.2-.3.1-.4-.2-.1-.4-.3-.3-.1.1v-.3l-.3-.1-.2-.6-.7-.2-.1-.2-.2-.1-.4.5v.2l-.4.3-.1.5-.2.2h-.4v-.2l-.4-.2-.2-.4.5-.6-.1-.1h-.2l-.1-.2-.9-.6.1-.3-.4-.2v-.3l-.3-.1.1-.2.4-.2.2-.8-.2-.5.2-.2-.6-1.1.1-.3-.2-.5-.2-.4-.3-.1-.1-.2.1-.2.4-.2.2-.3 1.3-1.1.2-.3-.1-.9.5-.2.4-.4h.5l-.3-.3h.2l.1-.2-.4-.1-.1-.2h-.2l-.1-.2.2-.2-.6-.4.2-.2-.3-.2v-.3h-.2l-.3-.2.4-.3-.2-.3-.3-.1.1-.2.4-.3v-.4l.2-.3.2.2h.2l.3-.5h.2l-.2-.4.1-.1-.1-.3.3-.4.2.2v-.2l.3-.2.7.2h.4l.3-.2.5.2.3-.4.4-.2.3.1.8-.3.1-.7-.3-.3.1-.1-.5-.3-.1-.3.3-.1.3-.6.3.1v-.2l-.1-.1-.1.1-.1-.1.2-.2.3.1.1.3.2.1.1-.6h-.3v-.2l.3-.3.2.1.1-.4-.1-.3.3-.1.2-.3h.2v-.3h.1l-.1-.2.3-.2-.1-.4.4-.3.1-.2h.1l.1-.2-.7-.6.2-.3h.4v-.2l-.2-.2.1-.2h.3v-.3l-.4-.3.3-.1.3.3h.3l.1-.2-.3-.2.2-.2.3.1v-.3l.2-.2v.2h.1v-.3l.2-.1.1-.2-.7-.3.1-.3v-.4h.4l.1-.4-.3-.2-.2.1v.1l-.4-.2.3-.3v-.3h-.2l-.3-.7h-.2v-.3l-.2-.2.1-.2h.3l-.3-.5.2-.3-.1-.1h-.2l-.4.3.1-.5-.5-.2-.5.1-.6-.8h-.6l-.2-.4-.3.2-.1-.3-.5.1-.2.3-.5-.1-.2.3h-.4l-.7-.4-.7-.1-.3-.5-.5.1-.3-.6-.1-.1-.9.2-.2.5-.7-.3.2-1.5-2.4 1.1-3.1-1.1-3.1 1.1-.6 1.4-.3-1.6 4.1-1.9-3.1-1.1 2.1-1.4-.7-2-2-.9-1.1-1.9-.6-3.4.2-.4.4-.1v-.2l.2-.1h.9l-.1-.3.1-.2.4.3.3-.2v-.6l.2-.1.2.2.2-.1-.1-.2h.2l.2-.2-.2-.3-.1-.5-.4-.3.1-.3-.2-.3.1-.2.2.1v-.2l.2-.2-.2-.2.2-.1v-.2h.3l.2-.2-.1-.2h-.3l-.2.1v-.3l.1-.1.3.2.1-.2-.1-.2.3-.3-.6-.1-.3-.2.4-.1v-.4l-.4-.4.4-.4-.4-.4.1-.2-.4-.3-.1-.3h-.2l-.1-.1.1-.1h-.3l-.2-.2v-.2h-.3l-.1-.2-.5-.9.4-1.8-1.4-2-1-8.9.5-3.2 5.8-8v-.1l-.1-.1 4.3 2.2-1.9 1.9-1 2.7 1 2.9 1.8-.5-.1 1.5.9.3 2-2.1 2.6-.1 1.7 2.5 4.1 2-2.7 1.7 1.6.9.5 1.5h2.6l.4 1.5 2.4.5.8 1.7 4.4-.3-.1 1.2.9-.5.7 1.5 1.4-1.5 5.2 3.8-.1-1.6.8-.2 3.9 3 3.3 1.1 1.4 3.1 1.5-.3 5.1 3.9 2.2-.9 4.4 3.1 2.9-.6.6 2.8 4.9.5 1.6 1.6.8-2 5.4 1.7m-39 30.6l.1.1-.1-.1m-23.9-1l.4-.3-.2.1-.2.2" id="Uttar_Pradesh"/></svg>