<svg id="Layer_1" xmlns="http://www.w3.org/2000/svg" viewBox="-985 -2.7 518 518.1"><style>.st0{fill:#fff}.st1{fill:#007ec6}.st2{fill:#263f78}</style><circle class="st0" cx="-722.5" cy="254" r="251"/><path id="path3758" class="st1" d="M-543.4 165.4c.1 0 24.6 48.5 20.3 100.1-2.4 86.7-79 185.1-193.2 188.3l-15.9-.3c-117.7-5.8-190-105.7-189.7-195.9.3-16.8.2-35.5 7.3-58.7l7.2 2.2c30.2 11.4 62.7 99.5 168.5 104.5 4.6.2 13.4.4 13.4.5-6.8 6.8-45.8 22.9-63.4 27.1 4.6-1.1-.4-.1 0 0 42.5 26.4 85.1-24.4 140.3-31.8l16.9-1c-3.2-10.2-17.8-9.3-19.2-9.2-38.2 3.8-28.7-.6-29.9-.2 58.7-18.4 92.6-65.4 134.8-122.6l2.6-3z"/><path id="text4662" class="st2" d="M-921.6 324.8l-20.1 6.3-.9-3 11.7-13.9c.3-.3.5-.6.7-.8s.5-.4.7-.6l-16.3 5.1-.8-2.6 20.1-6.3.9 3-11.8 14.2-.6.6c-.2.2-.4.4-.7.6l16.3-5.1.8 2.5zm-15.4-22l-1.4-6.4-8.4 5.1 9.8 1.3zm9.8 4.1l-22.2-3.3-.7-3.1 19-12 .6 3-5.7 3.5 1.7 8.1 6.6.9.7 2.9zm-4.6-25.2l-18.3 2.3.8 6.6-2.5.3-2-16 2.5-.3.8 6.6 18.3-2.3.4 2.8zm-1.3-12l-21 1.4-.2-2.9 21-1.4.2 2.9zm-11.1-9.6c2.7 0 4.8-.6 6.3-1.8 1.5-1.2 2.3-3 2.3-5.2s-.7-3.9-2.3-5.1c-1.5-1.2-3.6-1.9-6.3-1.9-2.7 0-4.8.6-6.3 1.8-1.5 1.2-2.3 2.9-2.3 5.1 0 2.2.7 3.9 2.3 5.2 1.5 1.3 3.6 1.9 6.3 1.9zm0 3c-3.5 0-6.2-.9-8.1-2.7-2-1.8-2.9-4.2-2.9-7.3 0-3.1 1-5.5 3-7.3 2-1.8 4.7-2.6 8.2-2.6 3.5 0 6.2.9 8.1 2.7 2 1.8 2.9 4.2 2.9 7.3 0 3.1-1 5.6-3 7.3-2 1.7-4.7 2.6-8.2 2.6zm10.8-23.5l-20.9-2.2.3-3.1 16.2-8.2c.4-.2.7-.3 1-.5l.9-.3-17-1.8.3-2.7 20.9 2.2-.3 3.1-16.5 8.4c-.3.1-.5.2-.8.3-.3.1-.6.2-.8.3l17 1.8-.3 2.7zm-5.3-26.4l1.3-6.4-9.7 1.3 8.4 5.1zm7.4 7.7l-19.1-11.8.6-3.1 22.2-3.5-.6 3-6.6.9-1.6 8.1 5.7 3.4-.6 3zm4.4-20.5l-20.2-5.8.8-2.8 17.7 5.1 2.9-10.1 2.6.7-3.8 12.9zm-1.7-28.6c2.5 1.1 4.7 1.3 6.5.8 1.9-.5 3.3-1.8 4.2-3.8.9-2 .9-3.9 0-5.6-.9-1.7-2.6-3.1-5.1-4.2-2.5-1.1-4.7-1.4-6.5-.8-1.9.5-3.3 1.8-4.1 3.8-.9 2-.9 3.9 0 5.6.8 1.7 2.5 3.1 5 4.2zm-1.2 2.7c-3.2-1.4-5.3-3.3-6.4-5.7-1.1-2.4-1-5 .2-7.9 1.2-2.9 3.1-4.7 5.6-5.5 2.5-.8 5.3-.6 8.5.8s5.3 3.3 6.4 5.7c1.1 2.4 1 5-.2 7.9-1.2 2.9-3.1 4.7-5.6 5.6-2.5.8-5.3.5-8.5-.9zm19.7-33.9l1.4-2.4c2.2 1.4 3.5 3.1 4 5.3.5 2.2.2 4.4-1.1 6.6-1.5 2.6-3.5 4.1-6.1 4.6-2.6.5-5.4-.2-8.5-1.9-2.9-1.6-4.7-3.7-5.5-6.2-.8-2.5-.5-5 1-7.6 1.2-2.1 2.7-3.5 4.5-4.2 1.8-.7 3.7-.7 5.7.2l-1.4 2.4c-1.3-.5-2.6-.4-3.7.1s-2.1 1.5-2.9 2.8c-1 1.9-1.2 3.7-.5 5.4.7 1.8 2.3 3.3 4.6 4.6 2.2 1.3 4.3 1.7 6.3 1.4 2-.3 3.4-1.3 4.4-3.1.8-1.5 1.1-3 .7-4.5-.4-1.4-1.4-2.6-2.9-3.5zm10.1-1.4l-17.3-12 8.6-12.3 2.1 1.5-6.9 10 5.2 3.6 6.4-9.2 2 1.4-6.4 9.2 5.8 4 7.1-10.2 2.2 1.5-8.8 12.5zm6.5-23.7l4.2-5-9.2-3.4 5 8.4zm2.8 10.3l-11.2-19.5 2-2.4 21.2 7.5-2 2.4-6.3-2.3-5.3 6.4 3.4 5.7-1.8 2.2zm13.6-16l-14.9-15 2.2-2.2 17.7 3.9c.4.1.7.2 1.1.3l.9.3-12-12.1 1.9-1.9 14.8 14.9-2.2 2.2-18.1-3.9c-.3-.1-.6-.1-.8-.2-.3-.1-.5-.2-.8-.3l12 12.1-1.8 1.9zm15.2-14.7l-13.8-15.9 2.2-1.9 13.8 15.9-2.2 1.9zm12.7-20.1l2.2-1.7c1.4 2.1 2 4.3 1.6 6.5-.4 2.2-1.6 4.1-3.6 5.6-2.4 1.8-4.8 2.4-7.4 1.8-2.6-.6-4.9-2.3-7.1-5.2-2-2.6-2.9-5.2-2.6-7.9.2-2.6 1.5-4.8 3.9-6.6 1.9-1.4 3.8-2.1 5.8-2.1 2 .1 3.7.9 5.1 2.4l-2.2 1.7c-1.1-.9-2.2-1.4-3.5-1.4-1.2 0-2.5.5-3.8 1.5-1.7 1.3-2.6 2.9-2.6 4.8s.8 3.9 2.4 6.1c1.6 2.1 3.3 3.3 5.2 3.8 1.9.5 3.7.1 5.3-1.1 1.4-1 2.2-2.3 2.4-3.8.3-1.4-.1-2.9-1.1-4.4zm15.4-11l5.7-3.2-7.4-6.5 1.7 9.7zm-.9 10.6l-3.6-22.2 2.7-1.6 17.2 14.4-2.7 1.5-5-4.4-7.2 4.1 1.2 6.6-2.6 1.6zm18.2-10.2l-8.6-19.2 2.9-1.3 15.2 9.9.9.6c.3.2.5.4.7.6l-7-15.6 2.5-1.1 8.6 19.2-2.8 1.3-15.5-10c-.2-.2-.5-.3-.7-.5-.2-.2-.4-.4-.7-.6l7 15.6-2.5 1.1zm20.9-28.6l-4.7 1.6 5.1 15.2 4.7-1.6c2-.7 3.3-1.8 3.9-3.5.6-1.6.5-3.7-.4-6.3-.8-2.4-2-4.1-3.4-5.1-1.6-.8-3.3-1-5.2-.3zm-1.5 20.1l-6.7-20 7.6-2.5c2.8-.9 5.2-.8 7.2.4 2 1.2 3.6 3.3 4.6 6.5 1.1 3.2 1.2 6 .2 8.3-.9 2.3-2.8 3.9-5.5 4.9l-7.4 2.4zm29.5-17.5l6.4-1.2-5-8.5-1.4 9.7zm-4.3 9.7l3.7-22.1 3.1-.6 11.7 19.2-3 .6-3.4-5.7-8.1 1.6-1 6.6-3 .4zm25.2-4.3l-2-18.4-6.6.7-.3-2.5 16.1-1.7.3 2.5-6.6.7 2 18.4-2.9.3zm14.4-19.2l.2 17.9h-2.6l-.2-21h4.1l5.4 16c.2.5.3.8.3 1.1.1.3.1.5.2.7.1-.4.1-.7.2-.9.1-.3.2-.5.2-.8l5.2-16.2h4.1l.2 21h-2.8l-.2-17.9c-.1.3-.1.6-.2.9l-.3.9-5.2 16.2h-2.7l-5.5-16-.3-.9c.1-.3 0-.6-.1-1zm25 7.7c-.3 2.7.1 4.8 1.2 6.5 1.1 1.6 2.7 2.6 4.9 2.8 2.2.2 4-.4 5.3-1.8 1.4-1.4 2.2-3.4 2.5-6.1.3-2.7-.1-4.9-1.2-6.5-1.1-1.6-2.7-2.5-4.9-2.8-2.2-.2-4 .4-5.4 1.8-1.3 1.4-2.2 3.4-2.4 6.1zm-3-.3c.3-3.5 1.5-6.1 3.4-7.9 1.9-1.8 4.5-2.5 7.6-2.2 3.1.3 5.4 1.5 7 3.6 1.6 2.1 2.2 4.9 1.8 8.4-.3 3.5-1.5 6.1-3.4 7.9-1.9 1.8-4.5 2.5-7.6 2.2-3.1-.3-5.4-1.5-7-3.6-1.5-2.1-2.1-4.9-1.8-8.4zm22.8 6.1l2.7.5c-.3 1.5 0 2.8.8 3.9s2 1.8 3.6 2.1c1.6.3 2.9.2 4-.3s1.7-1.3 1.9-2.5c.3-1.6-1.2-3.1-4.5-4.6-.2-.1-.3-.2-.5-.2-2.7-1.2-4.4-2.3-5.1-3.3-.7-1-1-2.2-.7-3.8.4-1.8 1.3-3.2 2.9-4 1.6-.8 3.5-1.1 5.7-.6 2.3.5 4 1.4 5 2.8 1.1 1.4 1.4 3.2 1 5.2l-2.7-.5c.2-1.4-.1-2.6-.8-3.5-.7-.9-1.8-1.5-3.2-1.8-1.4-.3-2.5-.2-3.5.2-.9.4-1.5 1.2-1.7 2.2-.3 1.6 1.1 3.1 4.4 4.6.5.2.8.4 1.1.5.1 0 .1.1.3.1 2.1 1 3.5 1.8 4.1 2.6.5.6.8 1.2.9 2 .2.7.2 1.5 0 2.3-.4 2-1.4 3.4-3.1 4.3s-3.7 1.1-6.1.6c-2.5-.5-4.3-1.5-5.5-3.1-1-1.3-1.4-3.3-1-5.7zm24.1.8l4.6 1.4c1.6.5 2.8.5 3.6.2.8-.3 1.4-1.1 1.7-2.4.4-1.2.3-2.1-.2-2.9-.5-.7-1.5-1.3-2.9-1.7l-4.8-1.4-2 6.8zm-6 10.1l5.9-20.2 7.4 2.2c1.2.4 2.1.7 2.7 1 .6.3 1.1.7 1.5 1.1.7.7 1.1 1.5 1.3 2.5.2 1 .1 2.1-.2 3.3-.3 1.1-.8 2.1-1.5 2.8-.7.7-1.5 1.2-2.5 1.5-.6.2-1.2.2-1.9.1s-1.8-.3-3.3-.8l-4.2-1.2-2.5 8.5-2.7-.8zm17.7 5.3l7.8-19.5 2.7 1.1-3.2 8 10.1 4 3.2-8 2.7 1.1-7.8 19.5-2.7-1.1 3.7-9.2-10.1-4-3.7 9.2-2.7-1.1zm19.5 8.1l9.6-18.7 13.3 6.9-1.2 2.3-10.8-5.6-2.9 5.6 10 5.1-1.1 2.2-10-5.1-3.2 6.3 11 5.7-1.2 2.3-13.5-7zm28.9-5.4l-3.8 6 4.1 2.6c1.5.9 2.7 1.4 3.6 1.3.9-.1 1.7-.7 2.5-1.8.7-1.1.8-2 .5-2.8-.3-.8-1.2-1.7-2.8-2.7l-4.1-2.6zm-1.1-3.6l6.9 4.4c1.1.7 1.9 1.3 2.4 1.7.5.4.8.9 1.1 1.4.5.9.7 1.8.6 2.8-.1 1-.4 2-1.1 3-.6 1-1.3 1.6-2.2 2.1-.8.4-1.8.6-2.8.4.6.6.9 1.3.9 1.9 0 .6-.3 1.5-.9 2.7l-1.7 3.1c-.4.7-.6 1.2-.6 1.6-.1.4 0 .7.1 1l-.3.5-2.8-1.8c0-.5.4-1.4 1-2.7v-.1l1.3-2.4c.7-1.2.9-2.2.7-2.8-.2-.6-1.2-1.5-2.9-2.6l-3.9-2.5-4.8 7.6-2.4-1.5 11.4-17.8zm5 28.5l12.4-17 2.3 1.7-12.4 17-2.3-1.7zm22.5 7.7l2.1 1.8c-1.7 1.9-3.7 2.9-5.9 3-2.2.1-4.3-.6-6.3-2.3-2.3-1.9-3.4-4.2-3.4-6.8 0-2.6 1.1-5.3 3.4-8.1 2.1-2.5 4.5-4 7.1-4.3 2.6-.4 5 .4 7.3 2.3 1.8 1.5 2.9 3.2 3.3 5.2.4 1.9 0 3.8-1.2 5.6l-2.2-1.8c.7-1.2.9-2.5.6-3.7-.3-1.2-1-2.3-2.3-3.4-1.6-1.4-3.4-1.9-5.2-1.5-1.9.4-3.7 1.6-5.4 3.7-1.6 2-2.5 4-2.6 5.9-.1 2 .7 3.6 2.2 4.9 1.3 1.1 2.8 1.6 4.3 1.5 1.6 0 3-.7 4.2-2zm14.2 12.6l4.4 4.8 4.6-8.7-9 3.9zm-10.6 1.4l20.8-8.5 2.1 2.3-10.1 20-2.1-2.3 3.1-5.9-5.6-6.1-6.1 2.6-2.1-2.1zm33.7 10.4l-3-3.9-12.7 9.7 3 3.9c1.3 1.7 2.8 2.5 4.5 2.5 1.7 0 3.7-.8 5.8-2.4 2-1.6 3.3-3.2 3.7-4.9.3-1.6-.1-3.2-1.3-4.9zm-19.5 5.2l16.7-12.8 4.9 6.4c1.8 2.3 2.4 4.6 2 6.9-.4 2.3-2 4.5-4.6 6.5-2.7 2.1-5.3 3.1-7.8 2.9-2.5-.1-4.6-1.3-6.4-3.6l-4.8-6.3zm29.1 9.4l-15.3 9.3-1.4-2.2 18-10.9 2.1 3.5-11 12.8c-.3.4-.6.6-.7.8-.2.2-.3.4-.5.5l.9-.3c.3-.1.5-.1.8-.2l16.6-3.8 2.1 3.5-18 10.9-1.4-2.4 15.3-9.3-.9.3c-.3.1-.6.2-.9.2l-16.6 3.7-1.4-2.3 11-12.9c.2-.2.4-.4.6-.7.2 0 .4-.2.7-.5zm-4.5 28.1l18.7-9.6 1.3 2.5-18.7 9.6-1.3-2.5zm3.5 6.7l19.4-8.3 1.2 2.9-10.2 15-.6.9c-.2.3-.4.5-.6.7l15.7-6.7 1.1 2.5-19.4 8.3-1.2-2.9 10.3-15.3c.2-.2.3-.5.5-.7.2-.2.4-.4.6-.7l-15.7 6.7-1.1-2.4zm8 19.6l19.9-6.9.9 2.7-19.9 6.9-.9-2.7zm8.9 4.2l.7 2.7c-1.5.4-2.5 1.3-3.1 2.4s-.7 2.6-.2 4.2c.4 1.6 1.1 2.7 2 3.4.9.7 1.9.9 3.1.6 1.6-.4 2.3-2.5 2.1-6.1v-.5c-.1-2.9.1-5 .7-6.1.6-1.1 1.6-1.9 3-2.3 1.8-.5 3.4-.2 4.9.8 1.5 1 2.5 2.6 3.1 4.8.6 2.2.5 4.2-.3 5.8-.8 1.6-2.2 2.7-4.2 3.3l-.7-2.6c1.3-.5 2.2-1.2 2.7-2.3.5-1 .5-2.3.1-3.7-.4-1.3-1-2.3-1.8-3-.8-.6-1.7-.8-2.7-.6-1.6.4-2.3 2.4-2.1 6v1.5c.1 2.3-.1 3.9-.5 4.8-.3.7-.7 1.2-1.3 1.7-.6.5-1.3.8-2.1 1-2 .5-3.7.3-5.3-.8-1.5-1.1-2.7-2.8-3.3-5.2-.7-2.5-.6-4.5.3-6.3 1-1.5 2.6-2.7 4.9-3.5zm-.7 25.7l18.2-3.4-1.2-6.5 2.5-.5 3 15.9-2.5.5-1.2-6.5-18.2 3.4-.6-2.9zm20.8 12.7l-7.1.7.5 4.9c.2 1.8.6 3 1.2 3.6.6.7 1.6.9 3 .8 1.2-.1 2.1-.6 2.5-1.3.4-.7.6-2 .4-3.9l-.5-4.8zm2.2-3l.8 8.1c.1 1.3.2 2.3.1 2.9-.1.6-.2 1.2-.4 1.7-.4.9-1 1.7-1.8 2.2-.8.5-1.8.9-3 1-1.1.1-2.1 0-3-.4-.9-.4-1.6-1.1-2.1-2-.1.8-.5 1.5-1 1.9-.5.4-1.4.7-2.7.9l-3.4.6c-.7.1-1.3.3-1.6.5-.3.2-.6.4-.7.7l-.6.1-.3-3.3c.4-.3 1.3-.6 2.7-.8h.1l2.7-.4c1.4-.2 2.3-.6 2.6-1.2.4-.5.4-1.8.2-3.8l-.5-4.6-9 .9-.3-2.8 21.2-2.2zm-10.4 25.1l.1 6.6 9.2-3.4-9.3-3.2zm-8.8-5.9l21.1 7.6v3.2l-20.9 8.1v-3.1l6.3-2.3-.1-8.3-6.3-2.2-.1-3zm-.3 25.6l18.4 1.3.5-6.6 2.6.2-1.1 16.1-2.6-.2.5-6.6-18.4-1.3.1-2.9zm-1.1 12l20.9 2.7-.4 2.8-20.9-2.7.4-2.8zm9.1 11.5c-2.6-.5-4.8-.3-6.6.6-1.7.9-2.8 2.5-3.3 4.6-.4 2.1 0 4 1.2 5.5s3.2 2.5 5.8 3.1c2.7.5 4.8.3 6.6-.6 1.7-.9 2.8-2.4 3.2-4.6.4-2.2 0-4-1.2-5.5-1.1-1.5-3.1-2.5-5.7-3.1zm.5-2.9c3.4.7 5.9 2.1 7.5 4.2 1.6 2.1 2 4.7 1.4 7.8-.6 3.1-2.1 5.2-4.3 6.6-2.3 1.3-5.1 1.7-8.5 1-3.4-.7-5.9-2.1-7.5-4.2-1.6-2.1-2.1-4.7-1.4-7.7.6-3.1 2.1-5.3 4.3-6.6 2.3-1.4 5.1-1.7 8.5-1.1zm-15.2 21l20.1 6.3-.9 3-17.5 4.8c-.4.1-.7.2-1.1.3-.3.1-.6.1-.9.1l16.3 5.1-.8 2.6-20.1-6.3.9-3 17.8-5c.3-.1.6-.1.8-.2.3 0 .6-.1.9-.1l-16.3-5.1.8-2.5z"/><path id="text4682" class="st2" d="M-919.9 361.4l11.2-6.7 1.5 2.5-11.3 6.7c-1.7 1-2.7 2.1-3.1 3.4-.4 1.2-.1 2.6.9 4.2.9 1.6 2 2.5 3.3 2.7 1.3.3 2.8-.1 4.4-1.1l11.3-6.7 1.5 2.5-11.2 6.7c-2.4 1.4-4.6 1.9-6.6 1.4s-3.7-2-5.1-4.4c-1.3-2.3-1.7-4.3-1.2-6.2.4-1.9 1.9-3.5 4.4-5zm4.7 22.7l2.6-1.8 1.7 2.4-2.6 1.8-1.7-2.4zm9.6 2l1.7 2.2c-1.2 1-1.8 2.1-1.9 3.4-.1 1.3.3 2.7 1.4 4 1 1.3 2.1 2.1 3.2 2.4 1.1.3 2.1.1 3.1-.6 1.3-1 1.2-3.1-.4-6.4-.1-.2-.2-.3-.2-.5-1.2-2.7-1.8-4.6-1.7-5.9.1-1.2.7-2.3 2-3.3 1.5-1.2 3.1-1.5 4.8-1.2 1.7.4 3.3 1.5 4.7 3.3 1.4 1.8 2.1 3.6 2 5.4-.1 1.8-1 3.3-2.6 4.6l-1.7-2.1c1.1-.9 1.6-2 1.7-3.1.1-1.1-.4-2.3-1.3-3.5-.9-1.1-1.8-1.8-2.8-2.1-1-.3-1.9-.1-2.7.5-1.3 1-1.2 3.1.3 6.3.2.5.4.9.5 1.1 0 .1.1.1.1.3 1 2.1 1.4 3.7 1.4 4.6 0 .7-.2 1.4-.6 2.1-.4.7-.9 1.2-1.5 1.7-1.6 1.2-3.3 1.7-5.2 1.3-1.8-.4-3.5-1.6-5-3.5-1.6-2-2.3-4-2.1-5.9 0-1.8 1-3.6 2.8-5.1zm7.7 20.5l2.4-2.1 1.9 2.2-2.4 2.1-1.9-2.2zm30 4.3l-3.6-3.3-10.9 11.8 3.6 3.3c1.5 1.4 3.2 2 4.9 1.7s3.5-1.4 5.3-3.4c1.7-1.9 2.7-3.7 2.8-5.4.2-1.7-.5-3.3-2.1-4.7zm-18.3 8.4l14.3-15.5 5.9 5.4c2.2 2 3.2 4.2 3.2 6.5s-1.2 4.7-3.4 7.2c-2.3 2.5-4.7 3.9-7.2 4.2-2.5.3-4.8-.5-6.9-2.5l-5.9-5.3zm15.9 14.4l12.9-16.6 11.9 9.2-1.6 2.1-9.6-7.5-3.8 5 8.9 6.9-1.5 1.9-8.9-6.9-4.3 5.6 9.8 7.6-1.6 2.1-12.2-9.4zm24.2 3.7l4 2.6c1.4.9 2.5 1.3 3.4 1.2.8-.1 1.6-.7 2.3-1.8.7-1 .9-2 .6-2.8-.3-.8-1-1.6-2.3-2.5l-4.2-2.7-3.8 6zm-8.6 8l11.5-17.6 6.5 4.2c1.1.7 1.8 1.3 2.3 1.7.5.5.9 1 1.1 1.5.5.9.6 1.8.5 2.8-.1 1-.5 2-1.2 3.1-.6 1-1.4 1.7-2.3 2.2-.9.5-1.8.7-2.8.7-.6 0-1.2-.2-1.8-.4s-1.6-.8-2.9-1.7l-3.6-2.4-4.8 7.4-2.5-1.5zm23.6 4.4l5.8 3.1 1.5-9.7-7.3 6.6zm-9.5 4.8l16.8-14.8 2.8 1.5-3.1 22.2-2.7-1.5 1-6.6-7.3-3.9-5 4.5-2.5-1.4zm29.2-5.8l-2.8 6.5 4.5 1.9c1.6.7 2.9.9 3.8.7.9-.2 1.6-1 2.1-2.2.5-1.1.5-2.1.1-2.8-.4-.7-1.5-1.5-3.2-2.2l-4.5-1.9zm-1.6-3.4l7.5 3.2c1.2.5 2.1 1 2.6 1.3.5.4 1 .7 1.3 1.2.6.8 1 1.7 1.1 2.7s-.1 2-.6 3.1c-.4 1-1.1 1.8-1.8 2.4-.8.5-1.7.8-2.7.9.7.5 1 1.1 1.1 1.8.1.6-.1 1.6-.5 2.8l-1.2 3.3c-.3.7-.4 1.2-.4 1.6 0 .4.1.7.3 1l-.2.5-3-1.3c-.1-.5.1-1.4.6-2.8v-.1l.9-2.6c.5-1.3.6-2.3.3-2.9-.3-.6-1.4-1.3-3.2-2.1l-4.2-1.8-3.6 8.3-2.6-1.1 8.3-19.4zm14.7 28.6l5.9-17.5-6.3-2.1.8-2.4 15.3 5.2-.8 2.4-6.3-2.1-5.9 17.5-2.7-1zm18.9-12.8l-4.2 17.4-2.6-.6 4.9-20.5 4 .9 1.3 16.9c0 .5.1.9.1 1.1v.7c.2-.3.3-.6.4-.9.1-.3.3-.5.4-.7l9-14.4 4 1-4.9 20.5-2.7-.6 4.2-17.4c-.1.3-.3.6-.4.8-.2.3-.3.6-.5.8l-9 14.4-2.6-.6-1.4-16.9c0-.3 0-.6-.1-.9.1-.3.1-.7.1-1zm17.7 22.3l2.9-20.8 14.9 2.1-.4 2.6-12.1-1.7-.9 6.2 11.1 1.6-.3 2.4-11.1-1.6-1 7 12.3 1.7-.4 2.6-15-2.1zm19.3 2.5l1.1-21 3.1.2 9.1 15.8c.2.3.4.7.5 1s.3.6.3.8l.9-17 2.7.1-1.1 21-3.1-.2-9.3-16c-.1-.2-.3-.5-.4-.8-.1-.3-.2-.5-.3-.8l-.9 17-2.6-.1zm26.5.6l-.6-18.5-6.6.2-.1-2.6 16.1-.5.1 2.6-6.6.2.6 18.5-2.9.1zm21.9-12.1c.4 2.7 1.4 4.6 2.8 6 1.5 1.3 3.3 1.8 5.5 1.4 2.2-.3 3.7-1.4 4.7-3.1 1-1.7 1.3-3.9.8-6.5-.4-2.7-1.4-4.7-2.8-6-1.5-1.3-3.3-1.8-5.4-1.4-2.2.3-3.8 1.4-4.7 3.1s-1.3 3.8-.9 6.5zm-2.9.5c-.5-3.4-.1-6.3 1.3-8.5s3.7-3.6 6.8-4.1c3.1-.5 5.6.1 7.7 1.7s3.3 4.2 3.9 7.6c.5 3.4.1 6.3-1.3 8.5-1.4 2.2-3.7 3.6-6.8 4-3.1.5-5.7-.1-7.7-1.7-2.1-1.6-3.4-4.1-3.9-7.5zm25.6 6.2l-5.1-20.4 13.7-3.5.6 2.6-10.9 2.8 1.5 6.1 9.5-2.4.6 2.5-9.5 2.4 2.3 9.2-2.7.7zm36.5-19.9l2.6-1c.8 2.4.7 4.7-.2 6.7-1 2-2.6 3.5-5 4.4-2.8 1.1-5.3 1-7.6-.3s-4.1-3.6-5.4-6.9c-1.2-3.1-1.3-5.8-.4-8.3.9-2.4 2.8-4.2 5.6-5.3 2.2-.9 4.3-1 6.1-.4 1.9.6 3.3 1.8 4.3 3.7l-2.6 1c-.8-1.2-1.7-2-2.9-2.3-1.2-.3-2.6-.2-4 .4-2 .8-3.3 2.1-3.8 3.9s-.3 4 .6 6.5c.9 2.4 2.2 4.1 4 5.1s3.5 1.1 5.4.4c1.6-.6 2.7-1.6 3.4-3 .4-1.4.5-2.9-.1-4.6zm6.3-5.7c1.2 2.4 2.7 4 4.5 4.8 1.8.8 3.7.7 5.6-.3 2-1 3.1-2.4 3.6-4.3.4-1.9 0-4.1-1.2-6.5-1.2-2.4-2.7-4-4.5-4.8-1.8-.8-3.7-.7-5.6.3-2 1-3.2 2.4-3.6 4.4-.4 1.8 0 4 1.2 6.4zm-2.7 1.3c-1.6-3.1-2-5.9-1.3-8.5.7-2.5 2.4-4.5 5.2-5.9 2.8-1.4 5.4-1.6 7.8-.7 2.4 1 4.5 3 6 6.1 1.6 3.1 2 5.9 1.3 8.5-.7 2.5-2.4 4.5-5.2 5.9-2.8 1.4-5.4 1.6-7.9.7-2.3-.9-4.3-3-5.9-6.1zm18.9-18.3l9.7 15.1-2.2 1.4-11.4-17.7 3.4-2.2 13.1 10.7c.4.3.7.5.9.7.2.2.4.3.5.5l-.3-.9c-.1-.3-.2-.5-.2-.8L-603 429l3.4-2.2 11.4 17.7-2.3 1.5-9.7-15.1.3.9.3.9 4.2 16.5-2.3 1.5-13.1-10.7c-.2-.2-.5-.4-.7-.6-.3-.3-.6-.5-.8-.8zm19.2-12.9l11.3 14-2 1.7L-597 425l3.2-2.6 14.2 9.3c.4.3.7.5.9.6.2.2.4.3.5.4-.2-.3-.3-.6-.4-.9-.1-.3-.2-.5-.3-.8l-5.9-15.9 3.2-2.6 13.2 16.4-2.2 1.7-11.3-14c.1.3.3.6.4.9.1.3.3.6.4.9l5.9 15.9-2.1 1.7-14.2-9.2c-.2-.1-.5-.3-.7-.5-.4-.1-.6-.3-.9-.6zm28.4-.4l-14.7-15.1 10.7-10.5 1.8 1.9-8.7 8.5 4.4 4.5 8-7.9 1.7 1.8-8 7.9 4.9 5 8.9-8.7 1.8 1.9-10.8 10.7zm1.6-28l5.4 4.7 3.2-3.7c1.2-1.3 1.7-2.5 1.8-3.4 0-.9-.4-1.8-1.4-2.7-.9-.8-1.8-1.1-2.7-.9-.8.2-1.9 1-3.1 2.4l-3.2 3.6zm-3.7.5l5.3-6.2c.9-1 1.5-1.7 2-2.1.5-.4 1-.7 1.5-.9.9-.4 1.9-.4 2.9-.2s1.9.7 2.8 1.5c.9.7 1.4 1.6 1.7 2.5.3.9.3 1.9 0 2.9.7-.5 1.4-.7 2-.6.6.1 1.5.5 2.5 1.3l2.8 2.1c.6.4 1.1.7 1.5.9s.7.1 1 0l.4.4-2.2 2.5c-.5-.1-1.3-.6-2.5-1.4 0 0-.1 0-.1-.1l-2.2-1.7c-1.1-.8-2-1.2-2.7-1.1-.6.1-1.6.9-3 2.5l-3 3.5 6.8 5.9-1.8 2.1-15.7-13.8zm31.2-18.2l1.6-2.3c2 1.6 3.2 3.5 3.4 5.7.3 2.2-.3 4.4-1.8 6.4-1.7 2.4-3.9 3.7-6.5 3.9-2.6.2-5.4-.8-8.3-2.8-2.7-1.9-4.3-4.2-4.8-6.7-.5-2.6.1-5.1 1.8-7.5 1.4-1.9 3-3.2 4.9-3.7 1.9-.5 3.8-.3 5.6.8l-1.6 2.3c-1.3-.6-2.5-.7-3.7-.3-1.2.4-2.3 1.2-3.2 2.5-1.2 1.7-1.6 3.5-1.1 5.3.5 1.8 1.9 3.5 4.1 5.1 2.1 1.5 4.1 2.2 6.1 2.1s3.6-1 4.7-2.6c1-1.4 1.4-2.9 1.2-4.4-.2-1.4-1-2.7-2.4-3.8zm10.2-1.2l-18.1-10.7 7.6-12.9 2.2 1.3-6.2 10.5 5.4 3.2 5.7-9.7 2.1 1.3-5.7 9.7 6.1 3.6 6.3-10.7 2.3 1.3-7.7 13.1z"/><path class="st2" d="M-628.7 77.6c-4.1-2.2-38.6-22.9-91.5-23.7-114.7.4-165.2 84.6-165.2 84.6 25.4 12.4 51.7 49.9 52.1 50.4 28.4 39.8 68 101.6 119.3 102.8 16.4.4 27.3-9.4 39.8-21.5 45.5-44.1 51.9-125.6 110.2-137.1-.1 0-21.7-32.6-64.7-55.5zm-4.7 127.7H-814v-90h180.7v90z"/><path class="st0" d="M-755.8 184.2h13.6c5.5 0 9.9-4.4 9.9-9.9v-32.8c0-5.5-4.4-9.9-9.9-9.9h-13.6c-5.5 0-9.9 4.4-9.9 9.9v32.8c-.1 5.4 4.4 9.9 9.9 9.9zm1.3-41.4c0-1.3 1-2.3 2.3-2.3h6.4c1.3 0 2.3 1 2.3 2.3v30c0 1.3-1 2.3-2.3 2.3h-6.4c-1.3 0-2.3-1-2.3-2.3v-30zM-668.3 163h10.9v21.1h11.3v-42.7c0-5.5-4.4-9.9-9.9-9.9h-13.6c-5.5 0-9.9 4.4-9.9 9.9v42.7h11.3V163zm0-20.2c0-1.3 1-2.3 2.3-2.3h6.3c1.3 0 2.3 1 2.3 2.3V154h-10.9v-11.2z"/><path class="st2" d="M-700.4 142.8c0-1.3-1-2.3-2.3-2.3h-6.3c-1.3 0-2.3 1-2.3 2.3V154h10.9v-11.2zM-657.3 142.8c0-1.3-1-2.3-2.3-2.3h-6.3c-1.3 0-2.3 1-2.3 2.3V154h10.9v-11.2z"/><path class="st0" d="M-797.6 142.8c0-1.3 1-2.3 2.3-2.3h6.4c1.3 0 2.3 1 2.3 2.3v41.3h11.3v-42.7c0-5.5-4.4-9.9-9.9-9.9h-23.6v52.7h11.3v-41.4zM-711.4 163h10.9v21.1h11.3v-42.7c0-5.5-4.4-9.9-9.9-9.9h-13.6c-5.5 0-9.9 4.4-9.9 9.9v42.7h11.3V163zm0-20.2c0-1.3 1-2.3 2.3-2.3h6.3c1.3 0 2.3 1 2.3 2.3V154h-10.9v-11.2z"/><path class="st2" d="M-814 205.3h180.7v-90H-814v90zm134.5-63.9c0-5.5 4.4-9.9 9.9-9.9h13.6c5.5 0 9.9 4.4 9.9 9.9v42.7h-11.3V163h-10.9v21.1h-11.3v-42.7zm-43.1 0c0-5.5 4.4-9.9 9.9-9.9h13.6c5.5 0 9.9 4.4 9.9 9.9v42.7h-11.3V163h-10.9v21.1h-11.3v-42.7zm-43.2 0c0-5.5 4.4-9.9 9.9-9.9h13.6c5.5 0 9.9 4.4 9.9 9.9v32.8c0 5.5-4.4 9.9-9.9 9.9h-13.6c-5.5 0-9.9-4.4-9.9-9.9v-32.8zm-43.1-9.9h23.6c5.5 0 9.9 4.4 9.9 9.9v42.7h-11.3v-41.3c0-1.3-1-2.3-2.3-2.3h-6.4c-1.3 0-2.3 1-2.3 2.3v41.3H-809v-52.6z"/><path class="st2" d="M-752.2 175.1h6.4c1.3 0 2.3-1 2.3-2.3v-30c0-1.3-1-2.3-2.3-2.3h-6.4c-1.3 0-2.3 1-2.3 2.3v30c0 1.3 1 2.3 2.3 2.3z"/></svg>